# Blender v2.76 (sub 0) OBJ File: 'launchClamp.blend'
# www.blender.org
mtllib launchClamp.arm.mtl
o Arm.actual_Cube.002
v -0.500000 1.025000 0.500000
v -0.500000 1.025000 -0.500000
v 0.500000 1.025000 -0.500000
v 0.500000 1.025000 0.500000
v -0.500000 9.000000 -0.500000
v 0.500000 9.000000 -0.500000
v 0.500000 8.599999 -0.500000
v 0.500000 8.799999 -0.500000
v -0.500000 8.400000 -0.500000
v -0.500000 8.599999 -0.500000
v -0.500000 8.799999 -0.500000
v 0.500000 6.200000 -0.500000
v 0.500000 6.400000 -0.500000
v 0.500000 6.600000 -0.500000
v -0.500000 6.200000 -0.500000
v -0.500000 6.400000 -0.500000
v -0.500000 6.600000 -0.500000
v 0.300000 6.400000 -0.500000
v 0.300000 6.600000 -0.500000
v 0.100000 6.200000 -0.500000
v 0.100000 6.400000 -0.600000
v 0.100000 6.600000 -0.600000
v 0.100000 6.800000 -0.500000
v -0.100000 6.200000 -0.500000
v -0.100000 6.400000 -0.600000
v -0.100000 6.600000 -0.600000
v -0.100000 6.800000 -0.500000
v -0.300000 6.400000 -0.500000
v -0.300000 6.600000 -0.500000
v 0.300000 8.400000 -0.500000
v 0.300000 8.599999 -0.500000
v 0.100000 8.200000 -0.500000
v 0.100000 8.400000 -0.600000
v 0.100000 8.599999 -0.600000
v 0.100000 8.799999 -0.500000
v -0.100000 8.200000 -0.500000
v -0.100000 8.400000 -0.600000
v -0.100000 8.599999 -0.600000
v -0.100000 8.799999 -0.500000
v -0.300000 8.400000 -0.500000
v -0.300000 8.599999 -0.500000
v 0.100000 6.400000 -1.100000
v 0.100000 6.600000 -1.100000
v -0.100000 6.400000 -1.100000
v -0.100000 6.600000 -1.100000
v 0.100000 8.400000 -1.100000
v 0.100000 8.599999 -1.100000
v -0.100000 8.400000 -1.100000
v -0.100000 8.599999 -1.100000
v -0.450000 0.900000 0.250000
v -0.450000 0.900000 -0.250000
v 0.450000 0.900000 -0.250000
v 0.450000 0.900000 0.250000
v -0.450000 0.385000 0.250000
v -0.450000 0.385000 -0.250000
v 0.450000 0.385000 -0.250000
v 0.450000 0.385000 0.250000
v -0.450000 0.260000 0.125000
v -0.450000 0.260000 -0.125000
v 0.450000 0.260000 -0.125000
v 0.450000 0.260000 0.125000
vn 0.928500 -0.371400 0.000000
vn -1.000000 0.000000 0.000000
vn 0.408200 -0.408200 -0.816500
vn 0.447200 0.000000 -0.894400
vn 0.000000 -0.447200 -0.894400
vn 0.000000 -1.000000 0.000000
vn 0.000000 0.447200 -0.894400
vn -0.408200 -0.408200 -0.816500
vn -0.447200 0.000000 -0.894400
vn 1.000000 0.000000 0.000000
vn 0.000000 0.000000 1.000000
vn 0.000000 0.000000 -1.000000
vn 0.000000 1.000000 0.000000
vn -0.408200 0.408200 -0.816500
vn 0.408200 0.408200 -0.816500
vn -0.408200 0.408300 -0.816500
vn 0.408200 0.408300 -0.816500
vn -0.928500 -0.371400 0.000000
vn 0.000000 -0.894400 0.447200
vn 0.000000 -0.894400 -0.447200
vn 0.000000 -0.707100 0.707100
vn 0.000000 -0.707100 -0.707100
vn 0.000000 0.124400 0.992200
usemtl None
s off
f 4//1 53//1 52//1
f 15//2 2//2 1//2
f 20//3 21//3 18//3
f 21//4 22//4 19//4
f 24//5 25//5 21//5
f 37//6 48//6 46//6
f 26//7 27//7 23//7
f 25//8 24//8 28//8
f 28//9 29//9 26//9
f 8//10 6//10 4//10
f 8//11 12//11 13//11
f 7//11 13//11 14//11
f 39//12 11//12 5//12
f 33//4 34//4 31//4
f 36//5 37//5 33//5
f 34//13 47//13 49//13
f 38//7 39//7 35//7
f 40//9 41//9 38//9
f 15//11 11//11 10//11
f 16//11 10//11 9//11
f 32//12 27//12 36//12
f 44//12 45//12 43//12
f 48//12 49//12 47//12
f 38//2 49//2 48//2
f 33//10 46//10 47//10
f 22//13 43//13 45//13
f 25//6 44//6 42//6
f 26//2 45//2 44//2
f 21//10 42//10 43//10
f 26//14 29//14 27//14
f 19//15 22//15 23//15
f 38//16 41//16 39//16
f 31//17 34//17 35//17
f 32//3 33//3 30//3
f 37//8 36//8 40//8
f 2//18 51//18 50//18
f 1//19 50//19 53//19
f 3//20 52//20 51//20
f 61//10 56//10 57//10
f 50//11 54//11 57//11
f 52//12 56//12 55//12
f 60//6 61//6 58//6
f 54//21 58//21 61//21
f 56//22 60//22 59//22
f 59//2 54//2 55//2
f 6//23 5//23 1//23
f 20//12 12//12 3//12
f 3//1 4//1 52//1
f 1//2 5//2 11//2
f 11//2 15//2 1//2
f 18//4 21//4 19//4
f 20//5 24//5 21//5
f 33//6 37//6 46//6
f 22//7 26//7 23//7
f 25//9 28//9 26//9
f 4//10 3//10 12//10
f 12//10 8//10 4//10
f 7//11 8//11 13//11
f 41//12 40//12 9//12
f 7//12 31//12 8//12
f 41//12 9//12 10//12
f 8//12 31//12 35//12
f 39//12 41//12 11//12
f 8//12 35//12 6//12
f 5//12 6//12 39//12
f 10//12 11//12 41//12
f 6//12 35//12 39//12
f 30//4 33//4 31//4
f 32//5 36//5 33//5
f 38//13 34//13 49//13
f 34//7 38//7 35//7
f 37//9 40//9 38//9
f 16//11 15//11 10//11
f 17//11 16//11 9//11
f 16//12 17//12 29//12
f 9//12 40//12 36//12
f 30//12 31//12 7//12
f 17//12 9//12 36//12
f 30//12 7//12 14//12
f 17//12 27//12 29//12
f 32//12 30//12 14//12
f 14//12 19//12 23//12
f 29//12 28//12 16//12
f 32//12 14//12 23//12
f 17//12 36//12 27//12
f 32//12 23//12 27//12
f 42//12 44//12 43//12
f 46//12 48//12 47//12
f 37//2 38//2 48//2
f 34//10 33//10 47//10
f 26//13 22//13 45//13
f 21//6 25//6 42//6
f 25//2 26//2 44//2
f 22//10 21//10 43//10
f 1//18 2//18 50//18
f 4//19 1//19 53//19
f 2//20 3//20 51//20
f 53//10 57//10 56//10
f 61//10 60//10 56//10
f 56//10 52//10 53//10
f 53//11 50//11 57//11
f 51//12 52//12 55//12
f 59//6 60//6 58//6
f 57//21 54//21 61//21
f 55//22 56//22 59//22
f 51//2 55//2 54//2
f 59//2 58//2 54//2
f 54//2 50//2 51//2
f 4//23 6//23 1//23
f 3//12 2//12 24//12
f 15//12 16//12 28//12
f 18//12 19//12 14//12
f 15//12 28//12 24//12
f 18//12 14//12 13//12
f 15//12 24//12 2//12
f 20//12 18//12 12//12
f 13//12 12//12 18//12
f 3//12 24//12 20//12
