# Blender v2.76 (sub 0) OBJ File: 'launchClamp.blend'
# www.blender.org
mtllib launchClamp.base.mtl
o Base.actual_Cube.000
v -0.500000 0.000000 0.500000
v -0.500000 0.000000 -0.500000
v 0.500000 0.000000 -0.500000
v 0.500000 0.000000 0.500000
v -0.500000 1.000000 -0.500000
v 0.500000 1.000000 -0.500000
v -0.500000 0.666667 0.500000
v -0.333333 1.000000 -0.500000
v 0.333333 1.000000 -0.500000
v 0.500000 0.666667 0.500000
v -0.500000 1.000000 0.166667
v 0.500000 1.000000 0.166667
v -0.333333 1.000000 0.166667
v 0.333333 1.000000 0.166667
v 0.333333 0.666667 0.500000
v 0.333333 0.153333 0.500000
v -0.333333 0.666667 0.500000
v -0.333333 0.153333 0.500000
v -0.333333 0.153333 -0.500000
v 0.333333 0.153333 -0.500000
vn 0.000000 0.000000 1.000000
vn 0.000000 1.000000 0.000000
vn 0.000000 -1.000000 0.000000
vn 0.000000 0.707100 0.707100
vn 1.000000 0.000000 0.000000
vn 0.000000 0.000000 -1.000000
vn -1.000000 0.000000 0.000000
usemtl Material.000
s off
f 16//1 1//1 4//1
f 11//2 13//2 8//2
f 3//3 4//3 1//3
f 19//2 18//2 16//2
f 14//4 15//4 10//4
f 11//4 7//4 17//4
f 3//5 6//5 12//5
f 2//6 19//6 20//6
f 2//7 7//7 11//7
f 17//5 18//5 19//5
f 20//7 15//7 14//7
f 14//2 12//2 6//2
f 18//1 17//1 7//1
f 10//1 15//1 16//1
f 18//1 7//1 1//1
f 4//1 10//1 16//1
f 16//1 18//1 1//1
f 5//2 11//2 8//2
f 2//3 3//3 1//3
f 20//2 19//2 16//2
f 12//4 14//4 10//4
f 13//4 11//4 17//4
f 12//5 10//5 3//5
f 4//5 3//5 10//5
f 9//6 6//6 20//6
f 2//6 5//6 19//6
f 20//6 6//6 3//6
f 5//6 8//6 19//6
f 20//6 3//6 2//6
f 11//7 5//7 2//7
f 2//7 1//7 7//7
f 19//5 8//5 13//5
f 13//5 17//5 19//5
f 14//7 9//7 20//7
f 20//7 16//7 15//7
f 9//2 14//2 6//2
