# Blender v2.76 (sub 0) OBJ File: 'intersection.blend'
# www.blender.org
mtllib AntennaIntersection.mtl
o Atenna_Hub_Cylinder.002
v -0.141421 1.000000 -0.141422
v 0.000000 1.000000 -0.200000
v 0.000000 0.699997 -0.200053
v 0.141421 0.333333 0.141421
v 0.141421 -0.000000 0.141421
v 0.200000 0.000000 0.000000
v 0.141421 1.000000 -0.141421
v 0.200000 1.000000 0.000000
v 0.200000 0.666667 0.000000
v 0.141421 1.000000 0.141421
v 0.000000 1.000000 0.200000
v 0.000000 0.699997 0.200053
v -0.141421 1.000000 0.141421
v -0.200000 1.000000 0.000000
v -0.200000 0.666667 0.000000
v -0.141421 0.666667 -0.141422
v -0.141421 -0.000000 0.141421
v 0.141421 0.000000 -0.141421
v -0.141421 0.000000 -0.141422
v -0.141421 0.333333 -0.141422
v 0.000000 0.299988 -0.200000
v 0.141421 0.666667 0.141421
v 0.141421 0.333333 -0.141421
v 0.200000 0.333333 0.000000
v 0.000000 0.299988 0.200000
v -0.141421 0.333333 0.141421
v -0.200000 0.333333 0.000000
v -0.200000 0.000000 0.000000
v -0.141421 0.358579 0.166667
v -0.141421 0.358579 -0.166667
v -0.141421 0.666667 0.141421
v -0.141421 0.641422 0.166667
v 0.141421 0.358579 -0.166667
v -0.200000 0.500001 -0.166667
v 0.141421 0.641422 -0.166667
v 0.141421 0.641422 -0.500000
v 0.141421 0.358579 -0.500000
v 0.200000 0.500001 -0.500000
v 0.141421 0.641421 0.166667
v 0.141421 0.641421 0.500000
v 0.200000 0.500000 0.500000
v -0.141421 0.641422 -0.500000
v -0.141421 0.641422 -0.166667
v -0.141421 0.358579 0.500000
v -0.200000 0.500000 0.500000
v -0.200000 0.500000 0.166667
v 0.141421 0.358579 0.500000
v -0.141421 0.641421 0.500000
v -0.141421 0.358579 -0.500000
v 0.141421 0.666667 -0.141421
v 0.141421 0.358579 0.166667
v 0.200000 0.500000 0.166667
v 0.200000 0.500000 -0.166667
v 0.000000 0.300000 0.500000
v 0.196993 0.500000 -0.058232
v 0.196993 0.558232 0.000000
v 0.196993 0.500000 0.058232
v -0.196993 0.500000 -0.058232
v -0.196993 0.441768 0.000000
v -0.196993 0.500000 0.058232
v 0.000000 0.700000 0.500000
v 0.184832 0.405541 0.000000
v 0.184832 0.500000 0.094459
v 0.184832 0.594459 0.000000
v 0.184832 0.500000 -0.094459
v -0.184832 0.500000 -0.094459
v -0.184832 0.594459 0.000000
v -0.184832 0.405541 0.000000
v -0.184832 0.500000 0.094459
v 0.196993 0.441768 0.000000
v -0.196993 0.558232 0.000000
v 0.000000 0.000000 -0.200000
v 0.000000 -0.000000 0.200000
v 0.000000 0.700001 -0.500000
v 0.000000 0.300001 -0.500000
v -0.200000 0.500001 -0.500000
vt 0.844210 0.394073
vt 0.844213 0.291354
vt 0.925673 0.291347
vt 0.798693 0.720169
vt 0.889203 0.720169
vt 0.889203 0.802307
vt 0.844210 0.192977
vt 0.844210 0.090260
vt 0.934721 0.090260
vt 0.365812 0.799847
vt 0.365812 0.903441
vt 0.284351 0.903455
vt 0.844210 0.209219
vt 0.407692 0.788351
vt 0.489152 0.788365
vt 0.489152 0.891958
vt 0.691890 0.905025
vt 0.691890 0.802307
vt 0.782401 0.802307
vt 0.259009 0.347712
vt 0.081622 0.524558
vt 0.008146 0.451306
vt 0.691890 0.720169
vt 0.782400 0.720169
vt 0.259009 0.081373
vt 0.185533 0.258218
vt 0.081622 0.008121
vt 0.160463 0.540800
vt 0.250973 0.540801
vt 0.241916 0.643520
vt 0.844210 0.008121
vt 0.934721 0.008121
vt 0.798693 0.905025
vt 0.798693 0.802307
vt 0.657862 0.977027
vt 0.567351 0.977027
vt 0.576406 0.873433
vt 0.250973 0.725655
vt 0.160463 0.725653
vt 0.017200 0.991879
vt 0.008146 0.888285
vt 0.098657 0.888285
vt 0.160460 0.926753
vt 0.160460 0.824035
vt 0.250971 0.824035
vt 0.160460 0.741897
vt 0.250971 0.741897
vt 0.483595 0.008121
vt 0.579597 0.047765
vt 0.483595 0.025206
vt 0.371302 0.306678
vt 0.467303 0.267035
vt 0.467303 0.284119
vt 0.371302 0.211113
vt 0.275301 0.250792
vt 0.275301 0.233707
vt 0.275301 0.284119
vt 0.275301 0.267034
vt 0.723461 0.347903
vt 0.691890 0.231311
vt 0.746976 0.231818
vt 0.629739 0.525948
vt 0.657862 0.615789
vt 0.653054 0.632156
vt 0.579596 0.306714
vt 0.675598 0.284119
vt 0.675598 0.509705
vt 0.576897 0.632156
vt 0.581705 0.855346
vt 0.526648 0.857191
vt 0.823136 0.480229
vt 0.827918 0.703420
vt 0.772832 0.703926
vt 0.483595 0.509705
vt 0.483595 0.284119
vt 0.657862 0.855346
vt 0.602805 0.857191
vt 0.597997 0.634001
vt 0.505548 0.568757
vt 0.474236 0.742819
vt 0.398642 0.729300
vt 0.012954 0.540800
vt 0.068011 0.542645
vt 0.063203 0.765835
vt 0.275301 0.739398
vt 0.306655 0.557207
vt 0.350996 0.752346
vt 0.675598 0.267034
vt 0.751758 0.364652
vt 0.746976 0.587842
vt 0.691890 0.587335
vt 0.139360 0.765835
vt 0.084303 0.763990
vt 0.089111 0.540800
vt 0.579597 0.250792
vt 0.483595 0.250792
vt 0.483595 0.267035
vt 0.675598 0.250792
vt 0.751758 0.008628
vt 0.768050 0.124712
vt 0.823136 0.124205
vt 0.827918 0.347396
vt 0.467303 0.233707
vt 0.467303 0.250792
vt 0.114951 0.888285
vt 0.144168 0.917414
vt 0.144168 0.958608
vt 0.551057 0.943756
vt 0.521840 0.914627
vt 0.521840 0.873433
vt 0.275301 0.008121
vt 0.371302 0.008121
vt 0.275301 0.509705
vt 0.467303 0.509705
vt 0.467303 0.008121
vt 0.675598 0.008121
vt 0.675598 0.025206
vt 0.827918 0.106545
vt 0.068011 0.782202
vt 0.039888 0.872043
vt 0.008146 0.763990
vt 0.827918 0.462569
vt 0.768050 0.480736
vt 0.723461 0.703926
vt 0.553582 0.525948
vt 0.581705 0.615789
vt 0.144168 0.782202
vt 0.901343 0.526209
vt 0.922880 0.525469
vt 0.942185 0.586310
vt 0.939557 0.720169
vt 0.946337 0.767417
vt 0.927032 0.828257
vt 0.905495 0.827518
vt 0.946337 0.893940
vt 0.935405 0.410316
vt 0.942185 0.459787
vt 0.985074 0.008121
vt 0.991854 0.055369
vt 0.972549 0.116209
vt 0.878272 0.633558
vt 0.844210 0.526209
vt 0.865746 0.525469
vt 0.878272 0.410316
vt 0.885051 0.459787
vt 0.951012 0.115470
vt 0.991854 0.181892
vt 0.971316 0.471195
vt 0.983217 0.511687
vt 0.977782 0.536840
vt 0.983217 0.578235
vt 0.971316 0.618727
vt 0.958477 0.618765
vt 0.983217 0.656234
vt 0.977782 0.679605
vt 0.977782 0.410316
vt 0.983217 0.433688
vt 0.981934 0.720169
vt 0.987369 0.745322
vt 0.975468 0.785814
vt 0.970317 0.374128
vt 0.951012 0.308445
vt 0.963852 0.308483
vt 0.970317 0.247605
vt 0.975753 0.270976
vt 0.962629 0.785851
vt 0.987369 0.823320
vt 0.934721 0.394074
vt 0.934721 0.192977
vt 0.275301 0.799847
vt 0.934721 0.209221
vt 0.398642 0.891958
vt 0.782401 0.905025
vt 0.008146 0.347712
vt 0.081622 0.274461
vt 0.185533 0.274460
vt 0.259009 0.451306
vt 0.185533 0.524558
vt 0.008146 0.184966
vt 0.008146 0.081373
vt 0.185533 0.008121
vt 0.259009 0.184967
vt 0.081622 0.258218
vt 0.160460 0.643518
vt 0.889203 0.905025
vt 0.657862 0.873433
vt 0.098657 0.991879
vt 0.250971 0.926753
vt 0.751758 0.249479
vt 0.579596 0.509705
vt 0.521840 0.634001
vt 0.398642 0.639469
vt 0.429954 0.555238
vt 0.474236 0.525948
vt 0.505548 0.658588
vt 0.429954 0.772109
vt 0.382350 0.570155
vt 0.382350 0.663932
vt 0.306655 0.783605
vt 0.275301 0.645621
vt 0.350996 0.525948
vt 0.696672 0.364145
vt 0.144168 0.542645
vt 0.696672 0.008121
vt 0.772832 0.347902
vt 0.114951 0.929479
vt 0.551057 0.902562
vt 0.371302 0.509706
vt 0.799621 0.008121
vt 0.799621 0.364145
vt 0.751758 0.605502
vt 0.116045 0.872043
vt 0.935405 0.633558
vt 0.939557 0.943410
vt 0.885051 0.586310
vt 0.985074 0.231362
vt 0.958477 0.471157
vt 0.977782 0.553082
vt 0.975753 0.348975
vt 0.981934 0.846692
vn -0.382800 0.000100 -0.923800
vn -0.382700 0.000200 -0.923900
vn -0.382900 0.000000 -0.923800
vn 0.923900 -0.000000 0.382700
vn 0.923900 0.000000 -0.382700
vn 0.382800 0.000100 0.923800
vn 0.382700 0.000200 0.923900
vn 0.382900 0.000000 0.923800
vn 0.382900 0.000000 -0.923800
vn 0.382700 0.000200 -0.923900
vn 0.382800 0.000100 -0.923800
vn -0.382900 0.000000 0.923800
vn -0.382700 0.000200 0.923900
vn -0.382800 0.000100 0.923800
vn -0.923900 -0.000000 0.382700
vn 0.000000 1.000000 0.000000
vn -0.923900 0.000000 -0.382700
vn 0.000000 -1.000000 -0.000000
vn -0.382700 0.000000 -0.923900
vn 0.382700 -0.000000 0.923900
vn 0.382700 0.000000 -0.923900
vn -0.382700 -0.000000 0.923900
vn -0.417600 -0.642500 0.642500
vn -0.417600 -0.642500 -0.642500
vn -0.417800 0.642500 0.642400
vn 0.417600 -0.642500 -0.642500
vn -0.862900 -0.357400 -0.357400
vn -0.862900 -0.357400 0.357400
vn 0.382700 0.923900 0.000000
vn 0.923900 -0.382700 -0.000000
vn 0.923900 0.382700 0.000000
vn -0.382700 0.923900 0.000000
vn -0.923900 -0.382700 -0.000000
vn -0.000000 -0.000000 1.000000
vn -0.923900 0.382700 0.000000
vn -0.000000 0.000000 -1.000000
vn 0.417800 0.642500 -0.642400
vn -0.382700 -0.923900 0.000000
vn -0.417800 0.642400 -0.642400
vn 0.382700 -0.923900 0.000000
vn 0.417800 0.642400 0.642400
vn 1.000000 0.000000 0.000000
vn -1.000000 0.000000 0.000000
vn 0.382800 -0.923900 -0.000000
vn -0.382800 -0.923900 -0.000000
vn 0.417600 -0.642500 0.642500
vn -0.862900 0.357400 -0.357400
vn -0.862900 0.357400 0.357400
vn 0.862900 0.357400 0.357400
vn 0.862900 -0.357400 0.357400
vn 0.862900 -0.357400 -0.357400
vn 0.862900 0.357400 -0.357400
vn 0.958600 0.201400 -0.201400
vn 0.958600 -0.201400 -0.201400
vn 0.958600 -0.201400 0.201400
vn 0.958600 0.201400 0.201400
vn -0.958600 -0.201400 0.201400
vn -0.958600 0.201400 0.201400
vn -0.958600 0.201400 -0.201400
vn -0.958600 -0.201400 -0.201400
vn 0.903400 -0.303300 0.303300
vn 0.903400 0.303300 0.303300
vn 0.903400 0.303300 -0.303300
vn 0.903400 -0.303300 -0.303300
vn -0.903400 0.303300 -0.303300
vn -0.903400 -0.303300 -0.303300
vn -0.903400 -0.303300 0.303300
vn -0.903400 0.303300 0.303300
vn -0.383000 0.000000 -0.923800
vn 0.383000 -0.000000 0.923800
vn 0.383000 0.000000 -0.923800
vn -0.383000 -0.000000 0.923800
usemtl None
s 1
f 1/1/1 2/2/2 3/3/3
f 4/4/4 5/5/4 6/6/4
f 7/7/5 8/8/5 9/9/5
f 10/10/6 11/11/7 12/12/8
f 3/3/9 2/2/10 7/13/11
f 12/14/12 11/15/13 13/16/14
f 13/17/15 14/18/15 15/19/15
f 13/20/16 8/21/16 7/22/16
f 14/18/17 1/23/17 16/24/17
f 5/25/18 17/26/18 18/27/18
f 19/28/19 20/29/19 21/30/19
f 10/31/4 22/32/4 9/9/4
f 23/33/5 24/34/5 6/6/5
f 5/35/20 4/36/20 25/37/20
f 21/30/21 23/38/21 18/39/21
f 25/40/22 26/41/22 17/42/22
f 26/43/15 27/44/15 28/45/15
f 27/44/17 20/46/17 19/47/17
f 26/48/23 25/49/23 29/50/23
f 21/51/24 20/52/24 30/53/24
f 12/54/25 31/55/25 32/56/25
f 21/51/26 33/57/26 23/58/26
f 27/59/27 34/60/27 30/61/27
f 27/62/28 26/63/28 29/64/28
f 3/65/29 35/66/29 36/67/29
f 33/68/30 37/69/30 38/70/30
f 39/71/31 40/72/31 41/73/31
f 42/74/32 43/75/32 3/65/32
f 44/76/33 45/77/33 46/78/33
f 44/79/34 47/80/34 40/81/34
f 45/82/35 48/83/35 32/84/35
f 37/85/36 49/86/36 36/87/36
f 50/88/37 35/66/37 3/65/37
f 47/89/30 51/90/30 52/91/30
f 35/92/31 53/93/31 38/94/31
f 25/49/38 54/95/38 44/96/38
f 3/65/39 43/75/39 16/97/39
f 47/98/40 54/95/40 25/49/40
f 49/99/33 30/61/33 34/60/33
f 34/100/35 43/101/35 42/102/35
f 12/54/41 39/103/41 22/104/41
f 55/105/42 56/106/42 57/107/42
f 58/108/43 59/109/43 60/110/43
f 48/111/32 61/112/32 12/54/32
f 37/113/40 33/57/44 21/51/40
f 21/51/38 30/53/45 49/114/38
f 12/54/29 61/112/29 40/115/29
f 25/49/46 4/116/46 51/117/46
f 16/118/47 43/101/47 34/100/47
f 31/119/48 15/120/48 46/121/48
f 22/122/49 39/71/49 52/123/49
f 24/124/50 52/91/50 51/90/50
f 24/125/51 23/126/51 33/68/51
f 53/93/52 35/92/52 50/127/52
f 24/128/53 62/129/53 63/130/53
f 52/131/54 63/132/54 64/133/54
f 9/134/55 64/133/55 65/135/55
f 53/136/56 65/137/56 62/129/56
f 34/138/57 66/139/57 67/140/57
f 34/141/58 27/142/58 68/143/58
f 27/142/59 46/144/59 69/145/59
f 15/146/60 67/140/60 69/147/60
f 70/148/61 57/149/61 63/150/61
f 57/151/62 56/152/62 64/153/62
f 56/152/63 55/154/63 65/155/63
f 65/156/64 55/157/64 70/148/64
f 66/158/65 58/159/65 71/160/65
f 66/161/66 68/162/66 59/163/66
f 69/164/67 60/165/67 59/163/67
f 67/166/68 71/160/68 60/167/68
f 16/168/69 1/1/1 3/3/3
f 24/34/4 4/4/4 6/6/4
f 50/169/5 7/7/5 9/9/5
f 22/170/70 10/10/6 12/12/8
f 50/171/71 3/3/9 7/13/11
f 31/172/72 12/14/12 13/16/14
f 31/173/15 13/17/15 15/19/15
f 7/22/16 2/174/16 1/175/16
f 1/175/16 14/176/16 13/20/16
f 13/20/16 11/177/16 10/178/16
f 10/178/16 8/21/16 13/20/16
f 7/22/16 1/175/16 13/20/16
f 15/19/17 14/18/17 16/24/17
f 19/179/18 72/180/18 18/27/18
f 18/27/18 6/181/18 5/25/18
f 5/25/18 73/182/18 17/26/18
f 17/26/18 28/183/18 19/179/18
f 19/179/18 18/27/18 17/26/18
f 72/184/19 19/28/19 21/30/19
f 8/8/4 10/31/4 9/9/4
f 18/185/5 23/33/5 6/6/5
f 73/186/20 5/35/20 25/37/20
f 72/184/21 21/30/21 18/39/21
f 73/187/22 25/40/22 17/42/22
f 17/188/15 26/43/15 28/45/15
f 28/45/17 27/44/17 19/47/17
f 20/189/27 27/59/27 30/61/27
f 46/78/28 27/62/28 29/64/28
f 74/190/29 3/65/29 36/67/29
f 53/191/30 33/68/30 38/70/30
f 52/123/31 39/71/31 41/73/31
f 74/190/32 42/74/32 3/65/32
f 29/64/33 44/76/33 46/78/33
f 40/81/34 61/192/34 48/193/34
f 48/193/34 45/194/34 44/79/34
f 44/79/34 54/195/34 47/80/34
f 47/80/34 41/196/34 40/81/34
f 40/81/34 48/193/34 44/79/34
f 46/121/35 45/82/35 32/84/35
f 42/197/36 74/198/36 36/87/36
f 36/87/36 38/199/36 37/85/36
f 37/85/36 75/200/36 49/86/36
f 49/86/36 76/201/36 42/197/36
f 42/197/36 36/87/36 49/86/36
f 41/202/30 47/89/30 52/91/30
f 36/203/31 35/92/31 38/94/31
f 29/50/45 25/49/38 44/96/38
f 51/117/44 47/98/40 25/49/40
f 76/204/33 49/99/33 34/60/33
f 76/205/35 34/100/35 42/102/35
f 70/206/42 55/105/42 57/107/42
f 71/207/43 58/108/43 60/110/43
f 32/56/32 48/111/32 12/54/32
f 75/208/40 37/113/40 21/51/40
f 75/208/38 21/51/38 49/114/38
f 39/103/29 12/54/29 40/115/29
f 15/209/47 16/118/47 34/100/47
f 32/84/48 31/119/48 46/121/48
f 9/210/49 22/122/49 52/123/49
f 4/211/50 24/124/50 51/90/50
f 53/191/51 24/125/51 33/68/51
f 9/212/52 53/93/52 50/127/52
f 52/213/53 24/128/53 63/130/53
f 9/134/54 52/131/54 64/133/54
f 53/214/55 9/134/55 65/135/55
f 24/128/56 53/136/56 62/129/56
f 15/146/57 34/138/57 67/140/57
f 66/215/58 34/141/58 68/143/58
f 68/143/59 27/142/59 69/145/59
f 46/216/60 15/146/60 69/147/60
f 62/217/61 70/148/61 63/150/61
f 63/218/62 57/151/62 64/153/62
f 64/153/63 56/152/63 65/155/63
f 62/217/64 65/156/64 70/148/64
f 67/166/65 66/158/65 71/160/65
f 58/219/66 66/161/66 59/163/66
f 68/162/67 69/164/67 59/163/67
f 69/220/68 67/166/68 60/167/68
