# Blender v2.76 (sub 0) OBJ File: 'base.blend'
# www.blender.org
mtllib AntennaBase.mtl
o Antenna_Base_Cube
v 0.500000 -0.000000 0.500000
v -0.500000 -0.000000 0.500000
v -0.500000 0.000000 -0.500000
v 0.222021 0.777506 -0.222021
v 0.222021 0.777506 0.222021
v 0.222021 0.750000 0.222021
v -0.222021 0.777506 0.222021
v -0.222021 0.750000 0.222021
v -0.222021 0.777506 -0.222021
v -0.222021 0.750000 -0.222021
v 0.500000 0.000000 -0.500000
v -0.500000 0.250000 -0.500000
v 0.500000 0.250000 -0.500000
v 0.500000 0.250000 0.500000
v 0.425524 0.609760 -0.425524
v 0.425524 0.609760 0.425525
v 0.304342 0.714395 -0.106436
v 0.304342 0.714395 0.106436
v 0.330372 0.690905 0.132466
v -0.500000 0.250000 0.500000
v -0.425524 0.609760 0.425524
v -0.425524 0.609760 -0.425524
v 0.222021 0.750000 -0.222021
v 0.252195 0.720122 -0.179416
v 0.378598 0.639639 -0.305819
v 0.252195 0.720122 0.179416
v 0.378598 0.639639 0.305819
v 0.297557 0.720122 -0.138102
v 0.394853 0.639639 -0.235399
v 0.297556 0.720122 0.138103
v 0.394853 0.639639 0.235399
v 0.330372 0.690905 -0.132466
v 0.383486 0.647489 0.198676
v 0.383486 0.647489 -0.198675
v 0.338926 0.683055 -0.127543
v 0.338926 0.683055 0.127543
v 0.000000 0.777506 -0.201002
v -0.201002 0.777506 0.000000
v 0.000000 0.777506 0.201002
v 0.201002 0.777506 0.000000
v 0.201002 1.000000 0.000000
v 0.142130 1.000000 -0.142130
v -0.142130 1.000000 -0.142130
v -0.142130 0.777506 0.142130
v -0.142130 1.000000 0.142130
v -0.201002 1.000000 0.000000
v 0.000000 1.000000 0.201002
v 0.142130 0.777506 0.142130
v 0.142130 1.000000 0.142130
v 0.142130 0.777506 -0.142130
v 0.000000 1.000000 -0.201002
v -0.142130 0.777506 -0.142130
vt 0.401423 0.011602
vt 0.401423 0.398321
vt 0.011692 0.398321
vt 0.988308 0.011602
vt 0.988308 0.181869
vt 0.977588 0.181869
vt 0.888810 0.988398
vt 0.888810 0.818131
vt 0.899530 0.818131
vt 0.319116 0.945564
vt 0.319116 0.773844
vt 0.329826 0.773844
vt 0.686843 0.395051
vt 0.686843 0.011602
vt 0.784275 0.011602
vt 0.506966 0.804973
vt 0.506966 0.421524
vt 0.604399 0.421524
vt 0.366756 0.772678
vt 0.366756 0.446344
vt 0.219013 0.468388
vt 0.136051 0.468388
vt 0.125906 0.458321
vt 0.767993 0.804973
vt 0.767993 0.421524
vt 0.865426 0.421524
vt 0.627783 0.772678
vt 0.627783 0.446344
vt 0.522154 0.011602
vt 0.522154 0.398321
vt 0.424807 0.398321
vt 0.663459 0.040403
vt 0.663459 0.369520
vt 0.988308 0.205072
vt 0.988308 0.375339
vt 0.977588 0.375339
vt 0.784275 0.395051
vt 0.924485 0.043897
vt 0.264061 0.500223
vt 0.247456 0.488554
vt 0.296719 0.439671
vt 0.091004 0.500223
vt 0.107608 0.488554
vt 0.011692 0.421524
vt 0.058345 0.439671
vt 0.343372 0.421524
vt 0.091004 0.671942
vt 0.011692 0.750641
vt 0.231355 0.471012
vt 0.269274 0.433385
vt 0.123709 0.471012
vt 0.085790 0.433385
vt 0.954204 0.011602
vt 0.954204 0.248134
vt 0.947869 0.220901
vt 0.229158 0.458321
vt 0.100102 0.437781
vt 0.254962 0.437781
vt 0.227240 0.455014
vt 0.127825 0.455014
vt 0.343372 0.750641
vt 0.264061 0.671942
vt 0.011692 0.945564
vt 0.011692 0.773844
vt 0.019884 0.859704
vt 0.184749 0.773844
vt 0.098220 0.781973
vt 0.184749 0.945564
vt 0.176557 0.859704
vt 0.098220 0.937436
vt 0.409152 0.971805
vt 0.366756 0.929737
vt 0.409152 0.828176
vt 0.209095 0.773844
vt 0.295732 0.773844
vt 0.294769 0.828809
vt 0.888810 0.737474
vt 0.975523 0.737474
vt 0.975523 0.794928
vt 0.888810 0.685929
vt 0.975523 0.685929
vt 0.975523 0.478978
vt 0.888810 0.478978
vt 0.888810 0.421524
vt 0.975523 0.530523
vt 0.888810 0.530523
vt 0.975523 0.611181
vt 0.888810 0.611181
vt 0.888810 0.553727
vt 0.975523 0.662726
vt 0.888810 0.662726
vt 0.208133 0.828809
vt 0.295732 0.883773
vt 0.011692 0.011602
vt 0.977588 0.011602
vt 0.899530 0.988398
vt 0.329826 0.945564
vt 0.604399 0.804973
vt 0.865426 0.804973
vt 0.424807 0.011602
vt 0.977588 0.205072
vt 0.924485 0.370231
vt 0.947869 0.038834
vt 0.042828 0.804740
vt 0.042828 0.914669
vt 0.153613 0.804740
vt 0.153613 0.914669
vt 0.469108 0.828176
vt 0.511504 0.870244
vt 0.511504 0.929737
vt 0.469108 0.971805
vt 0.366756 0.870244
vt 0.888810 0.794928
vt 0.975523 0.421524
vt 0.975523 0.553726
vt 0.209095 0.883773
vn 0.000000 -1.000000 -0.000000
vn 1.000000 0.000000 0.000000
vn 0.000000 -0.000000 1.000000
vn -1.000000 -0.000000 0.000000
vn 0.000000 0.000000 -1.000000
vn 0.979200 0.202700 0.000000
vn 0.670000 0.742400 0.000000
vn -0.000000 0.202700 0.979200
vn -0.979200 0.202700 0.000000
vn 0.000000 0.202700 -0.979200
vn 0.612600 0.782100 0.114600
vn 0.703600 0.710600 0.000000
vn 0.585600 0.810100 -0.027400
vn 0.537100 0.843500 0.000000
vn -0.000000 0.823400 0.567400
vn 0.340200 0.862900 -0.373600
vn 0.000000 1.000000 0.000000
vn 0.456900 0.883200 0.105500
vn 0.665700 0.746200 -0.007700
vn 0.645000 0.764200 0.000000
vn 0.660500 0.749700 -0.040400
vn 0.623800 0.781600 0.000000
vn 0.568300 0.822900 0.000000
vn 0.662600 0.747800 0.041200
vn 0.676100 0.736800 0.000000
vn 0.667000 0.743500 -0.047500
vn 0.000000 0.823400 -0.567400
vn -0.567400 0.823400 0.000000
vn -0.923900 -0.000000 0.382700
vn -0.382700 -0.000000 0.923900
vn 0.382700 -0.000000 0.923900
vn 0.923900 -0.000000 0.382700
vn 0.923900 0.000000 -0.382700
vn 0.382700 0.000000 -0.923900
vn -0.382700 0.000000 -0.923900
vn -0.923900 0.000000 -0.382700
vn 0.585600 0.810100 0.027400
vn 0.612600 0.782100 -0.114600
vn 0.456900 0.883200 -0.105500
vn 0.340200 0.862900 0.373600
vn 0.660600 0.749700 0.040400
vn 0.665700 0.746200 0.007700
vn 0.667000 0.743500 0.047500
vn 0.662600 0.747800 -0.041200
usemtl Material.001
s 1
f 1/1/1 2/2/1 3/3/1
f 4/4/2 5/5/2 6/6/2
f 5/7/3 7/8/3 8/9/3
f 7/10/4 9/11/4 10/12/4
f 11/13/5 3/14/5 12/15/5
f 13/16/2 14/17/2 1/18/2
f 15/19/6 16/20/6 14/17/6
f 17/21/7 18/22/7 19/23/7
f 14/24/3 20/25/3 2/26/3
f 16/27/8 21/28/8 20/25/8
f 20/29/4 12/30/4 3/31/4
f 20/29/9 21/32/9 22/33/9
f 23/34/5 10/35/5 9/36/5
f 13/37/10 12/15/10 22/38/10
f 23/39/11 24/40/11 25/41/11
f 6/42/12 26/43/12 24/40/12
f 6/42/13 16/44/13 27/45/13
f 16/44/14 15/46/14 25/41/14
f 6/42/15 8/47/15 21/48/15
f 24/40/16 28/49/16 29/50/16
f 24/40/17 26/43/17 30/51/17
f 26/43/18 27/45/18 31/52/18
f 27/53/1 25/54/1 29/55/1
f 28/49/19 17/21/19 32/56/19
f 28/49/20 30/51/20 18/22/20
f 30/51/21 31/52/21 19/23/21
f 33/57/22 34/58/22 35/59/22
f 29/50/23 34/58/23 33/57/23
f 32/56/24 35/59/24 34/58/24
f 19/23/25 36/60/25 35/59/25
f 19/23/26 31/52/26 33/57/26
f 15/46/27 22/61/27 10/62/27
f 8/47/28 10/62/28 22/61/28
f 4/63/17 9/64/17 37/65/17
f 9/64/17 7/66/17 38/67/17
f 7/66/17 5/68/17 39/69/17
f 5/68/17 4/63/17 40/70/17
f 41/71/17 42/72/17 43/73/17
f 44/74/29 45/75/29 46/76/29
f 39/77/30 47/78/30 45/79/30
f 48/80/31 49/81/31 47/78/31
f 40/82/32 41/83/32 49/84/32
f 50/85/33 42/86/33 41/83/33
f 37/87/34 51/88/34 42/89/34
f 52/90/35 43/91/35 51/88/35
f 38/92/36 46/76/36 43/93/36
f 11/94/1 1/1/1 3/3/1
f 23/95/2 4/4/2 6/6/2
f 6/96/3 5/7/3 8/9/3
f 8/97/4 7/10/4 10/12/4
f 13/37/5 11/13/5 12/15/5
f 11/98/2 13/16/2 1/18/2
f 13/16/6 15/19/6 14/17/6
f 32/56/7 17/21/7 19/23/7
f 1/99/3 14/24/3 2/26/3
f 14/24/8 16/27/8 20/25/8
f 2/100/4 20/29/4 3/31/4
f 12/30/9 20/29/9 22/33/9
f 4/101/5 23/34/5 9/36/5
f 15/102/10 13/37/10 22/38/10
f 15/46/37 23/39/37 25/41/37
f 23/39/12 6/42/12 24/40/12
f 26/43/38 6/42/38 27/45/38
f 27/45/14 16/44/14 25/41/14
f 16/44/15 6/42/15 21/48/15
f 25/41/39 24/40/39 29/50/39
f 28/49/17 24/40/17 30/51/17
f 30/51/40 26/43/40 31/52/40
f 31/103/1 27/53/1 29/55/1
f 29/50/41 28/49/41 32/56/41
f 17/21/20 28/49/20 18/22/20
f 18/22/42 30/51/42 19/23/42
f 36/60/22 33/57/22 35/59/22
f 31/52/23 29/50/23 33/57/23
f 29/50/43 32/56/43 34/58/43
f 32/56/25 19/23/25 35/59/25
f 36/60/44 19/23/44 33/57/44
f 23/39/27 15/46/27 10/62/27
f 21/48/28 8/47/28 22/61/28
f 9/64/17 52/104/17 37/65/17
f 37/65/17 50/105/17 4/63/17
f 7/66/17 44/106/17 38/67/17
f 38/67/17 52/104/17 9/64/17
f 5/68/17 48/107/17 39/69/17
f 39/69/17 44/106/17 7/66/17
f 4/63/17 50/105/17 40/70/17
f 40/70/17 48/107/17 5/68/17
f 43/73/17 46/108/17 45/109/17
f 45/109/17 47/110/17 43/73/17
f 49/111/17 41/71/17 43/73/17
f 42/72/17 51/112/17 43/73/17
f 43/73/17 47/110/17 49/111/17
f 38/92/29 44/74/29 46/76/29
f 44/113/30 39/77/30 45/79/30
f 39/77/31 48/80/31 47/78/31
f 48/114/32 40/82/32 49/84/32
f 40/82/33 50/85/33 41/83/33
f 50/115/34 37/87/34 42/89/34
f 37/87/35 52/90/35 51/88/35
f 52/116/36 38/92/36 43/93/36
