# Blender v2.76 (sub 0) OBJ File: 'arm.blend'
# www.blender.org
mtllib AntennaArm.mtl
o Atenna_Arm_Cylinder.004
v -0.141421 0.641421 0.500000
v 0.000000 0.700000 0.500000
v 0.000000 0.700000 0.166667
v 0.141421 0.358579 -0.166667
v 0.141421 0.358579 -0.500000
v 0.200000 0.500000 -0.500000
v 0.141421 0.641421 0.166667
v 0.141421 0.641421 0.500000
v 0.200000 0.500000 0.500000
v 0.141421 0.358578 0.500000
v 0.000000 0.300000 0.500000
v 0.000000 0.300000 0.166667
v 0.134603 0.921655 0.265498
v 0.134602 0.921655 0.401169
v 0.202977 0.893333 0.401169
v -0.134603 0.078344 0.401168
v -0.202977 0.106665 0.401168
v -0.202977 0.106666 0.265498
v -0.141421 0.358578 0.500000
v -0.200000 0.500000 0.500000
v -0.200000 0.500000 0.166667
v -0.141421 0.358579 -0.500000
v 0.141421 0.641422 -0.500000
v -0.141421 0.641422 -0.500000
v -0.141421 0.641422 -0.166667
v 0.000000 0.700000 -0.166667
v -0.139394 0.660420 0.141567
v -0.014868 0.712000 0.141567
v -0.014868 0.712000 -0.141567
v 0.141421 0.358579 0.166667
v 0.200000 0.500000 0.166667
v 0.160420 0.360606 0.141567
v 0.160420 0.360606 -0.141567
v 0.212000 0.485132 -0.141567
v 0.141421 0.641421 -0.166667
v 0.200000 0.500000 -0.166667
v 0.160420 0.639394 -0.141567
v 0.160420 0.639394 0.141567
v 0.212000 0.514868 0.141567
v 0.000000 0.300000 -0.166667
v 0.000000 0.300000 -0.500000
v 0.139394 0.339580 0.141567
v 0.014868 0.288000 0.141567
v 0.014868 0.288000 -0.141567
v 0.134603 0.921656 -0.265498
v 0.202977 0.893334 -0.265498
v 0.202977 0.893335 -0.401168
v 0.014868 0.712000 0.141567
v 0.139394 0.660420 0.141567
v 0.139394 0.660420 -0.141567
v -0.134603 0.078345 -0.265498
v -0.202977 0.106666 -0.265498
v -0.202977 0.106667 -0.401169
v -0.014868 0.288000 0.141567
v -0.139394 0.339580 0.141567
v -0.139394 0.339580 -0.141567
v -0.141421 0.358579 -0.166667
v -0.200000 0.500000 -0.166667
v -0.200000 0.500001 -0.500000
v -0.160420 0.360606 -0.141567
v -0.160420 0.360606 0.141567
v -0.212000 0.485132 0.141567
v -0.212000 0.514868 0.141567
v -0.160420 0.639394 0.141567
v -0.160420 0.639394 -0.141567
v -0.141421 0.641421 0.166667
v -0.139394 0.660420 -0.141567
v 0.212000 0.485132 0.141567
v 0.212000 0.514868 -0.141567
v 0.139394 0.339580 -0.141567
v 0.014868 0.712000 -0.141567
v -0.014868 0.288000 -0.141567
v -0.141421 0.358579 0.166667
v -0.212000 0.485132 -0.141567
v -0.212000 0.514868 -0.141567
v 0.036523 0.684871 0.401169
v 0.036523 0.684871 0.265498
v 0.104898 0.656550 0.401169
v 0.104898 0.656550 0.265498
v -0.036523 0.315128 0.401168
v -0.104898 0.343450 0.401168
v -0.104898 0.343450 0.265498
v -0.036523 0.315128 0.265498
v 0.036523 0.684872 -0.265498
v 0.036523 0.684872 -0.401168
v 0.104898 0.656550 -0.265498
v 0.104898 0.656550 -0.401168
v 0.000000 0.700000 -0.500000
v -0.036523 0.315129 -0.265498
v -0.104898 0.343450 -0.265498
v -0.104898 0.343450 -0.401169
v -0.036523 0.315129 -0.401169
v 0.202977 0.893333 0.265498
v -0.134603 0.078344 0.265498
v 0.134603 0.921656 -0.401168
v -0.134603 0.078345 -0.401169
vt 0.110056 0.313515
vt 0.110056 0.397190
vt 0.009087 0.397190
vt 0.485662 0.587291
vt 0.586631 0.587291
vt 0.586631 0.705626
vt 0.009087 0.515525
vt 0.110056 0.515525
vt 0.110056 0.599200
vt 0.348344 0.534078
vt 0.348344 0.652413
vt 0.247375 0.652413
vt 0.425788 0.670966
vt 0.466884 0.670966
vt 0.466884 0.728179
vt 0.605136 0.283173
vt 0.605136 0.225960
vt 0.646232 0.225960
vt 0.366518 0.515525
vt 0.366518 0.431850
vt 0.467487 0.431850
vt 0.288937 0.092952
vt 0.206971 0.294962
vt 0.009087 0.211286
vt 0.366518 0.313515
vt 0.504996 0.009277
vt 0.586962 0.211286
vt 0.307112 0.092952
vt 0.128231 0.313515
vt 0.229200 0.313515
vt 0.229200 0.397190
vt 0.199368 0.929749
vt 0.127195 0.929749
vt 0.127195 0.842197
vt 0.705775 0.431850
vt 0.604805 0.431850
vt 0.604805 0.313515
vt 0.812513 0.695904
vt 0.898276 0.695904
vt 0.898276 0.800102
vt 0.229200 0.515525
vt 0.229200 0.599200
vt 0.128231 0.599200
vt 0.884687 0.826416
vt 0.884687 0.913968
vt 0.812513 0.913968
vt 0.467487 0.534078
vt 0.467487 0.652413
vt 0.366518 0.652413
vt 0.812513 0.554600
vt 0.812513 0.450403
vt 0.898276 0.450403
vt 0.425788 0.803945
vt 0.425788 0.746732
vt 0.466884 0.746732
vt 0.812513 0.677351
vt 0.812513 0.573154
vt 0.898276 0.573154
vt 0.664406 0.283173
vt 0.664406 0.225960
vt 0.705502 0.225960
vt 0.485662 0.828376
vt 0.485662 0.724179
vt 0.571425 0.724179
vt 0.247375 0.515525
vt 0.247375 0.431850
vt 0.348344 0.431850
vt 0.009087 0.929749
vt 0.009087 0.842197
vt 0.081261 0.842197
vt 0.247375 0.313515
vt 0.348344 0.313515
vt 0.898607 0.009277
vt 0.898607 0.113474
vt 0.812844 0.113474
vt 0.668914 0.986844
vt 0.668914 0.883769
vt 0.682793 0.891531
vt 0.947619 0.936989
vt 0.947619 0.818655
vt 0.960324 0.825724
vt 0.113315 0.834436
vt 0.960034 0.705625
vt 0.947329 0.698557
vt 0.947330 0.594360
vt 0.931900 0.233720
vt 0.931900 0.352054
vt 0.919196 0.344986
vt 0.961540 0.009277
vt 0.961540 0.112351
vt 0.947660 0.104590
vt 0.916451 0.568738
vt 0.916451 0.450403
vt 0.929155 0.457472
vt 0.321837 0.887649
vt 0.321837 0.990723
vt 0.309132 0.982962
vt 0.898566 0.921730
vt 0.529245 0.965264
vt 0.516541 0.958196
vt 0.516541 0.853998
vt 0.733022 0.883769
vt 0.746901 0.891531
vt 0.746901 0.979082
vt 0.560124 0.965264
vt 0.547420 0.958196
vt 0.547419 0.853998
vt 0.636860 0.883769
vt 0.650739 0.891531
vt 0.650739 0.979082
vt 0.916741 0.818655
vt 0.929445 0.825724
vt 0.929445 0.929921
vt 0.963954 0.336794
vt 0.950074 0.329033
vt 0.950074 0.241481
vt 0.794338 0.922309
vt 0.781634 0.915240
vt 0.781634 0.811043
vt 0.379223 0.990723
vt 0.366518 0.982962
vt 0.366518 0.895410
vt 0.485662 0.846930
vt 0.498366 0.853998
vt 0.498366 0.958196
vt 0.990913 0.675105
vt 0.978208 0.667344
vt 0.978208 0.579792
vt 0.960034 0.450403
vt 0.960034 0.568738
vt 0.947329 0.561669
vt 0.714847 0.986844
vt 0.700968 0.979082
vt 0.700968 0.891531
vt 0.870142 0.352054
vt 0.857438 0.344986
vt 0.857438 0.240789
vt 0.978208 0.450403
vt 0.990913 0.458164
vt 0.990913 0.545716
vt 0.888317 0.352054
vt 0.888317 0.233720
vt 0.901021 0.240789
vt 0.618685 0.986844
vt 0.604805 0.979082
vt 0.604805 0.891531
vt 0.916451 0.587291
vt 0.929155 0.594360
vt 0.929155 0.698557
vt 0.095141 0.937510
vt 0.081261 0.929749
vt 0.916781 0.009277
vt 0.929486 0.016345
vt 0.929486 0.120543
vt 0.278253 0.887649
vt 0.290958 0.895410
vt 0.290958 0.982962
vt 0.438493 0.822498
vt 0.438493 0.940833
vt 0.425788 0.933764
vt 0.260079 0.990723
vt 0.247375 0.982962
vt 0.247375 0.895410
vt 0.794338 0.785421
vt 0.781634 0.778352
vt 0.781634 0.674155
vt 0.080120 0.427751
vt 0.039024 0.427751
vt 0.080120 0.484964
vt 0.039024 0.484964
vt 0.586631 0.568738
vt 0.485662 0.568738
vt 0.515599 0.538177
vt 0.485662 0.450403
vt 0.515599 0.480964
vt 0.586631 0.450403
vt 0.556694 0.480964
vt 0.556694 0.538177
vt 0.199263 0.427751
vt 0.158168 0.427751
vt 0.199263 0.484964
vt 0.128231 0.515525
vt 0.158168 0.484964
vt 0.128231 0.397190
vt 0.485662 0.313515
vt 0.586631 0.313515
vt 0.556694 0.344076
vt 0.586631 0.431850
vt 0.556694 0.401289
vt 0.485662 0.431850
vt 0.515599 0.401289
vt 0.515599 0.344076
vt 0.407614 0.869095
vt 0.366518 0.869095
vt 0.366518 0.670966
vt 0.157524 0.815883
vt 0.157524 0.617753
vt 0.213569 0.617753
vt 0.247375 0.869096
vt 0.247375 0.670966
vt 0.288470 0.670966
vt 0.009087 0.815883
vt 0.009087 0.617753
vt 0.065131 0.617753
vt 0.794338 0.450403
vt 0.794338 0.648533
vt 0.753243 0.648533
vt 0.661180 0.009277
vt 0.661180 0.207407
vt 0.605136 0.207407
vt 0.839263 0.431850
vt 0.798168 0.431850
vt 0.798168 0.233720
vt 0.660850 0.450403
vt 0.660850 0.648533
vt 0.604806 0.648533
vt 0.645901 0.865216
vt 0.604806 0.865216
vt 0.604805 0.667086
vt 0.735399 0.009277
vt 0.735399 0.207406
vt 0.679355 0.207406
vt 0.753573 0.207406
vt 0.753573 0.009277
vt 0.794669 0.009277
vt 0.735068 0.450403
vt 0.735068 0.648533
vt 0.679024 0.648533
vt 0.693973 0.865216
vt 0.693973 0.667086
vt 0.735068 0.667086
vt 0.083306 0.617753
vt 0.139350 0.617753
vt 0.139350 0.815883
vt 0.347740 0.869095
vt 0.306645 0.869095
vt 0.306645 0.670966
vt 0.779993 0.233720
vt 0.779993 0.431850
vt 0.723949 0.431850
vt 0.009087 0.313515
vt 0.485662 0.705626
vt 0.009087 0.599200
vt 0.247375 0.534078
vt 0.425788 0.728179
vt 0.646232 0.283173
vt 0.467487 0.515525
vt 0.009087 0.092952
vt 0.091053 0.009277
vt 0.206971 0.009277
vt 0.288937 0.211286
vt 0.091053 0.294962
vt 0.467487 0.313515
vt 0.389078 0.294962
vt 0.307112 0.211286
vt 0.389078 0.009277
vt 0.586962 0.092952
vt 0.504996 0.294962
vt 0.199368 0.842197
vt 0.705775 0.313515
vt 0.812513 0.800102
vt 0.812513 0.826417
vt 0.366518 0.534078
vt 0.898276 0.554600
vt 0.466884 0.803945
vt 0.898276 0.677351
vt 0.705502 0.283173
vt 0.571425 0.828376
vt 0.348344 0.515525
vt 0.812844 0.009277
vt 0.682793 0.979082
vt 0.960324 0.929921
vt 0.113315 0.937510
vt 0.960034 0.587291
vt 0.919196 0.240789
vt 0.947660 0.017038
vt 0.929155 0.561669
vt 0.309132 0.895410
vt 0.898566 0.818655
vt 0.529245 0.846930
vt 0.733022 0.986844
vt 0.560124 0.846930
vt 0.636859 0.986844
vt 0.916741 0.936990
vt 0.963954 0.233720
vt 0.794338 0.803974
vt 0.379223 0.887649
vt 0.485662 0.965264
vt 0.990913 0.572031
vt 0.947329 0.457472
vt 0.714847 0.883769
vt 0.870142 0.233720
vt 0.978208 0.553477
vt 0.901021 0.344986
vt 0.618685 0.883769
vt 0.916451 0.705626
vt 0.095141 0.834436
vt 0.916781 0.127611
vt 0.278253 0.990723
vt 0.425788 0.829567
vt 0.260079 0.887649
vt 0.794338 0.667086
vt 0.407614 0.670966
vt 0.213569 0.815883
vt 0.288470 0.869096
vt 0.065131 0.815883
vt 0.753243 0.450403
vt 0.605136 0.009277
vt 0.839263 0.233720
vt 0.604805 0.450403
vt 0.645901 0.667086
vt 0.679355 0.009277
vt 0.794669 0.207406
vt 0.679024 0.450403
vt 0.735068 0.865216
vt 0.083306 0.815883
vt 0.347740 0.670966
vt 0.723949 0.233720
vn -0.382700 0.923900 0.000000
vn 0.923900 -0.382700 -0.000000
vn 0.923900 0.382700 0.000000
vn 0.382700 -0.923900 -0.000000
vn 0.382700 0.923900 0.000000
vn -0.382700 -0.923900 -0.000000
vn -0.923900 -0.382700 -0.000000
vn -0.000000 -0.000000 1.000000
vn -0.923900 0.382700 0.000000
vn -0.000000 0.000000 -1.000000
vn -0.994400 0.106100 0.000000
vn -0.318200 0.768100 0.555700
vn 0.628100 0.778200 0.000000
vn -0.318200 0.768100 -0.555700
vn 0.768100 -0.318200 0.555700
vn 0.106100 -0.994400 -0.000000
vn 0.768100 -0.318200 -0.555700
vn 0.778200 0.628100 0.000000
vn 0.106100 0.994400 0.000000
vn 0.768100 0.318200 0.555700
vn 0.778200 -0.628100 0.000000
vn 0.768100 0.318200 -0.555700
vn 0.994400 -0.106100 -0.000000
vn 0.318200 -0.768100 0.555700
vn -0.628100 -0.778200 -0.000000
vn 0.318200 -0.768100 -0.555700
vn -0.628100 0.778200 0.000000
vn 0.318200 0.768100 0.555700
vn 0.994400 0.106100 0.000000
vn 0.318200 0.768100 -0.555700
vn 0.628100 -0.778200 -0.000000
vn -0.318200 -0.768100 0.555700
vn -0.994400 -0.106100 -0.000000
vn -0.318200 -0.768100 -0.555700
vn -0.106100 -0.994400 -0.000000
vn -0.768100 -0.318200 0.555700
vn -0.778200 0.628100 0.000000
vn -0.768100 -0.318200 -0.555700
vn -0.778200 -0.628100 0.000000
vn -0.768100 0.318200 0.555700
vn -0.106100 0.994400 0.000000
vn -0.768100 0.318200 -0.555700
usemtl None
s 1
f 1/1/1 2/2/1 3/3/1
f 4/4/2 5/5/2 6/6/2
f 7/7/3 8/8/3 9/9/3
f 10/10/4 11/11/4 12/12/4
f 13/13/5 14/14/5 15/15/5
f 16/16/6 17/17/6 18/18/6
f 19/19/7 20/20/7 21/21/7
f 19/22/8 10/23/8 8/24/8
f 21/21/9 20/20/9 1/25/9
f 5/26/10 22/27/10 23/28/10
f 24/29/1 25/30/1 26/31/1
f 27/32/1 28/33/1 29/34/1
f 10/35/2 30/36/2 31/37/2
f 32/38/2 33/39/2 34/40/2
f 35/41/3 36/42/3 6/43/3
f 37/44/3 38/45/3 39/46/3
f 4/47/4 40/48/4 41/49/4
f 42/50/4 43/51/4 44/52/4
f 45/53/5 46/54/5 47/55/5
f 48/56/5 49/57/5 50/58/5
f 51/59/6 52/60/6 53/61/6
f 54/62/6 55/63/6 56/64/6
f 57/65/7 58/66/7 59/67/7
f 60/68/7 61/69/7 62/70/7
f 58/66/9 25/71/9 24/72/9
f 63/73/9 64/74/9 65/75/9
f 25/76/11 66/77/11 27/78/11
f 66/79/12 3/80/12 28/81/12
f 26/82/13 29/34/13 28/33/13
f 25/83/14 67/84/14 29/85/14
f 31/86/15 30/87/15 32/88/15
f 30/89/16 4/90/16 33/91/16
f 4/92/17 36/93/17 34/94/17
f 36/95/18 31/96/18 68/97/18
f 7/98/19 38/45/19 37/44/19
f 31/99/20 39/100/20 38/101/20
f 36/102/21 69/103/21 39/104/21
f 35/105/22 37/106/22 69/107/22
f 30/108/23 42/109/23 70/110/23
f 12/111/24 43/112/24 42/113/24
f 40/114/25 44/115/25 43/116/25
f 4/117/26 70/118/26 44/119/26
f 3/120/27 48/121/27 71/122/27
f 7/123/28 49/124/28 48/125/28
f 35/126/29 50/127/29 49/128/29
f 35/129/30 26/130/30 71/131/30
f 12/132/31 54/133/31 72/134/31
f 73/135/32 55/136/32 54/137/32
f 57/138/33 56/139/33 55/140/33
f 57/141/34 40/142/34 72/143/34
f 73/144/35 61/145/35 60/146/35
f 21/147/36 62/148/36 61/149/36
f 58/150/37 74/151/37 62/70/37
f 57/152/38 60/153/38 74/154/38
f 21/155/39 63/156/39 75/157/39
f 21/158/40 66/159/40 64/160/40
f 25/161/41 65/162/41 64/163/41
f 58/164/42 75/165/42 65/166/42
f 2/2/5 76/167/5 77/168/5
f 8/8/5 78/169/5 76/167/5
f 8/8/5 7/7/5 79/170/5
f 3/3/5 77/168/5 79/170/5
f 12/171/6 11/172/6 80/173/6
f 11/172/6 19/174/6 81/175/6
f 73/176/6 82/177/6 81/175/6
f 73/176/6 12/171/6 83/178/6
f 26/31/5 84/179/5 85/180/5
f 35/41/5 86/181/5 84/179/5
f 23/182/5 87/183/5 86/181/5
f 88/184/5 85/180/5 87/183/5
f 41/185/6 40/186/6 89/187/6
f 40/186/6 57/188/6 90/189/6
f 22/190/6 91/191/6 90/189/6
f 41/185/6 92/192/6 91/191/6
f 77/193/9 76/194/9 14/195/9
f 78/196/8 15/197/8 14/198/8
f 79/199/2 93/200/2 15/201/2
f 77/202/10 13/203/10 93/204/10
f 80/205/2 16/206/2 94/207/2
f 81/208/8 17/209/8 16/210/8
f 81/211/9 82/212/9 18/213/9
f 83/214/10 94/215/10 18/216/10
f 85/217/9 84/218/9 45/219/9
f 86/220/8 46/221/8 45/222/8
f 87/223/2 47/224/2 46/225/2
f 85/226/10 95/227/10 47/228/10
f 89/229/2 51/230/2 96/231/2
f 89/232/8 90/233/8 52/234/8
f 90/235/9 91/236/9 53/237/9
f 92/238/10 96/239/10 53/240/10
f 66/241/1 1/1/1 3/3/1
f 36/242/2 4/4/2 6/6/2
f 31/243/3 7/7/3 9/9/3
f 30/244/4 10/10/4 12/12/4
f 93/245/5 13/13/5 15/15/5
f 94/246/6 16/16/6 18/18/6
f 73/247/7 19/19/7 21/21/7
f 8/24/8 2/248/8 1/249/8
f 1/249/8 20/250/8 19/22/8
f 19/22/8 11/251/8 10/23/8
f 10/23/8 9/252/8 8/24/8
f 8/24/8 1/249/8 19/22/8
f 66/253/9 21/21/9 1/25/9
f 24/254/10 88/255/10 23/28/10
f 23/28/10 6/256/10 5/26/10
f 5/26/10 41/257/10 22/27/10
f 22/27/10 59/258/10 24/254/10
f 24/254/10 23/28/10 22/27/10
f 88/184/1 24/29/1 26/31/1
f 67/259/1 27/32/1 29/34/1
f 9/260/2 10/35/2 31/37/2
f 68/261/2 32/38/2 34/40/2
f 23/182/3 35/41/3 6/43/3
f 69/262/3 37/44/3 39/46/3
f 5/263/4 4/47/4 41/49/4
f 70/264/4 42/50/4 44/52/4
f 95/265/5 45/53/5 47/55/5
f 71/266/5 48/56/5 50/58/5
f 96/267/6 51/59/6 53/61/6
f 72/268/6 54/62/6 56/64/6
f 22/269/7 57/65/7 59/67/7
f 74/151/7 60/68/7 62/70/7
f 59/67/9 58/66/9 24/72/9
f 75/270/9 63/73/9 65/75/9
f 67/271/11 25/76/11 27/78/11
f 27/272/12 66/79/12 28/81/12
f 3/273/13 26/82/13 28/33/13
f 26/274/14 25/83/14 29/85/14
f 68/275/15 31/86/15 32/88/15
f 32/276/16 30/89/16 33/91/16
f 33/277/17 4/92/17 34/94/17
f 34/278/18 36/95/18 68/97/18
f 35/279/19 7/98/19 37/44/19
f 7/280/20 31/99/20 38/101/20
f 31/281/21 36/102/21 39/104/21
f 36/282/22 35/105/22 69/107/22
f 4/283/23 30/108/23 70/110/23
f 30/284/24 12/111/24 42/113/24
f 12/285/25 40/114/25 43/116/25
f 40/286/26 4/117/26 44/119/26
f 26/287/27 3/120/27 71/122/27
f 3/288/28 7/123/28 48/125/28
f 7/289/29 35/126/29 49/128/29
f 50/290/30 35/129/30 71/131/30
f 40/291/31 12/132/31 72/134/31
f 12/292/32 73/135/32 54/137/32
f 73/293/33 57/138/33 55/140/33
f 56/294/34 57/141/34 72/143/34
f 57/295/35 73/144/35 60/146/35
f 73/296/36 21/147/36 61/149/36
f 21/297/37 58/150/37 62/70/37
f 58/298/38 57/152/38 74/154/38
f 58/299/39 21/155/39 75/157/39
f 63/300/40 21/158/40 64/160/40
f 66/301/41 25/161/41 64/163/41
f 25/302/42 58/164/42 65/166/42
f 3/3/5 2/2/5 77/168/5
f 2/2/5 8/8/5 76/167/5
f 78/169/5 8/8/5 79/170/5
f 7/7/5 3/3/5 79/170/5
f 83/178/6 12/171/6 80/173/6
f 80/173/6 11/172/6 81/175/6
f 19/174/6 73/176/6 81/175/6
f 82/177/6 73/176/6 83/178/6
f 88/184/5 26/31/5 85/180/5
f 26/31/5 35/41/5 84/179/5
f 35/41/5 23/182/5 86/181/5
f 23/182/5 88/184/5 87/183/5
f 92/192/6 41/185/6 89/187/6
f 89/187/6 40/186/6 90/189/6
f 57/188/6 22/190/6 90/189/6
f 22/190/6 41/185/6 91/191/6
f 13/303/9 77/193/9 14/195/9
f 76/304/8 78/196/8 14/198/8
f 78/305/2 79/199/2 15/201/2
f 79/306/10 77/202/10 93/204/10
f 83/307/2 80/205/2 94/207/2
f 80/308/8 81/208/8 16/210/8
f 17/309/9 81/211/9 18/213/9
f 82/310/10 83/214/10 18/216/10
f 95/311/9 85/217/9 45/219/9
f 84/312/8 86/220/8 45/222/8
f 86/313/2 87/223/2 46/225/2
f 87/314/10 85/226/10 47/228/10
f 92/315/2 89/229/2 96/231/2
f 51/316/8 89/232/8 52/234/8
f 52/317/9 90/235/9 53/237/9
f 91/318/10 92/238/10 53/240/10
