# Blender v2.76 (sub 0) OBJ File: '1x1missiletransporter.blend'
# www.blender.org
mtllib 1x1missiletransporter.mtl
o Cube
v 0.500000 -0.255734 -0.500000
v 0.500000 -0.255734 0.500000
v -0.500000 -0.255734 0.500000
v -0.500000 -0.255734 -0.500000
v 0.500000 -0.195355 -0.500000
v 0.500000 -0.195355 0.500000
v -0.500000 -0.195355 0.500000
v -0.500000 -0.195355 -0.500000
v 0.500000 -0.195355 0.000000
v 0.000000 -0.195355 -0.500000
v -0.000000 -0.195355 0.500000
v -0.500000 -0.195355 -0.000000
v 0.500000 -0.195355 0.445341
v -0.437500 -0.195355 -0.500000
v -0.437500 -0.195355 0.500000
v -0.500000 -0.195355 -0.445341
v 0.500000 -0.195355 -0.445340
v 0.437500 -0.195355 -0.500000
v 0.437500 -0.195355 0.500000
v -0.500000 -0.195355 0.445340
v -0.437500 -0.195355 0.445340
v 0.437500 -0.195355 0.445341
v 0.437500 -0.195355 -0.445340
v -0.437500 -0.195355 -0.445340
v 0.371637 0.554645 0.337369
v 0.371637 0.554645 0.371637
v -0.331488 0.554645 -0.371637
v -0.371637 0.554645 -0.371637
v -0.331488 0.554645 0.371637
v -0.371637 0.554645 0.371637
v -0.371637 0.554645 -0.337368
v 0.371637 0.554645 -0.337368
v 0.371637 0.554645 -0.371637
v 0.331488 0.554645 -0.371637
v 0.331488 0.554645 0.371637
v -0.371637 0.554645 0.337368
v -0.331488 0.554645 0.337368
v 0.331488 0.554645 0.337369
v 0.331488 0.554645 -0.337368
v -0.331488 0.554645 -0.337368
v 0.500000 -0.345355 -0.421990
v 0.500000 -0.345355 0.421990
v -0.500000 -0.345355 0.421990
v -0.500000 -0.345355 -0.421990
v 0.500000 -0.295355 0.140663
v 0.500000 -0.295355 -0.140663
v -0.500000 -0.295355 -0.140664
v -0.500000 -0.295355 0.140663
v -0.500000 -0.345355 0.281326
v 0.500000 -0.345355 0.281327
v 0.500000 -0.345355 -0.281326
v -0.500000 -0.345355 -0.281327
vn -0.000000 -0.656600 0.754300
vn 0.000000 1.000000 0.000000
vn 1.000000 0.000000 0.000000
vn -0.000000 0.000000 1.000000
vn -1.000000 -0.000000 -0.000000
vn 0.000000 0.000000 -1.000000
vn 0.985700 0.168700 0.000000
vn 0.000000 0.168700 -0.985700
vn -0.000000 0.168700 0.985700
vn -0.985700 0.168700 -0.000000
vn 0.990200 -0.140000 0.000000
vn 0.000000 -0.142500 -0.989800
vn -0.990200 -0.140000 -0.000000
vn -0.000000 -0.142500 0.989800
vn 0.000000 -0.656600 -0.754300
vn 0.000000 -1.000000 -0.000000
vn -0.000000 -0.942200 0.334900
vn 0.000000 -0.942200 -0.334900
usemtl Material
s off
f 2//1 3//1 43//1
f 36//2 30//2 29//2
f 13//3 50//3 45//3
f 15//4 7//4 3//4
f 12//5 47//5 48//5
f 4//6 14//6 10//6
f 12//2 20//2 21//2
f 10//2 24//2 23//2
f 38//2 35//2 26//2
f 34//2 39//2 32//2
f 13//2 9//2 22//2
f 27//2 28//2 31//2
f 24//2 21//2 22//2
f 21//2 11//2 22//2
f 26//7 6//7 13//7
f 28//8 27//8 14//8
f 30//9 7//9 15//9
f 28//10 8//10 16//10
f 33//7 32//7 17//7
f 33//8 5//8 18//8
f 26//9 35//9 19//9
f 30//10 36//10 20//10
f 29//11 15//11 21//11
f 36//12 37//12 21//12
f 35//13 38//13 22//13
f 25//12 13//12 22//12
f 34//13 18//13 23//13
f 32//14 39//14 23//14
f 27//11 40//11 24//11
f 31//14 16//14 24//14
f 41//15 44//15 4//15
f 42//16 43//16 49//16
f 46//17 47//17 52//17
f 46//16 45//16 48//16
f 50//18 49//18 48//18
f 41//16 51//16 52//16
f 42//1 2//1 43//1
f 37//2 36//2 29//2
f 41//3 1//3 17//3
f 5//3 17//3 1//3
f 13//3 6//3 2//3
f 17//3 9//3 46//3
f 51//3 41//3 17//3
f 42//3 50//3 13//3
f 46//3 51//3 17//3
f 2//3 42//3 13//3
f 45//3 46//3 9//3
f 9//3 13//3 45//3
f 3//4 2//4 11//4
f 6//4 19//4 2//4
f 11//4 15//4 3//4
f 2//4 19//4 11//4
f 43//5 3//5 20//5
f 7//5 20//5 3//5
f 12//5 16//5 47//5
f 8//5 4//5 16//5
f 44//5 16//5 4//5
f 48//5 49//5 20//5
f 44//5 52//5 16//5
f 49//5 43//5 20//5
f 52//5 47//5 16//5
f 20//5 12//5 48//5
f 18//6 5//6 1//6
f 1//6 4//6 10//6
f 8//6 14//6 4//6
f 10//6 18//6 1//6
f 21//2 24//2 12//2
f 16//2 12//2 24//2
f 23//2 18//2 10//2
f 10//2 14//2 24//2
f 25//2 38//2 26//2
f 33//2 34//2 32//2
f 23//2 22//2 9//2
f 9//2 17//2 23//2
f 40//2 27//2 31//2
f 23//2 24//2 22//2
f 19//2 22//2 11//2
f 21//2 15//2 11//2
f 25//7 26//7 13//7
f 8//8 28//8 14//8
f 29//9 30//9 15//9
f 31//10 28//10 16//10
f 5//7 33//7 17//7
f 34//8 33//8 18//8
f 6//9 26//9 19//9
f 7//10 30//10 20//10
f 37//11 29//11 21//11
f 20//12 36//12 21//12
f 19//13 35//13 22//13
f 38//12 25//12 22//12
f 39//13 34//13 23//13
f 17//14 32//14 23//14
f 14//11 27//11 24//11
f 40//14 31//14 24//14
f 1//15 41//15 4//15
f 50//16 42//16 49//16
f 51//17 46//17 52//17
f 47//16 46//16 48//16
f 45//18 50//18 48//18
f 44//16 41//16 52//16
