# Blender v2.76 (sub 0) OBJ File: 'small.mag.nobottom.blend'
# www.blender.org
mtllib small.mag.nobottom.mtl
o Group_001
v -0.312500 0.187500 0.129400
v -0.181200 0.187500 0.437500
v -0.437500 0.187500 0.181200
v -0.129400 0.187500 0.312500
v -0.437500 0.187500 -0.181200
v -0.312500 0.187500 -0.129400
v -0.181200 0.187500 -0.437500
v -0.129400 0.187500 -0.312500
v 0.181200 0.187500 -0.437500
v 0.129400 0.187500 -0.312500
v 0.312500 0.187500 -0.129400
v 0.437500 0.187500 -0.181200
v 0.312500 0.187500 0.129400
v 0.181200 0.187500 0.437500
v 0.129400 0.187500 0.312500
v 0.437500 0.187500 0.181200
v -0.437500 0.312500 0.181200
v -0.312500 0.312500 0.129400
v -0.437500 0.312500 -0.181200
v -0.181200 0.312500 0.437500
v -0.129400 0.312500 0.312500
v 0.181200 0.312500 0.437500
v 0.312500 0.312500 0.129400
v 0.129400 0.312500 0.312500
v 0.437500 0.312500 0.181200
v 0.312500 0.312500 -0.129400
v -0.312500 0.312500 -0.129400
v -0.181200 0.312500 -0.437500
v -0.129400 0.312500 -0.312500
v 0.181200 0.312500 -0.437500
v 0.129400 0.312500 -0.312500
v 0.437500 0.312500 -0.181200
v -0.312500 2.875000 0.129400
v -0.181200 2.875000 0.437500
v -0.437500 2.875000 0.181200
v -0.129400 2.875000 0.312500
v -0.437500 2.875000 -0.181200
v -0.312500 2.875000 -0.129400
v -0.181200 2.875000 -0.437500
v -0.129400 2.875000 -0.312500
v 0.181200 2.875000 -0.437500
v 0.129400 2.875000 -0.312500
v 0.312500 2.875000 -0.129400
v 0.437500 2.875000 -0.181200
v 0.312500 2.875000 0.129400
v 0.181200 2.875000 0.437500
v 0.129400 2.875000 0.312500
v 0.437500 2.875000 0.181200
v -0.437500 3.000000 0.181200
v -0.312500 3.000000 0.129400
v -0.437500 3.000000 -0.181200
v -0.181200 3.000000 0.437500
v -0.129400 3.000000 0.312500
v 0.181200 3.000000 0.437500
v 0.312500 3.000000 0.129400
v 0.129400 3.000000 0.312500
v 0.437500 3.000000 0.181200
v 0.312500 3.000000 -0.129400
v -0.312500 3.000000 -0.129400
v -0.181200 3.000000 -0.437500
v -0.129400 3.000000 -0.312500
v 0.181200 3.000000 -0.437500
v 0.129400 3.000000 -0.312500
v 0.437500 3.000000 -0.181200
v -0.363400 2.875000 0.184300
v -0.387300 0.312500 0.126600
v -0.363400 0.312500 0.184300
v -0.387300 2.875000 0.126600
v -0.305600 0.312500 0.160400
v -0.305600 2.875000 0.160400
v -0.329500 2.875000 0.102700
v -0.329500 0.312500 0.102700
v -0.387300 2.875000 -0.126600
v -0.363400 0.312500 -0.184300
v -0.387300 0.312500 -0.126600
v -0.363400 2.875000 -0.184300
v -0.329500 0.312500 -0.102700
v -0.329500 2.875000 -0.102700
v -0.305600 2.875000 -0.160400
v -0.305600 0.312500 -0.160400
v 0.363400 2.875000 -0.184300
v 0.387300 0.312500 -0.126600
v 0.363400 0.312500 -0.184300
v 0.387300 2.875000 -0.126600
v 0.305600 0.312500 -0.160400
v 0.305600 2.875000 -0.160400
v 0.329500 2.875000 -0.102700
v 0.329500 0.312500 -0.102700
v 0.387300 2.875000 0.126600
v 0.363400 0.312500 0.184300
v 0.387300 0.312500 0.126600
v 0.363400 2.875000 0.184300
v 0.329500 0.312500 0.102700
v 0.329500 2.875000 0.102700
v 0.305600 2.875000 0.160400
v 0.305600 0.312500 0.160400
v -0.184300 2.875000 -0.363400
v -0.126600 2.875000 -0.387300
v -0.160400 2.875000 -0.305600
v -0.102700 2.875000 -0.329500
v 0.126600 2.875000 -0.387300
v 0.184300 2.875000 -0.363400
v 0.102700 2.875000 -0.329500
v 0.160400 2.875000 -0.305600
vt 0.590100 0.201500
vt 0.643900 0.299900
vt 0.539000 0.218000
vt 0.665100 0.260000
vt 0.539000 0.102200
vt 0.590100 0.118800
vt 0.643900 0.020400
vt 0.665100 0.060300
vt 0.771000 0.060300
vt 0.792200 0.020400
vt 0.845900 0.118800
vt 0.897100 0.102200
vt 0.845900 0.201500
vt 0.792200 0.299900
vt 0.771000 0.260000
vt 0.897100 0.218000
vt 0.154400 0.102300
vt 0.205500 0.118900
vt 0.154400 0.218200
vt 0.259200 0.020400
vt 0.280400 0.060400
vt 0.407400 0.020400
vt 0.461100 0.118900
vt 0.386200 0.060400
vt 0.512200 0.102300
vt 0.461100 0.201600
vt 0.205500 0.201600
vt 0.259200 0.300100
vt 0.280400 0.260100
vt 0.923400 0.637100
vt 0.407400 0.300100
vt 0.386200 0.260100
vt 0.512200 0.218200
vt 0.973900 0.294300
vt 0.923100 0.180100
vt 0.973900 0.180100
vt 0.923200 0.294400
vt 0.923600 0.979900
vt 0.974200 0.865600
vt 0.974300 0.979900
vt 0.923500 0.865700
vt 0.923400 0.751400
vt 0.974200 0.751400
vt 0.974100 0.637100
vt 0.923300 0.522900
vt 0.974000 0.408600
vt 0.974100 0.522800
vt 0.923300 0.408600
vt 0.846700 0.808500
vt 0.897200 0.894100
vt 0.846700 0.894200
vt 0.897100 0.808500
vt 0.897100 0.722800
vt 0.846600 0.722800
vt 0.897000 0.637200
vt 0.846600 0.551500
vt 0.897000 0.551500
vt 0.846600 0.637200
vt 0.846500 0.465900
vt 0.897000 0.465800
vt 0.896900 0.380200
vt 0.846500 0.380200
vt 0.897200 0.979800
vt 0.846800 0.979800
vt 0.923100 0.100000
vt 0.974400 0.060000
vt 0.974400 0.100000
vt 0.923100 0.060000
vt 0.974400 0.120000
vt 0.923100 0.160000
vt 0.923100 0.120000
vt 0.974400 0.160000
vt 0.076900 0.980000
vt 0.051300 0.160000
vt 0.076900 0.160000
vt 0.051300 0.980000
vt 0.102600 0.160000
vt 0.102600 0.980000
vt 0.025600 0.980000
vt 0.025600 0.160000
vt 0.128200 0.980000
vt 0.128200 0.160000
vn 0.000000 -1.000000 -0.000000
vn 0.000000 1.000000 0.000000
vn 0.923800 0.000000 -0.382800
vn 0.707100 -0.000000 0.707100
vn -0.707100 0.000000 0.707100
vn -1.000000 0.000000 0.000000
vn -0.707100 0.000000 -0.707100
vn 0.707100 0.000000 -0.707100
vn 1.000000 0.000000 0.000000
vn -0.923800 -0.000000 0.382800
vn 0.923800 -0.000000 0.382800
vn -0.923900 -0.000000 0.382700
vn 0.382100 -0.000000 0.924100
vn -0.382100 0.000000 -0.924100
vn 0.923900 0.000000 -0.382700
vn -0.923900 0.000000 -0.382700
vn -0.382100 -0.000000 0.924100
vn 0.382100 0.000000 -0.924100
vn 0.923900 -0.000000 0.382700
vn -0.923800 0.000000 -0.382800
usemtl Material__25
s off
f 1/1/1 2/2/1 3/3/1
f 2/2/1 1/1/1 4/4/1
f 5/5/1 6/6/1 3/3/1
f 6/6/1 5/5/1 7/7/1
f 3/3/1 6/6/1 1/1/1
f 6/6/1 7/7/1 8/8/1
f 10/9/1 9/10/1 11/11/1
f 11/11/1 9/10/1 12/12/1
f 11/11/1 12/12/1 13/13/1
f 13/13/1 14/14/1 15/15/1
f 14/14/1 13/13/1 16/16/1
f 16/16/1 13/13/1 12/12/1
f 17/17/2 18/18/2 19/19/2
f 18/18/2 17/17/2 20/20/2
f 18/18/2 20/20/2 21/21/2
f 22/22/2 23/23/2 24/24/2
f 23/23/2 22/22/2 25/25/2
f 23/23/2 25/25/2 26/26/2
f 19/19/2 27/27/2 28/28/2
f 27/27/2 19/19/2 18/18/2
f 28/28/2 27/27/2 29/29/2
f 8/7/3 7/30/3 28/29/3
f 30/31/2 31/32/2 26/26/2
f 30/31/2 26/26/2 32/33/2
f 32/33/2 26/26/2 25/25/2
f 16/34/4 22/35/4 14/36/4
f 22/35/4 16/34/4 25/37/4
f 20/38/5 3/39/5 2/40/5
f 3/39/5 20/38/5 17/41/5
f 19/42/6 3/39/6 17/41/6
f 3/39/6 19/42/6 5/43/6
f 28/30/7 5/43/7 19/42/7
f 5/43/7 28/30/7 7/44/7
f 30/45/8 12/46/8 9/47/8
f 12/46/8 30/45/8 32/48/8
f 12/46/9 25/37/9 16/34/9
f 25/37/9 12/46/9 32/48/9
f 26/49/6 13/50/6 23/51/6
f 13/50/6 26/49/6 11/52/6
f 26/49/5 10/53/5 11/52/5
f 10/53/5 26/49/5 31/54/5
f 8/55/4 27/56/4 6/57/4
f 27/56/4 8/55/4 29/58/4
f 6/57/9 18/59/9 1/60/9
f 18/59/9 6/57/9 27/56/9
f 18/59/8 4/61/8 1/60/8
f 4/61/8 18/59/8 21/62/8
f 23/51/7 15/63/7 24/64/7
f 15/63/7 23/51/7 13/50/7
f 24/65/10 14/66/10 22/67/10
f 14/66/10 24/65/10 15/68/10
f 4/69/11 20/70/11 2/71/11
f 20/70/11 4/69/11 21/72/11
f 33/1/1 34/2/1 35/3/1
f 34/2/1 33/1/1 36/4/1
f 37/5/1 38/6/1 35/3/1
f 38/6/1 37/5/1 39/7/1
f 35/3/1 38/6/1 33/1/1
f 38/6/1 39/7/1 40/8/1
f 42/9/1 41/10/1 43/11/1
f 43/11/1 41/10/1 44/12/1
f 43/11/1 44/12/1 45/13/1
f 45/13/1 46/14/1 47/15/1
f 46/14/1 45/13/1 48/16/1
f 48/16/1 45/13/1 44/12/1
f 49/17/2 50/18/2 51/19/2
f 50/18/2 49/17/2 52/20/2
f 50/18/2 52/20/2 53/21/2
f 54/22/2 55/23/2 56/24/2
f 55/23/2 54/22/2 57/25/2
f 55/23/2 57/25/2 58/26/2
f 51/19/2 59/27/2 60/28/2
f 59/27/2 51/19/2 50/18/2
f 60/28/2 59/27/2 61/29/2
f 62/31/2 63/32/2 58/26/2
f 62/31/2 58/26/2 64/33/2
f 64/33/2 58/26/2 57/25/2
f 48/34/4 54/35/4 46/36/4
f 54/35/4 48/34/4 57/37/4
f 52/38/5 35/39/5 34/40/5
f 35/39/5 52/38/5 49/41/5
f 51/42/6 35/39/6 49/41/6
f 35/39/6 51/42/6 37/43/6
f 60/30/7 37/43/7 51/42/7
f 37/43/7 60/30/7 39/44/7
f 62/45/8 44/46/8 41/47/8
f 44/46/8 62/45/8 64/48/8
f 44/46/9 57/37/9 48/34/9
f 57/37/9 44/46/9 64/48/9
f 58/49/6 45/50/6 55/51/6
f 45/50/6 58/49/6 43/52/6
f 58/49/5 42/53/5 43/52/5
f 42/53/5 58/49/5 63/54/5
f 40/55/4 59/56/4 38/57/4
f 59/56/4 40/55/4 61/58/4
f 38/57/9 50/59/9 33/60/9
f 50/59/9 38/57/9 59/56/9
f 50/59/8 36/61/8 33/60/8
f 36/61/8 50/59/8 53/62/8
f 55/51/7 47/63/7 56/64/7
f 47/63/7 55/51/7 45/50/7
f 56/65/10 46/66/10 54/67/10
f 46/66/10 56/65/10 47/68/10
f 36/69/11 52/70/11 34/71/11
f 52/70/11 36/69/11 53/72/11
f 65/73/12 66/74/12 67/75/12
f 66/74/12 65/73/12 68/76/12
f 69/77/13 65/73/13 67/75/13
f 65/73/13 69/77/13 70/78/13
f 71/79/14 66/74/14 68/76/14
f 66/74/14 71/79/14 72/80/14
f 71/81/15 69/77/15 72/82/15
f 69/77/15 71/81/15 70/78/15
f 73/73/16 74/74/16 75/75/16
f 74/74/16 73/73/16 76/76/16
f 77/77/17 73/73/17 75/75/17
f 73/73/17 77/77/17 78/78/17
f 79/79/18 74/74/18 76/76/18
f 74/74/18 79/79/18 80/80/18
f 79/81/19 77/77/19 80/82/19
f 77/77/19 79/81/19 78/78/19
f 81/73/15 82/74/15 83/75/15
f 82/74/15 81/73/15 84/76/15
f 85/77/14 81/73/14 83/75/14
f 81/73/14 85/77/14 86/78/14
f 87/79/13 82/74/13 84/76/13
f 82/74/13 87/79/13 88/80/13
f 87/81/12 85/77/12 88/82/12
f 85/77/12 87/81/12 86/78/12
f 89/73/19 90/74/19 91/75/19
f 90/74/19 89/73/19 92/76/19
f 93/77/18 89/73/18 91/75/18
f 89/73/18 93/77/18 94/78/18
f 95/79/17 90/74/17 92/76/17
f 90/74/17 95/79/17 96/80/17
f 95/81/16 93/77/16 96/82/16
f 93/77/16 95/81/16 94/78/16
f 30/31/20 9/47/20 10/9/20
f 39/7/3 60/30/3 61/29/3
f 63/31/20 62/47/20 41/9/20
f 29/55/3 8/7/3 28/29/3
f 31/54/20 30/31/20 10/9/20
f 40/55/3 39/7/3 61/29/3
f 42/54/20 63/31/20 41/9/20
