# Blender v2.76 (sub 0) OBJ File: 'smallSilo-Fixed.blend'
# www.blender.org
mtllib small-missile-silo.mtl
o Group_001
v 0.500000 -0.093750 -0.500000
v 0.500000 0.093750 0.500000
v 0.500000 -0.093750 0.500000
v 0.500000 0.093750 -0.500000
v -0.500000 -0.093750 0.500000
v -0.500000 0.093750 0.500000
v -0.500000 0.093750 -0.500000
v -0.500000 -0.093750 -0.500000
vt 0.769200 0.640000
vt 0.692300 0.320000
vt 0.769200 0.320000
vt 0.692300 0.640000
vt 0.589700 0.960000
vt 0.666700 0.640000
vt 0.666700 0.960000
vt 0.589700 0.640000
vt 0.564100 0.660000
vt 0.153800 0.980000
vt 0.153800 0.660000
vt 0.564100 0.980000
vt 0.692300 0.960000
vt 0.769200 0.960000
vt 0.564100 0.320000
vt 0.153800 0.640000
vt 0.153800 0.320000
vt 0.564100 0.640000
vt 0.589700 0.320000
vt 0.666700 0.320000
vn 1.000000 -0.000000 0.000000
vn 0.000000 -0.000000 1.000000
vn 0.000000 1.000000 0.000000
vn 0.000000 0.000000 -1.000000
vn 0.000000 -1.000000 -0.000000
vn -1.000000 0.000000 0.000000
usemtl Material__25
s 1
f 1/1/1 2/2/1 3/3/1
f 2/2/1 1/1/1 4/4/1
f 2/5/2 5/6/2 3/7/2
f 5/6/2 2/5/2 6/8/2
f 2/9/3 7/10/3 6/11/3
f 7/10/3 2/9/3 4/12/3
f 7/13/4 1/1/4 8/14/4
f 1/1/4 7/13/4 4/4/4
f 1/15/5 5/16/5 8/17/5
f 5/16/5 1/15/5 3/18/5
f 7/19/6 5/6/6 6/8/6
f 5/6/6 7/19/6 8/20/6
o Component_2_006
v 0.387300 2.781250 0.126600
v 0.363400 0.218750 0.184300
v 0.387300 0.218750 0.126600
v 0.363400 2.781250 0.184300
v 0.329500 0.218750 0.102700
v 0.329500 2.781250 0.102700
v 0.305600 2.781250 0.160400
v 0.305600 0.218750 0.160400
vt 0.076900 0.980000
vt 0.051300 0.160000
vt 0.076900 0.160000
vt 0.051300 0.980000
vt 0.102600 0.160000
vt 0.102600 0.980000
vt 0.025600 0.980000
vt 0.025600 0.160000
vt 0.128200 0.980000
vt 0.128200 0.160000
vn 0.923900 -0.000000 0.382700
vn 0.382700 0.000000 -0.923900
vn 0.382600 0.000000 -0.923900
vn -0.382600 -0.000000 0.923900
vn -0.923900 0.000000 -0.382700
usemtl Material__25
s 1
f 9/21/7 10/22/7 11/23/7
f 10/22/7 9/21/7 12/24/7
f 13/25/8 9/21/8 11/23/8
f 9/21/9 13/25/9 14/26/9
f 15/27/10 10/22/10 12/24/10
f 10/22/10 15/27/10 16/28/10
f 15/29/11 13/25/11 16/30/11
f 13/25/11 15/29/11 14/26/11
o Component_2_005
v 0.363400 2.781250 -0.184300
v 0.387300 0.218750 -0.126600
v 0.363400 0.218750 -0.184300
v 0.387300 2.781250 -0.126600
v 0.305600 0.218750 -0.160400
v 0.305600 2.781250 -0.160400
v 0.329500 2.781250 -0.102700
v 0.329500 0.218750 -0.102700
vt 0.076900 0.980000
vt 0.051300 0.160000
vt 0.076900 0.160000
vt 0.051300 0.980000
vt 0.102600 0.160000
vt 0.102600 0.980000
vt 0.025600 0.980000
vt 0.025600 0.160000
vt 0.128200 0.980000
vt 0.128200 0.160000
vn 0.923900 0.000000 -0.382700
vn -0.382700 0.000000 -0.923900
vn -0.382600 0.000000 -0.923900
vn 0.382600 -0.000000 0.923900
vn 0.382700 -0.000000 0.923900
vn -0.923900 -0.000000 0.382700
usemtl Material__25
s 1
f 17/31/12 18/32/12 19/33/12
f 18/32/12 17/31/12 20/34/12
f 21/35/13 17/31/13 19/33/13
f 17/31/14 21/35/14 22/36/14
f 23/37/15 18/32/15 20/34/15
f 18/32/16 23/37/16 24/38/16
f 23/39/17 21/35/17 24/40/17
f 21/35/17 23/39/17 22/36/17
o Component_2_004
v -0.184300 2.781250 -0.363400
v -0.126600 0.218750 -0.387300
v -0.184300 0.218750 -0.363400
v -0.126600 2.781250 -0.387300
v -0.160400 0.218750 -0.305600
v -0.160400 2.781250 -0.305600
v -0.102700 2.781250 -0.329500
v -0.102700 0.218750 -0.329500
vt 0.076900 0.980000
vt 0.051300 0.160000
vt 0.076900 0.160000
vt 0.051300 0.980000
vt 0.102600 0.160000
vt 0.102600 0.980000
vt 0.025600 0.980000
vt 0.025600 0.160000
vt 0.128200 0.980000
vt 0.128200 0.160000
vn -0.382700 0.000000 -0.923900
vn -0.923800 -0.000000 0.382900
vn -0.923900 -0.000000 0.382700
vn 0.923900 0.000000 -0.382700
vn 0.382700 -0.000000 0.923900
usemtl Material__25
s 1
f 25/41/18 26/42/18 27/43/18
f 26/42/18 25/41/18 28/44/18
f 29/45/19 25/41/19 27/43/19
f 25/41/20 29/45/20 30/46/20
f 31/47/21 26/42/21 28/44/21
f 26/42/21 31/47/21 32/48/21
f 31/49/22 29/45/22 32/50/22
f 29/45/22 31/49/22 30/46/22
o Component_2_003
v 0.126600 2.781250 -0.387300
v 0.184300 0.218750 -0.363400
v 0.126600 0.218750 -0.387300
v 0.184300 2.781250 -0.363400
v 0.102700 0.218750 -0.329500
v 0.102700 2.781250 -0.329500
v 0.160400 2.781250 -0.305600
v 0.160400 0.218750 -0.305600
vt 0.076900 0.980000
vt 0.051300 0.160000
vt 0.076900 0.160000
vt 0.051300 0.980000
vt 0.102600 0.160000
vt 0.102600 0.980000
vt 0.025600 0.980000
vt 0.025600 0.160000
vt 0.128200 0.980000
vt 0.128200 0.160000
vn 0.382700 0.000000 -0.923900
vn -0.923900 0.000000 -0.382600
vn 0.923900 -0.000000 0.382600
vn -0.382700 -0.000000 0.923900
usemtl Material__25
s 1
f 33/51/23 34/52/23 35/53/23
f 34/52/23 33/51/23 36/54/23
f 37/55/24 33/51/24 35/53/24
f 33/51/24 37/55/24 38/56/24
f 39/57/25 34/52/25 36/54/25
f 34/52/25 39/57/25 40/58/25
f 39/59/26 37/55/26 40/60/26
f 37/55/26 39/59/26 38/56/26
o Component_2_002
v -0.387300 2.781250 -0.126600
v -0.363400 0.218750 -0.184300
v -0.387300 0.218750 -0.126600
v -0.363400 2.781250 -0.184300
v -0.329500 0.218750 -0.102700
v -0.329500 2.781250 -0.102700
v -0.305600 2.781250 -0.160400
v -0.305600 0.218750 -0.160400
vt 0.076900 0.980000
vt 0.051300 0.160000
vt 0.076900 0.160000
vt 0.051300 0.980000
vt 0.102600 0.160000
vt 0.102600 0.980000
vt 0.025600 0.980000
vt 0.025600 0.160000
vt 0.128200 0.980000
vt 0.128200 0.160000
vn -0.923900 0.000000 -0.382700
vn -0.382600 -0.000000 0.923900
vn -0.382700 -0.000000 0.923900
vn 0.382700 0.000000 -0.923900
vn 0.382600 0.000000 -0.923900
vn 0.923900 -0.000000 0.382700
usemtl Material__25
s 1
f 41/61/27 42/62/27 43/63/27
f 42/62/27 41/61/27 44/64/27
f 45/65/28 41/61/28 43/63/28
f 41/61/29 45/65/29 46/66/29
f 47/67/30 42/62/30 44/64/30
f 42/62/31 47/67/31 48/68/31
f 47/69/32 45/65/32 48/70/32
f 45/65/32 47/69/32 46/66/32
o Component_2_001
v -0.363400 2.781250 0.184300
v -0.387300 0.218750 0.126600
v -0.363400 0.218750 0.184300
v -0.387300 2.781250 0.126600
v -0.305600 0.218750 0.160400
v -0.305600 2.781250 0.160400
v -0.329500 2.781250 0.102700
v -0.329500 0.218750 0.102700
vt 0.076900 0.980000
vt 0.051300 0.160000
vt 0.076900 0.160000
vt 0.051300 0.980000
vt 0.102600 0.160000
vt 0.102600 0.980000
vt 0.025600 0.980000
vt 0.025600 0.160000
vt 0.128200 0.980000
vt 0.128200 0.160000
vn -0.923900 -0.000000 0.382700
vn 0.382600 -0.000000 0.923900
vn -0.382700 0.000000 -0.923900
vn -0.382600 0.000000 -0.923900
vn 0.923900 0.000000 -0.382700
usemtl Material__25
s 1
f 49/71/33 50/72/33 51/73/33
f 50/72/33 49/71/33 52/74/33
f 53/75/34 49/71/34 51/73/34
f 49/71/34 53/75/34 54/76/34
f 55/77/35 50/72/35 52/74/35
f 50/72/36 55/77/36 56/78/36
f 55/79/37 53/75/37 56/80/37
f 53/75/37 55/79/37 54/76/37
o Component_1_002
v -0.312500 2.781250 0.129400
v -0.181200 2.781250 0.437500
v -0.437500 2.781250 0.181200
v -0.129400 2.781250 0.312500
v -0.437500 2.781250 -0.181200
v -0.312500 2.781250 -0.129400
v -0.181200 2.781250 -0.437500
v -0.129400 2.781250 -0.312500
v 0.181200 2.781250 -0.437500
v 0.129400 2.781250 -0.312500
v 0.312500 2.781250 -0.129400
v 0.437500 2.781250 -0.181200
v 0.312500 2.781250 0.129400
v 0.181200 2.781250 0.437500
v 0.129400 2.781250 0.312500
v 0.437500 2.781250 0.181200
v -0.437500 2.906250 0.181200
v -0.312500 2.906250 0.129400
v -0.437500 2.906250 -0.181200
v -0.181200 2.906250 0.437500
v -0.129400 2.906250 0.312500
v 0.181200 2.906250 0.437500
v 0.312500 2.906250 0.129400
v 0.129400 2.906250 0.312500
v 0.437500 2.906250 0.181200
v 0.312500 2.906250 -0.129400
v -0.312500 2.906250 -0.129400
v -0.181200 2.906250 -0.437500
v -0.129400 2.906250 -0.312500
v 0.181200 2.906250 -0.437500
v 0.129400 2.906250 -0.312500
v 0.437500 2.906250 -0.181200
vt 0.590100 0.201500
vt 0.643900 0.299900
vt 0.539000 0.218000
vt 0.665100 0.260000
vt 0.539000 0.102200
vt 0.590100 0.118800
vt 0.643900 0.020400
vt 0.665100 0.060300
vt 0.792200 0.020400
vt 0.771000 0.060300
vt 0.845900 0.118800
vt 0.897100 0.102200
vt 0.845900 0.201500
vt 0.792200 0.299900
vt 0.771000 0.260000
vt 0.897100 0.218000
vt 0.154400 0.102300
vt 0.205500 0.118900
vt 0.154400 0.218200
vt 0.259200 0.020400
vt 0.280400 0.060400
vt 0.407400 0.020400
vt 0.461100 0.118900
vt 0.386200 0.060400
vt 0.512200 0.102300
vt 0.461100 0.201600
vt 0.205500 0.201600
vt 0.259200 0.300100
vt 0.280400 0.260100
vt 0.407400 0.300100
vt 0.386200 0.260100
vt 0.512200 0.218200
vt 0.973900 0.294300
vt 0.923100 0.180100
vt 0.973900 0.180100
vt 0.923200 0.294400
vt 0.923600 0.979900
vt 0.974200 0.865600
vt 0.974300 0.979900
vt 0.923500 0.865700
vt 0.923400 0.751400
vt 0.974200 0.751400
vt 0.923400 0.637100
vt 0.974100 0.637100
vt 0.974100 0.522800
vt 0.923300 0.522900
vt 0.974000 0.408600
vt 0.923300 0.408600
vt 0.846700 0.808500
vt 0.897200 0.894100
vt 0.846700 0.894200
vt 0.897100 0.808500
vt 0.897100 0.722800
vt 0.846600 0.722800
vt 0.897000 0.637200
vt 0.846600 0.637200
vt 0.846600 0.551500
vt 0.897000 0.551500
vt 0.846500 0.465900
vt 0.897000 0.465800
vt 0.896900 0.380200
vt 0.846500 0.380200
vt 0.897200 0.979800
vt 0.846800 0.979800
vt 0.923100 0.100000
vt 0.974400 0.060000
vt 0.974400 0.100000
vt 0.923100 0.060000
vt 0.974400 0.120000
vt 0.923100 0.160000
vt 0.923100 0.120000
vt 0.974400 0.160000
vn 0.000000 -1.000000 0.000000
vn 0.000000 1.000000 0.000000
vn 0.707100 0.000000 0.707100
vn -0.707100 0.000000 0.707100
vn -1.000000 0.000000 0.000000
vn -0.707100 0.000000 -0.707100
vn 0.000000 0.000000 -1.000000
vn 0.707100 0.000000 -0.707100
vn 1.000000 0.000000 0.000000
vn 0.000000 0.000000 1.000000
vn -0.923900 0.000000 0.382500
vn 0.923900 0.000000 0.382500
usemtl Material__25
s 1
f 57/81/38 58/82/38 59/83/38
f 58/82/38 57/81/38 60/84/38
f 61/85/38 62/86/38 59/83/38
f 62/86/38 61/85/38 63/87/38
f 59/83/38 62/86/38 57/81/38
f 62/86/38 63/87/38 64/88/38
f 64/88/38 63/87/38 65/89/38
f 64/88/38 65/89/38 66/90/38
f 66/90/38 65/89/38 67/91/38
f 67/91/38 65/89/38 68/92/38
f 67/91/38 68/92/38 69/93/38
f 69/93/38 70/94/38 71/95/38
f 70/94/38 69/93/38 72/96/38
f 72/96/38 69/93/38 68/92/38
f 73/97/39 74/98/39 75/99/39
f 74/98/39 73/97/39 76/100/39
f 74/98/39 76/100/39 77/101/39
f 78/102/39 79/103/39 80/104/39
f 79/103/39 78/102/39 81/105/39
f 79/103/39 81/105/39 82/106/39
f 75/99/39 83/107/39 84/108/39
f 83/107/39 75/99/39 74/98/39
f 84/108/39 83/107/39 85/109/39
f 84/108/39 85/109/39 86/110/39
f 86/110/39 85/109/39 87/111/39
f 86/110/39 87/111/39 82/106/39
f 86/110/39 82/106/39 88/112/39
f 88/112/39 82/106/39 81/105/39
f 72/113/40 78/114/40 70/115/40
f 78/114/40 72/113/40 81/116/40
f 76/117/41 59/118/41 58/119/41
f 59/118/41 76/117/41 73/120/41
f 75/121/42 59/118/42 73/120/42
f 59/118/42 75/121/42 61/122/42
f 84/123/43 61/122/43 75/121/43
f 61/122/43 84/123/43 63/124/43
f 84/123/44 65/125/44 63/124/44
f 65/125/44 84/123/44 86/126/44
f 86/126/45 68/127/45 65/125/45
f 68/127/45 86/126/45 88/128/45
f 68/127/46 81/116/46 72/113/46
f 81/116/46 68/127/46 88/128/46
f 82/129/42 69/130/42 79/131/42
f 69/130/42 82/129/42 67/132/42
f 82/129/41 66/133/41 67/132/41
f 66/133/41 82/129/41 87/134/41
f 87/134/47 64/135/47 66/133/47
f 64/135/47 87/134/47 85/136/47
f 64/135/40 83/137/40 62/138/40
f 83/137/40 64/135/40 85/136/40
f 62/138/46 74/139/46 57/140/46
f 74/139/46 62/138/46 83/137/46
f 74/139/45 60/141/45 57/140/45
f 60/141/45 74/139/45 77/142/45
f 79/131/43 71/143/43 80/144/43
f 71/143/43 79/131/43 69/130/43
f 80/145/48 70/146/48 78/147/48
f 70/146/48 80/145/48 71/148/48
f 60/149/49 76/150/49 58/151/49
f 76/150/49 60/149/49 77/152/49
o Component_1_001
v -0.312500 0.093750 0.129400
v -0.181200 0.093750 0.437500
v -0.437500 0.093750 0.181200
v -0.129400 0.093750 0.312500
v -0.437500 0.093750 -0.181200
v -0.312500 0.093750 -0.129400
v -0.181200 0.093750 -0.437500
v -0.129400 0.093750 -0.312500
v 0.181200 0.093750 -0.437500
v 0.129400 0.093750 -0.312500
v 0.312500 0.093750 -0.129400
v 0.437500 0.093750 -0.181200
v 0.312500 0.093750 0.129400
v 0.181200 0.093750 0.437500
v 0.129400 0.093750 0.312500
v 0.437500 0.093750 0.181200
v -0.437500 0.218750 0.181200
v -0.312500 0.218750 0.129400
v -0.437500 0.218750 -0.181200
v -0.181200 0.218750 0.437500
v -0.129400 0.218750 0.312500
v 0.181200 0.218750 0.437500
v 0.312500 0.218750 0.129400
v 0.129400 0.218750 0.312500
v 0.437500 0.218750 0.181200
v 0.312500 0.218750 -0.129400
v -0.312500 0.218750 -0.129400
v -0.181200 0.218750 -0.437500
v -0.129400 0.218750 -0.312500
v 0.181200 0.218750 -0.437500
v 0.129400 0.218750 -0.312500
v 0.437500 0.218750 -0.181200
vt 0.590100 0.201500
vt 0.643900 0.299900
vt 0.539000 0.218000
vt 0.665100 0.260000
vt 0.539000 0.102200
vt 0.590100 0.118800
vt 0.643900 0.020400
vt 0.665100 0.060300
vt 0.792200 0.020400
vt 0.771000 0.060300
vt 0.845900 0.118800
vt 0.897100 0.102200
vt 0.845900 0.201500
vt 0.792200 0.299900
vt 0.771000 0.260000
vt 0.897100 0.218000
vt 0.154400 0.102300
vt 0.205500 0.118900
vt 0.154400 0.218200
vt 0.259200 0.020400
vt 0.280400 0.060400
vt 0.407400 0.020400
vt 0.461100 0.118900
vt 0.386200 0.060400
vt 0.512200 0.102300
vt 0.461100 0.201600
vt 0.205500 0.201600
vt 0.259200 0.300100
vt 0.280400 0.260100
vt 0.407400 0.300100
vt 0.386200 0.260100
vt 0.512200 0.218200
vt 0.973900 0.294300
vt 0.923100 0.180100
vt 0.973900 0.180100
vt 0.923200 0.294400
vt 0.923600 0.979900
vt 0.974200 0.865600
vt 0.974300 0.979900
vt 0.923500 0.865700
vt 0.923400 0.751400
vt 0.974200 0.751400
vt 0.923400 0.637100
vt 0.974100 0.637100
vt 0.974100 0.522800
vt 0.923300 0.522900
vt 0.974000 0.408600
vt 0.923300 0.408600
vt 0.846700 0.808500
vt 0.897200 0.894100
vt 0.846700 0.894200
vt 0.897100 0.808500
vt 0.897100 0.722800
vt 0.846600 0.722800
vt 0.897000 0.637200
vt 0.846600 0.637200
vt 0.846600 0.551500
vt 0.897000 0.551500
vt 0.846500 0.465900
vt 0.897000 0.465800
vt 0.896900 0.380200
vt 0.846500 0.380200
vt 0.897200 0.979800
vt 0.846800 0.979800
vt 0.923100 0.100000
vt 0.974400 0.060000
vt 0.974400 0.100000
vt 0.923100 0.060000
vt 0.974400 0.120000
vt 0.923100 0.160000
vt 0.923100 0.120000
vt 0.974400 0.160000
vn 0.000000 -1.000000 -0.000000
vn 0.000000 1.000000 0.000000
vn 0.707100 -0.000000 0.707100
vn -0.707100 -0.000000 0.707100
vn -1.000000 -0.000000 0.000000
vn -0.707100 0.000000 -0.707100
vn 0.000000 0.000000 -1.000000
vn 0.707100 0.000000 -0.707100
vn 1.000000 -0.000000 0.000000
vn 0.000000 0.000000 1.000000
vn -0.923900 -0.000000 0.382500
vn 0.924000 -0.000000 0.382400
vn 0.923900 -0.000000 0.382500
usemtl Material__25
s 1
f 89/153/50 90/154/50 91/155/50
f 90/154/50 89/153/50 92/156/50
f 93/157/50 94/158/50 91/155/50
f 94/158/50 93/157/50 95/159/50
f 91/155/50 94/158/50 89/153/50
f 94/158/50 95/159/50 96/160/50
f 96/160/50 95/159/50 97/161/50
f 96/160/50 97/161/50 98/162/50
f 98/162/50 97/161/50 99/163/50
f 99/163/50 97/161/50 100/164/50
f 99/163/50 100/164/50 101/165/50
f 101/165/50 102/166/50 103/167/50
f 102/166/50 101/165/50 104/168/50
f 104/168/50 101/165/50 100/164/50
f 105/169/51 106/170/51 107/171/51
f 106/170/51 105/169/51 108/172/51
f 106/170/51 108/172/51 109/173/51
f 110/174/51 111/175/51 112/176/51
f 111/175/51 110/174/51 113/177/51
f 111/175/51 113/177/51 114/178/51
f 107/171/51 115/179/51 116/180/51
f 115/179/51 107/171/51 106/170/51
f 116/180/51 115/179/51 117/181/51
f 116/180/51 117/181/51 118/182/51
f 118/182/51 117/181/51 119/183/51
f 118/182/51 119/183/51 114/178/51
f 118/182/51 114/178/51 120/184/51
f 120/184/51 114/178/51 113/177/51
f 104/185/52 110/186/52 102/187/52
f 110/186/52 104/185/52 113/188/52
f 108/189/53 91/190/53 90/191/53
f 91/190/53 108/189/53 105/192/53
f 107/193/54 91/190/54 105/192/54
f 91/190/54 107/193/54 93/194/54
f 116/195/55 93/194/55 107/193/55
f 93/194/55 116/195/55 95/196/55
f 116/195/56 97/197/56 95/196/56
f 97/197/56 116/195/56 118/198/56
f 118/198/57 100/199/57 97/197/57
f 100/199/57 118/198/57 120/200/57
f 100/199/58 113/188/58 104/185/58
f 113/188/58 100/199/58 120/200/58
f 114/201/54 101/202/54 111/203/54
f 101/202/54 114/201/54 99/204/54
f 114/201/53 98/205/53 99/204/53
f 98/205/53 114/201/53 119/206/53
f 119/206/59 96/207/59 98/205/59
f 96/207/59 119/206/59 117/208/59
f 96/207/52 115/209/52 94/210/52
f 115/209/52 96/207/52 117/208/52
f 94/210/58 106/211/58 89/212/58
f 106/211/58 94/210/58 115/209/58
f 106/211/57 92/213/57 89/212/57
f 92/213/57 106/211/57 109/214/57
f 111/203/55 103/215/55 112/216/55
f 103/215/55 111/203/55 101/202/55
f 112/217/60 102/218/60 110/219/60
f 102/218/60 112/217/60 103/220/60
f 92/221/61 108/222/61 90/223/62
f 108/222/61 92/221/61 109/224/62
