# Blender v2.74 (sub 0) OBJ File: 'Launchertowerblock.blend'
# www.blender.org
mtllib Launchertowerblock.mtl
o SmallSilo
v 0.350219 1.000001 -0.825001
v 0.639783 1.000001 -0.825001
v 0.350219 1.000001 -0.935001
v 0.639783 1.000001 -0.935001
v 0.165001 1.000001 -0.639783
v 0.055001 1.000001 -0.639783
v 0.165001 1.000001 -0.350219
v 0.055001 1.000001 -0.350219
v 0.350219 1.000001 -0.055001
v 0.639783 1.000001 -0.055001
v 0.350219 1.000001 -0.165001
v 0.639783 1.000001 -0.165001
v 0.000001 1.000001 -0.000001
v 0.220001 1.000001 -0.000001
v 0.000001 1.000001 -0.220001
v 0.220001 1.000001 -0.220001
v 0.935001 1.000001 -0.639783
v 0.825001 1.000001 -0.639783
v 0.935001 1.000001 -0.350219
v 0.825001 1.000001 -0.350219
v 0.990001 1.000001 -0.220001
v 0.770001 1.000001 -0.220001
v 0.990001 1.000001 -0.000001
v 0.770001 1.000001 -0.000001
v 0.000001 1.000001 -0.770001
v 0.220001 1.000001 -0.770001
v 0.000001 1.000001 -0.990001
v 0.220001 1.000001 -0.990001
v 0.990001 1.000001 -0.990001
v 0.770001 1.000001 -0.990001
v 0.990001 1.000001 -0.770001
v 0.770001 1.000001 -0.770001
v 0.825001 0.869783 -0.770001
v 0.825001 0.560219 -0.770001
v 0.935001 0.869783 -0.770001
v 0.825001 0.165783 -0.770001
v 0.935001 0.560219 -0.770001
v 0.770001 0.000001 -0.770001
v 0.825001 0.000001 -0.770001
v 0.935001 0.165783 -0.770001
v 0.935001 0.000001 -0.770001
v 0.990001 0.000001 -0.770001
v 0.770001 0.560219 -0.825001
v 0.770001 0.869783 -0.825001
v 0.770001 0.560219 -0.935001
v 0.770001 0.165783 -0.935001
v 0.770001 0.869783 -0.935001
v 0.770001 0.000001 -0.990001
v 0.770001 0.000001 -0.935001
v 0.770001 0.165783 -0.825001
v 0.770001 0.000001 -0.825001
v 0.220001 0.000001 -0.990001
v 0.000001 0.000001 -0.990001
v 0.220001 0.869783 -0.825001
v 0.220001 0.560219 -0.825001
v 0.220001 0.000001 -0.825001
v 0.220001 0.165783 -0.825001
v 0.220001 0.000001 -0.770001
v 0.220001 0.165783 -0.935001
v 0.220001 0.560219 -0.935001
v 0.220001 0.000001 -0.935001
v 0.220001 0.869783 -0.935001
v 0.770001 0.560219 -0.055001
v 0.770001 0.869783 -0.055001
v 0.770001 0.560219 -0.165001
v 0.770001 0.165783 -0.165001
v 0.770001 0.869783 -0.165001
v 0.770001 0.000001 -0.220001
v 0.770001 0.000001 -0.165001
v 0.770001 0.165783 -0.055001
v 0.770001 0.000001 -0.055001
v 0.770001 0.000001 -0.000001
v 0.825001 0.869783 -0.220001
v 0.990001 0.000001 -0.220001
v 0.935001 0.560219 -0.220001
v 0.935001 0.000001 -0.220001
v 0.935001 0.165783 -0.220001
v 0.825001 0.165783 -0.220001
v 0.825001 0.560219 -0.220001
v 0.825001 0.000001 -0.220001
v 0.935001 0.869783 -0.220001
v 0.990001 0.000001 -0.000001
v 0.825001 0.989219 -0.495001
v 0.825001 0.793564 -0.690656
v 0.825001 0.363001 -0.572783
v 0.825001 0.440783 -0.495001
v 0.825001 0.089564 -0.690656
v 0.825001 0.089564 -0.299346
v 0.825001 0.638001 -0.297783
v 0.825001 0.363001 -0.417219
v 0.825001 0.793564 -0.299346
v 0.825001 0.638001 -0.692219
v 0.825001 0.285219 -0.495001
v 0.165001 0.869783 -0.220001
v 0.055001 0.869783 -0.220001
v 0.165001 0.560219 -0.220001
v 0.165001 0.165783 -0.220001
v 0.055001 0.560219 -0.220001
v 0.220001 0.000001 -0.220001
v 0.165001 0.000001 -0.220001
v 0.055001 0.165783 -0.220001
v 0.055001 0.000001 -0.220001
v 0.000001 0.000001 -0.220001
v 0.000001 0.000001 -0.000001
v 0.220001 0.869783 -0.055001
v 0.220001 0.560219 -0.055001
v 0.220001 0.869783 -0.165001
v 0.220001 0.165783 -0.055001
v 0.220001 0.560219 -0.165001
v 0.220001 0.000001 -0.000001
v 0.220001 0.000001 -0.055001
v 0.220001 0.165783 -0.165001
v 0.220001 0.000001 -0.165001
v 0.690656 0.793564 -0.165001
v 0.297783 0.638001 -0.165001
v 0.299346 0.793564 -0.165001
v 0.495001 0.989219 -0.165001
v 0.692219 0.638001 -0.165001
v 0.495001 0.440783 -0.165001
v 0.417219 0.363001 -0.165001
v 0.690656 0.089564 -0.165001
v 0.299346 0.089564 -0.165001
v 0.495001 0.285219 -0.165001
v 0.572783 0.363001 -0.165001
v 0.055001 0.638001 -0.692219
v 0.055001 0.560219 -0.770001
v 0.055001 0.440783 -0.495001
v 0.055001 0.638001 -0.297783
v 0.055001 0.793564 -0.299346
v 0.055001 0.363001 -0.417219
v 0.055001 0.989219 -0.495001
v 0.055001 0.793564 -0.690656
v 0.055001 0.089564 -0.299346
v 0.055001 0.285219 -0.495001
v 0.055001 0.089564 -0.690656
v 0.055001 0.000001 -0.770001
v 0.055001 0.363001 -0.572783
v 0.055001 0.869783 -0.770001
v 0.055001 0.165783 -0.770001
v 0.165001 0.869783 -0.770001
v 0.495001 0.989219 -0.935001
v 0.690656 0.793564 -0.935001
v 0.692219 0.638001 -0.935001
v 0.495001 0.440783 -0.935001
v 0.690656 0.089564 -0.935001
v 0.572783 0.363001 -0.935001
v 0.299346 0.089564 -0.935001
v 0.417219 0.363001 -0.935001
v 0.299346 0.793564 -0.935001
v 0.495001 0.285219 -0.935001
v 0.297783 0.638001 -0.935001
v 0.990001 0.000001 -0.990001
v 0.000001 0.000001 -0.770001
v 0.165001 0.165783 -0.770001
v 0.165001 0.560219 -0.770001
v 0.165001 0.000001 -0.770001
v 0.935001 0.989219 -0.495001
v 0.935001 0.793564 -0.299346
v 0.935001 0.638001 -0.297783
v 0.935001 0.440783 -0.495001
v 0.935001 0.089564 -0.299346
v 0.935001 0.363001 -0.417219
v 0.935001 0.089564 -0.690656
v 0.935001 0.363001 -0.572783
v 0.935001 0.793564 -0.690656
v 0.935001 0.638001 -0.692219
v 0.935001 0.285219 -0.495001
v 0.495001 0.989219 -0.055001
v 0.299346 0.793564 -0.055001
v 0.417219 0.363001 -0.055001
v 0.495001 0.440783 -0.055001
v 0.299346 0.089564 -0.055001
v 0.690656 0.089564 -0.055001
v 0.692219 0.638001 -0.055001
v 0.572783 0.363001 -0.055001
v 0.690656 0.793564 -0.055001
v 0.297783 0.638001 -0.055001
v 0.495001 0.285219 -0.055001
v 0.165001 0.989219 -0.495001
v 0.165001 0.793564 -0.299346
v 0.165001 0.638001 -0.297783
v 0.165001 0.440783 -0.495001
v 0.165001 0.089564 -0.299346
v 0.165001 0.363001 -0.417219
v 0.165001 0.089564 -0.690656
v 0.165001 0.363001 -0.572783
v 0.165001 0.793564 -0.690656
v 0.165001 0.638001 -0.692219
v 0.165001 0.285219 -0.495001
v 0.495001 0.989219 -0.825001
v 0.299346 0.793564 -0.825001
v 0.417219 0.363001 -0.825001
v 0.495001 0.440783 -0.825001
v 0.299346 0.089564 -0.825001
v 0.690656 0.089564 -0.825001
v 0.692219 0.638001 -0.825001
v 0.572783 0.363001 -0.825001
v 0.690656 0.793564 -0.825001
v 0.297783 0.638001 -0.825001
v 0.495001 0.285219 -0.825001
vn 0.000000 1.000000 0.000000
vn 0.000000 0.000000 1.000000
vn -1.000000 0.000000 0.000000
vn 0.000000 0.000000 -1.000000
vn 1.000000 -0.000000 0.000000
vn 0.000000 0.707100 -0.707100
vn 0.707100 0.707100 0.000000
vn 0.000000 -1.000000 0.000000
vn -0.707100 -0.707100 0.000000
vn 0.000000 -0.707100 -0.707100
vn -0.707100 0.707100 0.000000
vn 0.707100 -0.707100 0.000000
vn 0.000000 0.707100 0.707100
vn 0.000000 -0.707100 0.707100
usemtl None
s off
f 1//1 2//1 3//1
f 2//1 4//1 3//1
f 5//1 6//1 7//1
f 6//1 8//1 7//1
f 9//1 10//1 11//1
f 10//1 12//1 11//1
f 13//1 14//1 15//1
f 14//1 16//1 15//1
f 17//1 18//1 19//1
f 18//1 20//1 19//1
f 21//1 22//1 23//1
f 22//1 24//1 23//1
f 25//1 26//1 27//1
f 26//1 28//1 27//1
f 29//1 30//1 31//1
f 30//1 32//1 31//1
f 33//2 32//2 34//2
f 32//2 33//2 31//2
f 33//2 35//2 31//2
f 34//2 36//2 37//2
f 32//2 38//2 34//2
f 39//2 36//2 38//2
f 36//2 40//2 37//2
f 41//2 42//2 40//2
f 40//2 42//2 37//2
f 36//2 34//2 38//2
f 42//2 31//2 37//2
f 37//2 31//2 35//2
f 43//3 32//3 44//3
f 45//3 46//3 43//3
f 47//3 30//3 45//3
f 47//3 44//3 30//3
f 32//3 30//3 44//3
f 30//3 48//3 45//3
f 49//3 46//3 48//3
f 46//3 50//3 43//3
f 51//3 38//3 50//3
f 50//3 38//3 43//3
f 46//3 45//3 48//3
f 32//3 43//3 38//3
f 28//4 52//4 27//4
f 52//4 53//4 27//4
f 26//5 54//5 28//5
f 54//5 26//5 55//5
f 56//5 57//5 58//5
f 59//5 60//5 57//5
f 61//5 52//5 59//5
f 59//5 52//5 60//5
f 54//5 62//5 28//5
f 62//5 60//5 28//5
f 60//5 55//5 57//5
f 28//5 60//5 52//5
f 26//5 58//5 55//5
f 58//5 57//5 55//5
f 63//3 24//3 64//3
f 65//3 66//3 63//3
f 67//3 22//3 65//3
f 67//3 64//3 22//3
f 24//3 22//3 64//3
f 22//3 68//3 65//3
f 69//3 66//3 68//3
f 66//3 70//3 63//3
f 71//3 72//3 70//3
f 70//3 72//3 63//3
f 66//3 65//3 68//3
f 24//3 63//3 72//3
f 21//4 73//4 22//4
f 74//4 75//4 21//4
f 76//4 77//4 74//4
f 78//4 79//4 77//4
f 80//4 68//4 78//4
f 78//4 68//4 79//4
f 73//4 79//4 22//4
f 79//4 75//4 77//4
f 75//4 81//4 21//4
f 81//4 73//4 21//4
f 77//4 75//4 74//4
f 22//4 79//4 68//4
f 23//5 82//5 21//5
f 82//5 74//5 21//5
f 18//3 83//3 20//3
f 83//3 18//3 84//3
f 18//3 33//3 84//3
f 85//3 86//3 34//3
f 36//3 87//3 85//3
f 36//3 39//3 87//3
f 87//3 39//3 88//3
f 39//3 80//3 88//3
f 80//3 78//3 88//3
f 79//3 89//3 90//3
f 79//3 73//3 89//3
f 89//3 73//3 91//3
f 89//3 91//3 92//3
f 86//3 92//3 34//3
f 90//3 89//3 86//3
f 90//3 86//3 93//3
f 90//3 93//3 88//3
f 90//3 88//3 78//3
f 83//3 91//3 20//3
f 92//3 91//3 84//3
f 92//3 84//3 34//3
f 85//3 87//3 93//3
f 85//3 93//3 86//3
f 33//3 34//3 84//3
f 91//3 73//3 20//3
f 18//6 17//6 33//6
f 17//6 35//6 33//6
f 94//4 95//4 15//4
f 94//4 15//4 16//4
f 94//4 16//4 96//4
f 96//4 97//4 98//4
f 16//4 99//4 96//4
f 100//4 97//4 99//4
f 97//4 101//4 98//4
f 102//4 103//4 101//4
f 101//4 103//4 98//4
f 97//4 96//4 99//4
f 103//4 15//4 98//4
f 98//4 15//4 95//4
f 15//3 103//3 13//3
f 103//3 104//3 13//3
f 105//5 14//5 106//5
f 14//5 105//5 16//5
f 105//5 107//5 16//5
f 106//5 108//5 109//5
f 14//5 110//5 106//5
f 111//5 108//5 110//5
f 108//5 112//5 109//5
f 113//5 99//5 112//5
f 112//5 99//5 109//5
f 108//5 106//5 110//5
f 99//5 16//5 109//5
f 109//5 16//5 107//5
f 13//2 104//2 14//2
f 104//2 110//2 14//2
f 114//4 115//4 116//4
f 117//4 12//4 114//4
f 12//4 117//4 11//4
f 11//4 117//4 116//4
f 11//4 116//4 107//4
f 115//4 114//4 118//4
f 116//4 115//4 109//4
f 116//4 109//4 107//4
f 118//4 65//4 119//4
f 109//4 115//4 119//4
f 109//4 119//4 120//4
f 121//4 113//4 122//4
f 123//4 124//4 121//4
f 122//4 120//4 123//4
f 12//4 67//4 114//4
f 114//4 67//4 118//4
f 65//4 124//4 119//4
f 124//4 66//4 121//4
f 66//4 69//4 121//4
f 69//4 113//4 121//4
f 113//4 112//4 122//4
f 112//4 120//4 122//4
f 123//4 120//4 119//4
f 123//4 119//4 124//4
f 65//4 118//4 67//4
f 12//7 10//7 67//7
f 10//7 64//7 67//7
f 125//3 126//3 127//3
f 128//3 129//3 125//3
f 127//3 130//3 128//3
f 129//3 8//3 131//3
f 125//3 129//3 132//3
f 125//3 132//3 126//3
f 131//3 6//3 132//3
f 133//3 130//3 134//3
f 135//3 136//3 133//3
f 134//3 137//3 135//3
f 8//3 6//3 131//3
f 6//3 138//3 132//3
f 138//3 126//3 132//3
f 126//3 137//3 127//3
f 137//3 139//3 135//3
f 139//3 136//3 135//3
f 136//3 102//3 133//3
f 102//3 101//3 133//3
f 101//3 130//3 133//3
f 130//3 98//3 128//3
f 98//3 95//3 128//3
f 128//3 95//3 129//3
f 137//3 134//3 127//3
f 130//3 127//3 134//3
f 129//3 95//3 8//3
f 6//6 5//6 138//6
f 5//6 140//6 138//6
f 4//4 141//4 3//4
f 141//4 4//4 142//4
f 45//4 143//4 47//4
f 143//4 45//4 144//4
f 46//4 145//4 146//4
f 46//4 49//4 145//4
f 49//4 61//4 145//4
f 145//4 61//4 147//4
f 61//4 59//4 147//4
f 60//4 144//4 148//4
f 62//4 149//4 60//4
f 62//4 3//4 149//4
f 146//4 145//4 150//4
f 146//4 150//4 144//4
f 146//4 144//4 45//4
f 144//4 150//4 148//4
f 148//4 150//4 147//4
f 148//4 147//4 59//4
f 47//4 143//4 142//4
f 47//4 142//4 4//4
f 144//4 60//4 151//4
f 142//4 143//4 151//4
f 142//4 151//4 149//4
f 60//4 149//4 151//4
f 3//4 141//4 149//4
f 4//7 2//7 47//7
f 2//7 44//7 47//7
f 29//4 152//4 30//4
f 152//4 48//4 30//4
f 25//2 138//2 26//2
f 138//2 25//2 126//2
f 136//2 139//2 153//2
f 154//2 155//2 139//2
f 156//2 58//2 154//2
f 154//2 58//2 155//2
f 138//2 140//2 26//2
f 140//2 155//2 26//2
f 155//2 126//2 139//2
f 26//2 155//2 58//2
f 25//2 153//2 126//2
f 153//2 139//2 126//2
f 31//5 42//5 29//5
f 42//5 152//5 29//5
f 19//5 157//5 17//5
f 157//5 19//5 158//5
f 75//5 159//5 81//5
f 159//5 75//5 160//5
f 77//5 161//5 162//5
f 77//5 76//5 161//5
f 76//5 41//5 161//5
f 161//5 41//5 163//5
f 41//5 40//5 163//5
f 37//5 160//5 164//5
f 35//5 165//5 37//5
f 35//5 17//5 165//5
f 37//5 165//5 166//5
f 37//5 166//5 160//5
f 166//5 165//5 158//5
f 166//5 158//5 159//5
f 17//5 157//5 165//5
f 81//5 159//5 158//5
f 81//5 158//5 19//5
f 162//5 161//5 167//5
f 162//5 167//5 160//5
f 162//5 160//5 75//5
f 160//5 167//5 164//5
f 164//5 167//5 163//5
f 164//5 163//5 40//5
f 24//2 72//2 23//2
f 72//2 82//2 23//2
f 27//3 53//3 25//3
f 53//3 153//3 25//3
f 58//8 156//8 56//8
f 100//8 102//8 156//8
f 99//8 113//8 100//8
f 69//8 111//8 113//8
f 68//8 80//8 69//8
f 39//8 41//8 80//8
f 38//8 51//8 39//8
f 56//8 49//8 51//8
f 48//8 152//8 49//8
f 42//8 41//8 152//8
f 41//8 76//8 80//8
f 74//8 82//8 76//8
f 72//8 71//8 82//8
f 111//8 69//8 71//8
f 110//8 104//8 111//8
f 103//8 102//8 104//8
f 102//8 136//8 156//8
f 153//8 53//8 136//8
f 52//8 61//8 53//8
f 49//8 56//8 61//8
f 71//8 69//8 76//8
f 71//8 76//8 82//8
f 100//8 113//8 102//8
f 61//8 56//8 136//8
f 61//8 136//8 53//8
f 39//8 51//8 41//8
f 56//8 156//8 136//8
f 113//8 111//8 102//8
f 104//8 102//8 111//8
f 80//8 76//8 69//8
f 152//8 41//8 49//8
f 49//8 41//8 51//8
f 9//2 168//2 10//2
f 168//2 9//2 169//2
f 9//2 105//2 169//2
f 170//2 171//2 106//2
f 108//2 172//2 170//2
f 108//2 111//2 172//2
f 172//2 111//2 173//2
f 111//2 71//2 173//2
f 71//2 70//2 173//2
f 63//2 174//2 175//2
f 63//2 64//2 174//2
f 174//2 64//2 176//2
f 174//2 176//2 177//2
f 173//2 175//2 178//2
f 170//2 172//2 178//2
f 170//2 178//2 171//2
f 168//2 176//2 10//2
f 177//2 176//2 169//2
f 177//2 169//2 106//2
f 177//2 106//2 171//2
f 175//2 174//2 171//2
f 175//2 171//2 178//2
f 105//2 106//2 169//2
f 176//2 64//2 10//2
f 173//2 70//2 175//2
f 7//5 179//5 5//5
f 179//5 7//5 180//5
f 96//5 181//5 94//5
f 181//5 96//5 182//5
f 97//5 183//5 184//5
f 97//5 100//5 183//5
f 100//5 156//5 183//5
f 183//5 156//5 185//5
f 156//5 154//5 185//5
f 155//5 182//5 186//5
f 140//5 187//5 155//5
f 140//5 5//5 187//5
f 155//5 187//5 188//5
f 155//5 188//5 182//5
f 188//5 187//5 180//5
f 188//5 180//5 181//5
f 5//5 179//5 187//5
f 94//5 181//5 180//5
f 94//5 180//5 7//5
f 184//5 183//5 189//5
f 184//5 189//5 182//5
f 184//5 182//5 96//5
f 182//5 189//5 186//5
f 186//5 189//5 185//5
f 186//5 185//5 154//5
f 1//2 190//2 2//2
f 190//2 1//2 191//2
f 1//2 54//2 191//2
f 192//2 193//2 55//2
f 57//2 194//2 192//2
f 57//2 56//2 194//2
f 194//2 56//2 195//2
f 56//2 51//2 195//2
f 51//2 50//2 195//2
f 43//2 196//2 197//2
f 43//2 44//2 196//2
f 196//2 44//2 198//2
f 196//2 198//2 199//2
f 193//2 199//2 55//2
f 197//2 196//2 193//2
f 197//2 193//2 200//2
f 197//2 200//2 195//2
f 197//2 195//2 50//2
f 190//2 198//2 2//2
f 199//2 198//2 191//2
f 199//2 191//2 55//2
f 192//2 194//2 200//2
f 192//2 200//2 193//2
f 54//2 55//2 191//2
f 198//2 44//2 2//2
f 195//1 145//1 194//1
f 145//1 147//1 194//1
f 145//9 195//9 150//9
f 195//9 200//9 150//9
f 173//1 121//1 172//1
f 121//1 122//1 172//1
f 121//9 173//9 123//9
f 173//9 178//9 123//9
f 88//1 161//1 87//1
f 161//1 163//1 87//1
f 161//10 88//10 167//10
f 88//10 93//10 167//10
f 133//1 183//1 135//1
f 183//1 185//1 135//1
f 183//10 133//10 189//10
f 133//10 134//10 189//10
f 199//8 151//8 196//8
f 151//8 143//8 196//8
f 198//1 142//1 191//1
f 142//1 149//1 191//1
f 196//11 143//11 193//11
f 143//11 144//11 193//11
f 59//11 57//11 148//11
f 57//11 192//11 148//11
f 55//9 60//9 192//9
f 60//9 148//9 192//9
f 50//7 46//7 197//7
f 46//7 146//7 197//7
f 151//7 199//7 144//7
f 199//7 193//7 144//7
f 194//12 147//12 200//12
f 147//12 150//12 200//12
f 45//12 43//12 146//12
f 43//12 197//12 146//12
f 142//9 198//9 141//9
f 198//9 190//9 141//9
f 177//8 115//8 174//8
f 115//8 118//8 174//8
f 176//1 114//1 169//1
f 114//1 116//1 169//1
f 174//11 118//11 171//11
f 118//11 119//11 171//11
f 112//11 108//11 120//11
f 108//11 170//11 120//11
f 106//9 109//9 170//9
f 109//9 120//9 170//9
f 70//7 66//7 175//7
f 66//7 124//7 175//7
f 115//7 177//7 119//7
f 177//7 171//7 119//7
f 172//12 122//12 178//12
f 122//12 123//12 178//12
f 65//12 63//12 124//12
f 63//12 175//12 124//12
f 114//9 176//9 117//9
f 176//9 168//9 117//9
f 92//8 166//8 89//8
f 166//8 159//8 89//8
f 91//1 158//1 84//1
f 158//1 165//1 84//1
f 89//6 159//6 86//6
f 159//6 160//6 86//6
f 40//6 36//6 164//6
f 36//6 85//6 164//6
f 34//10 37//10 85//10
f 37//10 164//10 85//10
f 78//13 77//13 90//13
f 77//13 162//13 90//13
f 166//13 92//13 160//13
f 92//13 86//13 160//13
f 87//14 163//14 93//14
f 163//14 167//14 93//14
f 75//14 79//14 162//14
f 79//14 90//14 162//14
f 158//10 91//10 157//10
f 91//10 83//10 157//10
f 125//8 188//8 128//8
f 188//8 181//8 128//8
f 129//1 180//1 132//1
f 180//1 187//1 132//1
f 128//6 181//6 127//6
f 181//6 182//6 127//6
f 154//6 139//6 186//6
f 139//6 137//6 186//6
f 126//10 155//10 137//10
f 155//10 186//10 137//10
f 101//13 97//13 130//13
f 97//13 184//13 130//13
f 188//13 125//13 182//13
f 125//13 127//13 182//13
f 135//14 185//14 134//14
f 185//14 189//14 134//14
f 96//14 98//14 184//14
f 98//14 130//14 184//14
f 180//10 129//10 179//10
f 129//10 131//10 179//10
f 1//11 3//11 54//11
f 3//11 62//11 54//11
f 191//12 149//12 190//12
f 149//12 141//12 190//12
f 19//13 20//13 81//13
f 20//13 73//13 81//13
f 84//14 165//14 83//14
f 165//14 157//14 83//14
f 7//13 8//13 94//13
f 8//13 95//13 94//13
f 132//14 187//14 131//14
f 187//14 179//14 131//14
f 9//11 11//11 105//11
f 11//11 107//11 105//11
f 169//12 116//12 168//12
f 116//12 117//12 168//12
