# Blender v2.74 (sub 0) OBJ File: 'Launchertowerblockhead.blend'
# www.blender.org
mtllib Launchertowerblockhead.mtl
o SmallSilo_SmallSilo.001
v -0.366521 -0.182802 0.275000
v -0.366521 -0.182802 -0.275000
v -0.586521 -0.182802 0.275000
v -0.586521 -0.182802 -0.275000
v -0.366521 -0.412802 0.275000
v -0.366521 -0.412802 -0.275000
v -0.294575 -0.182802 -0.495000
v -0.294575 -0.182802 -0.275000
v 0.183479 -0.182802 -0.495000
v 0.183479 -0.182802 -0.275000
v 0.183479 0.295253 -0.495000
v 0.183479 0.295253 -0.275000
v -0.586521 -0.412802 -0.495000
v 0.403479 -0.412802 -0.495000
v -0.586521 -0.182802 -0.495000
v 0.183479 0.587198 -0.495000
v 0.403479 0.587198 -0.495000
v 0.183479 -0.412802 -0.275000
v 0.183479 -0.412802 0.275000
v 0.183479 -0.182802 0.275000
v 0.183479 0.380762 -0.275000
v 0.403479 -0.182802 -0.275000
v 0.403479 0.380762 -0.275000
v 0.183479 0.587198 -0.275000
v -0.294575 -0.182802 0.275000
v 0.183479 0.295253 0.275000
v -0.294575 -0.182802 0.495000
v 0.183479 0.295253 0.495000
v 0.403479 0.380762 0.275000
v 0.183479 0.380762 0.275000
v 0.183479 0.587198 0.275000
v -0.586521 -0.412802 0.495000
v 0.403479 -0.412802 0.495000
v -0.586521 -0.182802 0.495000
v 0.183479 0.587198 0.495000
v 0.183479 -0.182802 0.495000
v 0.403479 0.587198 0.495000
v 0.403479 -0.182802 0.275000
vt 0.416221 0.377152
vt 0.605413 0.377152
vt 0.416221 0.431031
vt 0.605413 0.431031
vt 0.075677 0.053879
vt 0.264868 0.053879
vt 0.075677 0.110207
vt 0.264868 0.110207
vt 0.941898 1.000000
vt 0.866221 1.000000
vt 0.941898 0.882923
vt 0.866221 0.882923
vt 0.866221 0.765845
vt 0.790545 0.765845
vt 0.790545 1.000000
vt 0.000000 0.833705
vt 0.100425 0.754045
vt 0.340545 0.833705
vt 0.000000 0.754045
vt 0.264868 0.487359
vt 0.264868 0.588473
vt 0.340545 0.487359
vt 0.264868 0.754045
vt 0.790545 0.956336
vt 0.734601 0.765845
vt 0.734601 0.956336
vt 0.814868 0.765845
vt 0.853312 0.691898
vt 0.870812 0.709517
vt 0.681090 0.631148
vt 0.737033 0.574820
vt 0.853312 0.457743
vt 0.874111 0.436801
vt 0.683522 0.520941
vt 0.820600 0.382923
vt 0.924323 0.386244
vt 0.924323 0.763396
vt 1.000000 0.000000
vt 1.000000 0.234155
vt 0.924323 0.000000
vt 0.924323 0.234155
vt 0.075677 0.436802
vt 0.075677 0.382923
vt 0.264868 0.436802
vt 0.264868 0.382923
vt 0.416221 0.104436
vt 0.416221 0.053879
vt 0.605413 0.104436
vt 0.605413 0.053879
vt 0.681090 0.431031
vt 0.681090 0.053879
vt 0.075677 0.188576
vt 0.000000 0.000000
vt 0.264868 0.188576
vt 0.340545 0.242455
vt 0.340545 0.000000
vt 0.000000 0.242455
vt 0.340545 0.431031
vt 0.340545 0.053879
vt 0.924323 0.351232
vt 1.000000 0.351232
vt 0.681089 0.000000
vt 0.924323 0.002449
vt 0.853312 0.308102
vt 0.870812 0.056328
vt 0.924323 0.379601
vt 0.874111 0.329044
vt 0.737033 0.191025
vt 0.683522 0.244904
vt 0.853312 0.073948
vt 0.681090 0.134697
vt 0.814868 0.000000
vt 0.681090 0.956336
vt 0.681090 0.765845
vt 0.681090 0.833705
vt 0.580665 0.754045
vt 0.681090 0.754045
vt 0.416221 0.588473
vt 0.416221 0.487359
vt 0.416221 0.754045
vt 0.681090 0.487358
vt 1.000000 0.468310
vt 0.924323 0.468310
vt 0.075677 0.298783
vt 0.264868 0.298783
vt 0.000000 0.487359
vt 0.941898 0.765845
vn 0.000000 1.000000 0.000000
vn 1.000000 0.000000 0.000000
vn 0.707100 -0.707100 0.000000
vn 0.000000 0.000000 -1.000000
vn -1.000000 0.000000 0.000000
vn 0.000000 0.000000 1.000000
vn 0.000000 -1.000000 0.000000
vn -0.707100 0.707100 0.000000
usemtl None
s off
f 1/1/1 2/2/1 3/3/1
f 2/2/1 4/4/1 3/3/1
f 5/5/2 6/6/2 1/7/2
f 6/6/2 2/8/2 1/7/2
f 7/9/1 8/10/1 9/11/1
f 8/10/1 10/12/1 9/11/1
f 7/13/3 11/10/3 8/14/3
f 11/10/3 12/15/3 8/14/3
f 13/16/4 7/17/4 14/18/4
f 13/16/4 15/19/4 7/17/4
f 15/19/4 16/20/4 7/17/4
f 7/17/4 16/20/4 11/21/4
f 16/20/4 17/22/4 11/21/4
f 7/17/4 9/23/4 14/18/4
f 14/18/4 9/23/4 11/21/4
f 14/18/4 11/21/4 17/22/4
f 18/14/5 19/24/5 10/25/5
f 19/24/5 20/26/5 10/25/5
f 6/27/6 8/28/6 2/29/6
f 6/27/6 18/30/6 8/28/6
f 18/30/6 10/31/6 8/28/6
f 12/32/6 21/33/6 8/28/6
f 10/31/6 22/34/6 12/32/6
f 22/34/6 23/35/6 12/32/6
f 23/35/6 21/33/6 12/32/6
f 21/33/6 24/36/6 8/28/6
f 4/37/6 2/29/6 24/36/6
f 24/36/6 2/29/6 8/28/6
f 25/38/3 26/39/3 27/40/3
f 26/39/3 28/41/3 27/40/3
f 29/42/7 30/43/7 23/44/7
f 30/43/7 21/45/7 23/44/7
f 30/46/5 31/47/5 21/48/5
f 31/47/5 24/49/5 21/48/5
f 4/4/8 24/49/8 15/50/8
f 24/49/8 16/51/8 15/50/8
f 19/52/7 32/53/7 5/5/7
f 18/54/7 14/55/7 19/52/7
f 18/54/7 6/6/7 14/55/7
f 14/55/7 6/6/7 13/56/7
f 32/53/7 13/56/7 5/5/7
f 5/5/7 13/56/7 6/6/7
f 14/55/7 33/57/7 19/52/7
f 33/57/7 32/53/7 19/52/7
f 34/58/8 35/59/8 3/3/8
f 35/59/8 31/47/8 3/3/8
f 36/60/5 28/41/5 20/61/5
f 28/41/5 26/39/5 20/61/5
f 35/59/1 37/56/1 31/47/1
f 37/56/1 17/62/1 31/47/1
f 16/51/1 24/49/1 17/62/1
f 24/49/1 31/47/1 17/62/1
f 3/63/4 26/64/4 1/65/4
f 31/66/4 30/67/4 3/63/4
f 3/63/4 30/67/4 26/64/4
f 30/67/4 29/35/4 26/64/4
f 20/68/4 26/64/4 38/69/4
f 26/64/4 25/70/4 1/65/4
f 20/68/4 19/71/4 25/70/4
f 19/71/4 5/72/4 25/70/4
f 5/72/4 1/65/4 25/70/4
f 26/64/4 29/35/4 38/69/4
f 38/73/1 22/74/1 20/26/1
f 22/74/1 10/25/1 20/26/1
f 32/75/6 27/76/6 34/77/6
f 32/75/6 33/18/6 27/76/6
f 37/22/6 28/78/6 33/18/6
f 37/22/6 35/79/6 28/78/6
f 35/79/6 34/77/6 28/78/6
f 27/76/6 28/78/6 34/77/6
f 33/18/6 28/78/6 36/80/6
f 33/18/6 36/80/6 27/76/6
f 15/50/5 13/81/5 4/4/5
f 34/58/5 3/3/5 32/22/5
f 3/3/5 4/4/5 32/22/5
f 4/4/5 13/81/5 32/22/5
f 25/82/1 27/83/1 20/61/1
f 27/83/1 36/60/1 20/61/1
f 38/84/2 14/55/2 22/85/2
f 29/42/2 37/86/2 38/84/2
f 29/42/2 23/44/2 37/86/2
f 37/86/2 23/44/2 17/22/2
f 37/86/2 33/57/2 38/84/2
f 14/55/2 17/22/2 22/85/2
f 22/85/2 17/22/2 23/44/2
f 38/84/2 33/57/2 14/55/2
f 9/11/5 10/12/5 11/87/5
f 10/12/5 12/13/5 11/87/5
o SmallSilo.001_SmallSilo.000
v -0.182802 0.366521 0.275000
v -0.182802 0.366521 -0.275000
v -0.182802 0.586521 0.275000
v -0.182802 0.586521 -0.275000
v -0.412802 0.366521 0.275000
v -0.412802 0.366521 -0.275000
v -0.182802 0.294575 -0.495000
v -0.182802 0.294575 -0.275000
v -0.182802 -0.183479 -0.495000
v -0.182802 -0.183479 -0.275000
v 0.295253 -0.183479 -0.495000
v 0.295253 -0.183479 -0.275000
v -0.412802 0.586521 -0.495000
v -0.412802 -0.403479 -0.495000
v -0.182802 0.586521 -0.495000
v 0.587198 -0.183479 -0.495000
v 0.587198 -0.403479 -0.495000
v -0.412802 -0.183479 -0.275000
v -0.412802 -0.183479 0.275000
v -0.182802 -0.183479 0.275000
v 0.380762 -0.183479 -0.275000
v -0.182802 -0.403479 -0.275000
v 0.380762 -0.403479 -0.275000
v 0.587198 -0.183479 -0.275000
v -0.182802 0.294575 0.275000
v 0.295253 -0.183479 0.275000
v -0.182802 0.294575 0.495000
v 0.295253 -0.183479 0.495000
v 0.380762 -0.403479 0.275000
v 0.380762 -0.183479 0.275000
v 0.587198 -0.183479 0.275000
v -0.412802 0.586521 0.495000
v -0.412802 -0.403479 0.495000
v -0.182802 0.586521 0.495000
v 0.587198 -0.183479 0.495000
v -0.182802 -0.183479 0.495000
v 0.587198 -0.403479 0.495000
v -0.182802 -0.403479 0.275000
vt 0.416221 0.377152
vt 0.605413 0.377152
vt 0.416221 0.431031
vt 0.605413 0.431031
vt 0.075677 0.053879
vt 0.264868 0.053879
vt 0.075677 0.110207
vt 0.264868 0.110207
vt 0.941898 1.000000
vt 0.866221 1.000000
vt 0.941898 0.882923
vt 0.866221 0.882923
vt 0.866221 0.765845
vt 0.790545 0.765845
vt 0.790545 1.000000
vt 0.000000 0.833705
vt 0.100425 0.754045
vt 0.340545 0.833705
vt 0.000000 0.754045
vt 0.264868 0.487359
vt 0.264868 0.588473
vt 0.340545 0.487359
vt 0.264868 0.754045
vt 0.790545 0.956336
vt 0.734601 0.765845
vt 0.734601 0.956336
vt 0.814868 0.765845
vt 0.853312 0.691898
vt 0.870812 0.709517
vt 0.681090 0.631148
vt 0.737033 0.574820
vt 0.853312 0.457743
vt 0.874111 0.436801
vt 0.683522 0.520941
vt 0.820600 0.382923
vt 0.924323 0.386244
vt 0.924323 0.763396
vt 1.000000 0.000000
vt 1.000000 0.234155
vt 0.924323 0.000000
vt 0.924323 0.234155
vt 0.075677 0.436802
vt 0.075677 0.382923
vt 0.264868 0.436802
vt 0.264868 0.382923
vt 0.416221 0.104436
vt 0.416221 0.053879
vt 0.605413 0.104436
vt 0.605413 0.053879
vt 0.681090 0.431031
vt 0.681090 0.053879
vt 0.075677 0.188576
vt 0.000000 0.000000
vt 0.264868 0.188576
vt 0.340545 0.242455
vt 0.340545 0.000000
vt 0.000000 0.242455
vt 0.340545 0.431031
vt 0.340545 0.053879
vt 0.924323 0.351232
vt 1.000000 0.351232
vt 0.681089 0.000000
vt 0.924323 0.002449
vt 0.853312 0.308102
vt 0.870812 0.056328
vt 0.924323 0.379601
vt 0.874111 0.329044
vt 0.737033 0.191025
vt 0.683522 0.244904
vt 0.853312 0.073948
vt 0.681090 0.134697
vt 0.814868 0.000000
vt 0.681090 0.956336
vt 0.681090 0.765845
vt 0.681090 0.833705
vt 0.580665 0.754045
vt 0.681090 0.754045
vt 0.416221 0.588473
vt 0.416221 0.487359
vt 0.416221 0.754045
vt 0.681090 0.487358
vt 1.000000 0.468310
vt 0.924323 0.468310
vt 0.075677 0.298783
vt 0.264868 0.298783
vt 0.000000 0.487359
vt 0.941898 0.765845
vn 1.000000 0.000000 0.000000
vn 0.000000 -1.000000 0.000000
vn -0.707100 -0.707100 0.000000
vn 0.000000 0.000000 -1.000000
vn -0.000000 1.000000 0.000000
vn 0.000000 0.000000 1.000000
vn -1.000000 -0.000000 0.000000
vn 0.707100 0.707100 0.000000
usemtl None
s off
f 39/88/9 40/89/9 41/90/9
f 40/89/9 42/91/9 41/90/9
f 43/92/10 44/93/10 39/94/10
f 44/93/10 40/95/10 39/94/10
f 45/96/9 46/97/9 47/98/9
f 46/97/9 48/99/9 47/98/9
f 45/100/11 49/97/11 46/101/11
f 49/97/11 50/102/11 46/101/11
f 51/103/12 45/104/12 52/105/12
f 51/103/12 53/106/12 45/104/12
f 53/106/12 54/107/12 45/104/12
f 45/104/12 54/107/12 49/108/12
f 54/107/12 55/109/12 49/108/12
f 45/104/12 47/110/12 52/105/12
f 52/105/12 47/110/12 49/108/12
f 52/105/12 49/108/12 55/109/12
f 56/101/13 57/111/13 48/112/13
f 57/111/13 58/113/13 48/112/13
f 44/114/14 46/115/14 40/116/14
f 44/114/14 56/117/14 46/115/14
f 56/117/14 48/118/14 46/115/14
f 50/119/14 59/120/14 46/115/14
f 48/118/14 60/121/14 50/119/14
f 60/121/14 61/122/14 50/119/14
f 61/122/14 59/120/14 50/119/14
f 59/120/14 62/123/14 46/115/14
f 42/124/14 40/116/14 62/123/14
f 62/123/14 40/116/14 46/115/14
f 63/125/11 64/126/11 65/127/11
f 64/126/11 66/128/11 65/127/11
f 67/129/15 68/130/15 61/131/15
f 68/130/15 59/132/15 61/131/15
f 68/133/13 69/134/13 59/135/13
f 69/134/13 62/136/13 59/135/13
f 42/91/16 62/136/16 53/137/16
f 62/136/16 54/138/16 53/137/16
f 57/139/15 70/140/15 43/92/15
f 56/141/15 52/142/15 57/139/15
f 56/141/15 44/93/15 52/142/15
f 52/142/15 44/93/15 51/143/15
f 70/140/15 51/143/15 43/92/15
f 43/92/15 51/143/15 44/93/15
f 52/142/15 71/144/15 57/139/15
f 71/144/15 70/140/15 57/139/15
f 72/145/16 73/146/16 41/90/16
f 73/146/16 69/134/16 41/90/16
f 74/147/13 66/128/13 58/148/13
f 66/128/13 64/126/13 58/148/13
f 73/146/9 75/143/9 69/134/9
f 75/143/9 55/149/9 69/134/9
f 54/138/9 62/136/9 55/149/9
f 62/136/9 69/134/9 55/149/9
f 41/150/12 64/151/12 39/152/12
f 69/153/12 68/154/12 41/150/12
f 41/150/12 68/154/12 64/151/12
f 68/154/12 67/122/12 64/151/12
f 58/155/12 64/151/12 76/156/12
f 64/151/12 63/157/12 39/152/12
f 58/155/12 57/158/12 63/157/12
f 57/158/12 43/159/12 63/157/12
f 43/159/12 39/152/12 63/157/12
f 64/151/12 67/122/12 76/156/12
f 76/160/9 60/161/9 58/113/9
f 60/161/9 48/112/9 58/113/9
f 70/162/14 65/163/14 72/164/14
f 70/162/14 71/105/14 65/163/14
f 75/109/14 66/165/14 71/105/14
f 75/109/14 73/166/14 66/165/14
f 73/166/14 72/164/14 66/165/14
f 65/163/14 66/165/14 72/164/14
f 71/105/14 66/165/14 74/167/14
f 71/105/14 74/167/14 65/163/14
f 53/137/13 51/168/13 42/91/13
f 72/145/13 41/90/13 70/109/13
f 41/90/13 42/91/13 70/109/13
f 42/91/13 51/168/13 70/109/13
f 63/169/9 65/170/9 58/148/9
f 65/170/9 74/147/9 58/148/9
f 76/171/10 52/142/10 60/172/10
f 67/129/10 75/173/10 76/171/10
f 67/129/10 61/131/10 75/173/10
f 75/173/10 61/131/10 55/109/10
f 75/173/10 71/144/10 76/171/10
f 52/142/10 55/109/10 60/172/10
f 60/172/10 55/109/10 61/131/10
f 76/171/10 71/144/10 52/142/10
f 47/98/13 48/99/13 49/174/13
f 48/99/13 50/100/13 49/174/13
o SmallSilo.002
v 0.275000 0.366521 0.182802
v -0.275000 0.366521 0.182802
v 0.275000 0.586521 0.182802
v -0.275000 0.586521 0.182802
v 0.275000 0.366521 0.412802
v -0.275000 0.366521 0.412802
v -0.495000 0.294575 0.182802
v -0.275000 0.294575 0.182802
v -0.495000 -0.183479 0.182802
v -0.275000 -0.183479 0.182802
v -0.495000 -0.183479 -0.295253
v -0.275000 -0.183479 -0.295253
v -0.495000 0.586521 0.412802
v -0.495000 -0.403479 0.412802
v -0.495000 0.586521 0.182802
v -0.495000 -0.183479 -0.587198
v -0.495000 -0.403479 -0.587198
v -0.275000 -0.183479 0.412802
v 0.275000 -0.183479 0.412802
v 0.275000 -0.183479 0.182802
v -0.275000 -0.183479 -0.380762
v -0.275000 -0.403479 0.182802
v -0.275000 -0.403479 -0.380762
v -0.275000 -0.183479 -0.587198
v 0.275000 0.294575 0.182802
v 0.275000 -0.183479 -0.295253
v 0.495000 0.294575 0.182802
v 0.495000 -0.183479 -0.295253
v 0.275000 -0.403479 -0.380762
v 0.275000 -0.183479 -0.380762
v 0.275000 -0.183479 -0.587198
v 0.495000 0.586521 0.412802
v 0.495000 -0.403479 0.412802
v 0.495000 0.586521 0.182802
v 0.495000 -0.183479 -0.587198
v 0.495000 -0.183479 0.182802
v 0.495000 -0.403479 -0.587198
v 0.275000 -0.403479 0.182802
vt 0.416221 0.377152
vt 0.605413 0.377152
vt 0.416221 0.431031
vt 0.605413 0.431031
vt 0.075677 0.053879
vt 0.264868 0.053879
vt 0.075677 0.110207
vt 0.264868 0.110207
vt 0.941898 1.000000
vt 0.866221 1.000000
vt 0.941898 0.882923
vt 0.866221 0.882923
vt 0.866221 0.765845
vt 0.790545 0.765845
vt 0.790545 1.000000
vt 0.000000 0.833705
vt 0.100425 0.754045
vt 0.340545 0.833705
vt 0.000000 0.754045
vt 0.264868 0.487359
vt 0.264868 0.588473
vt 0.340545 0.487359
vt 0.264868 0.754045
vt 0.790545 0.956336
vt 0.734601 0.765845
vt 0.734601 0.956336
vt 0.814868 0.765845
vt 0.853312 0.691898
vt 0.870812 0.709517
vt 0.681090 0.631148
vt 0.737033 0.574820
vt 0.853312 0.457743
vt 0.874111 0.436801
vt 0.683522 0.520941
vt 0.820600 0.382923
vt 0.924323 0.386244
vt 0.924323 0.763396
vt 1.000000 0.000000
vt 1.000000 0.234155
vt 0.924323 0.000000
vt 0.924323 0.234155
vt 0.075677 0.436802
vt 0.075677 0.382923
vt 0.264868 0.436802
vt 0.264868 0.382923
vt 0.416221 0.104436
vt 0.416221 0.053879
vt 0.605413 0.104436
vt 0.605413 0.053879
vt 0.681090 0.431031
vt 0.681090 0.053879
vt 0.075677 0.188576
vt 0.000000 0.000000
vt 0.264868 0.188576
vt 0.340545 0.242455
vt 0.340545 0.000000
vt 0.000000 0.242455
vt 0.340545 0.431031
vt 0.340545 0.053879
vt 0.924323 0.351232
vt 1.000000 0.351232
vt 0.681089 0.000000
vt 0.924323 0.002449
vt 0.853312 0.308102
vt 0.870812 0.056328
vt 0.924323 0.379601
vt 0.874111 0.329044
vt 0.737033 0.191025
vt 0.683522 0.244904
vt 0.853312 0.073948
vt 0.681090 0.134697
vt 0.814868 0.000000
vt 0.681090 0.956336
vt 0.681090 0.765845
vt 0.681090 0.833705
vt 0.580665 0.754045
vt 0.681090 0.754045
vt 0.416221 0.588473
vt 0.416221 0.487359
vt 0.416221 0.754045
vt 0.681090 0.487358
vt 1.000000 0.468310
vt 0.924323 0.468310
vt 0.075677 0.298783
vt 0.264868 0.298783
vt 0.000000 0.487359
vt 0.941898 0.765845
vn -0.000000 0.000000 -1.000000
vn 0.000000 -1.000000 0.000000
vn 0.000000 -0.707100 0.707100
vn -1.000000 0.000000 0.000000
vn -0.000000 1.000000 -0.000000
vn 1.000000 0.000000 -0.000000
vn 0.000000 0.000000 1.000000
vn -0.000000 0.707100 -0.707100
usemtl None
s off
f 77/175/17 78/176/17 79/177/17
f 78/176/17 80/178/17 79/177/17
f 81/179/18 82/180/18 77/181/18
f 82/180/18 78/182/18 77/181/18
f 83/183/17 84/184/17 85/185/17
f 84/184/17 86/186/17 85/185/17
f 83/187/19 87/184/19 84/188/19
f 87/184/19 88/189/19 84/188/19
f 89/190/20 83/191/20 90/192/20
f 89/190/20 91/193/20 83/191/20
f 91/193/20 92/194/20 83/191/20
f 83/191/20 92/194/20 87/195/20
f 92/194/20 93/196/20 87/195/20
f 83/191/20 85/197/20 90/192/20
f 90/192/20 85/197/20 87/195/20
f 90/192/20 87/195/20 93/196/20
f 94/188/21 95/198/21 86/199/21
f 95/198/21 96/200/21 86/199/21
f 82/201/22 84/202/22 78/203/22
f 82/201/22 94/204/22 84/202/22
f 94/204/22 86/205/22 84/202/22
f 88/206/22 97/207/22 84/202/22
f 86/205/22 98/208/22 88/206/22
f 98/208/22 99/209/22 88/206/22
f 99/209/22 97/207/22 88/206/22
f 97/207/22 100/210/22 84/202/22
f 80/211/22 78/203/22 100/210/22
f 100/210/22 78/203/22 84/202/22
f 101/212/19 102/213/19 103/214/19
f 102/213/19 104/215/19 103/214/19
f 105/216/23 106/217/23 99/218/23
f 106/217/23 97/219/23 99/218/23
f 106/220/21 107/221/21 97/222/21
f 107/221/21 100/223/21 97/222/21
f 80/178/24 100/223/24 91/224/24
f 100/223/24 92/225/24 91/224/24
f 95/226/23 108/227/23 81/179/23
f 94/228/23 90/229/23 95/226/23
f 94/228/23 82/180/23 90/229/23
f 90/229/23 82/180/23 89/230/23
f 108/227/23 89/230/23 81/179/23
f 81/179/23 89/230/23 82/180/23
f 90/229/23 109/231/23 95/226/23
f 109/231/23 108/227/23 95/226/23
f 110/232/24 111/233/24 79/177/24
f 111/233/24 107/221/24 79/177/24
f 112/234/21 104/215/21 96/235/21
f 104/215/21 102/213/21 96/235/21
f 111/233/17 113/230/17 107/221/17
f 113/230/17 93/236/17 107/221/17
f 92/225/17 100/223/17 93/236/17
f 100/223/17 107/221/17 93/236/17
f 79/237/20 102/238/20 77/239/20
f 107/240/20 106/241/20 79/237/20
f 79/237/20 106/241/20 102/238/20
f 106/241/20 105/209/20 102/238/20
f 96/242/20 102/238/20 114/243/20
f 102/238/20 101/244/20 77/239/20
f 96/242/20 95/245/20 101/244/20
f 95/245/20 81/246/20 101/244/20
f 81/246/20 77/239/20 101/244/20
f 102/238/20 105/209/20 114/243/20
f 114/247/17 98/248/17 96/200/17
f 98/248/17 86/199/17 96/200/17
f 108/249/22 103/250/22 110/251/22
f 108/249/22 109/192/22 103/250/22
f 113/196/22 104/252/22 109/192/22
f 113/196/22 111/253/22 104/252/22
f 111/253/22 110/251/22 104/252/22
f 103/250/22 104/252/22 110/251/22
f 109/192/22 104/252/22 112/254/22
f 109/192/22 112/254/22 103/250/22
f 91/224/21 89/255/21 80/178/21
f 110/232/21 79/177/21 108/196/21
f 79/177/21 80/178/21 108/196/21
f 80/178/21 89/255/21 108/196/21
f 101/256/17 103/257/17 96/235/17
f 103/257/17 112/234/17 96/235/17
f 114/258/18 90/229/18 98/259/18
f 105/216/18 113/260/18 114/258/18
f 105/216/18 99/218/18 113/260/18
f 113/260/18 99/218/18 93/196/18
f 113/260/18 109/231/18 114/258/18
f 90/229/18 93/196/18 98/259/18
f 98/259/18 93/196/18 99/218/18
f 114/258/18 109/231/18 90/229/18
f 85/185/21 86/186/21 87/261/21
f 86/186/21 88/187/21 87/261/21
o SmallSilo.003
v -0.275000 0.366521 -0.182802
v 0.275000 0.366521 -0.182802
v -0.275000 0.586521 -0.182802
v 0.275000 0.586521 -0.182802
v -0.275000 0.366521 -0.412802
v 0.275000 0.366521 -0.412802
v 0.495000 0.294575 -0.182802
v 0.275000 0.294575 -0.182802
v 0.495000 -0.183479 -0.182802
v 0.275000 -0.183479 -0.182802
v 0.495000 -0.183479 0.295253
v 0.275000 -0.183479 0.295253
v 0.495000 0.586521 -0.412802
v 0.495000 -0.403479 -0.412802
v 0.495000 0.586521 -0.182802
v 0.495000 -0.183479 0.587198
v 0.495000 -0.403479 0.587198
v 0.275000 -0.183479 -0.412802
v -0.275000 -0.183479 -0.412802
v -0.275000 -0.183479 -0.182802
v 0.275000 -0.183479 0.380762
v 0.275000 -0.403479 -0.182802
v 0.275000 -0.403479 0.380762
v 0.275000 -0.183479 0.587198
v -0.275000 0.294575 -0.182802
v -0.275000 -0.183479 0.295253
v -0.495000 0.294575 -0.182802
v -0.495000 -0.183479 0.295253
v -0.275000 -0.403479 0.380762
v -0.275000 -0.183479 0.380762
v -0.275000 -0.183479 0.587198
v -0.495000 0.586521 -0.412802
v -0.495000 -0.403479 -0.412802
v -0.495000 0.586521 -0.182802
v -0.495000 -0.183479 0.587198
v -0.495000 -0.183479 -0.182802
v -0.495000 -0.403479 0.587198
v -0.275000 -0.403479 -0.182802
vt 0.416221 0.377152
vt 0.605413 0.377152
vt 0.416221 0.431031
vt 0.605413 0.431031
vt 0.075677 0.053879
vt 0.264868 0.053879
vt 0.075677 0.110207
vt 0.264868 0.110207
vt 0.941898 1.000000
vt 0.866221 1.000000
vt 0.941898 0.882923
vt 0.866221 0.882923
vt 0.866221 0.765845
vt 0.790545 0.765845
vt 0.790545 1.000000
vt 0.000000 0.833705
vt 0.100425 0.754045
vt 0.340545 0.833705
vt 0.000000 0.754045
vt 0.264868 0.487359
vt 0.264868 0.588473
vt 0.340545 0.487359
vt 0.264868 0.754045
vt 0.790545 0.956336
vt 0.734601 0.765845
vt 0.734601 0.956336
vt 0.814868 0.765845
vt 0.853312 0.691898
vt 0.870812 0.709517
vt 0.681090 0.631148
vt 0.737033 0.574820
vt 0.853312 0.457743
vt 0.874111 0.436801
vt 0.683522 0.520941
vt 0.820600 0.382923
vt 0.924323 0.386244
vt 0.924323 0.763396
vt 1.000000 0.000000
vt 1.000000 0.234155
vt 0.924323 0.000000
vt 0.924323 0.234155
vt 0.075677 0.436802
vt 0.075677 0.382923
vt 0.264868 0.436802
vt 0.264868 0.382923
vt 0.416221 0.104436
vt 0.416221 0.053879
vt 0.605413 0.104436
vt 0.605413 0.053879
vt 0.681090 0.431031
vt 0.681090 0.053879
vt 0.075677 0.188576
vt 0.000000 0.000000
vt 0.264868 0.188576
vt 0.340545 0.242455
vt 0.340545 0.000000
vt 0.000000 0.242455
vt 0.340545 0.431031
vt 0.340545 0.053879
vt 0.924323 0.351232
vt 1.000000 0.351232
vt 0.681089 0.000000
vt 0.924323 0.002449
vt 0.853312 0.308102
vt 0.870812 0.056328
vt 0.924323 0.379601
vt 0.874111 0.329044
vt 0.737033 0.191025
vt 0.683522 0.244904
vt 0.853312 0.073948
vt 0.681090 0.134697
vt 0.814868 0.000000
vt 0.681090 0.956336
vt 0.681090 0.765845
vt 0.681090 0.833705
vt 0.580665 0.754045
vt 0.681090 0.754045
vt 0.416221 0.588473
vt 0.416221 0.487359
vt 0.416221 0.754045
vt 0.681090 0.487358
vt 1.000000 0.468310
vt 0.924323 0.468310
vt 0.075677 0.298783
vt 0.264868 0.298783
vt 0.000000 0.487359
vt 0.941898 0.765845
vn -0.000000 0.000000 1.000000
vn 0.000000 -1.000000 0.000000
vn 0.000000 -0.707100 -0.707100
vn 1.000000 0.000000 0.000000
vn -0.000000 1.000000 0.000000
vn -1.000000 0.000000 -0.000000
vn 0.000000 0.000000 -1.000000
vn -0.000000 0.707100 0.707100
usemtl None
s off
f 115/262/25 116/263/25 117/264/25
f 116/263/25 118/265/25 117/264/25
f 119/266/26 120/267/26 115/268/26
f 120/267/26 116/269/26 115/268/26
f 121/270/25 122/271/25 123/272/25
f 122/271/25 124/273/25 123/272/25
f 121/274/27 125/271/27 122/275/27
f 125/271/27 126/276/27 122/275/27
f 127/277/28 121/278/28 128/279/28
f 127/277/28 129/280/28 121/278/28
f 129/280/28 130/281/28 121/278/28
f 121/278/28 130/281/28 125/282/28
f 130/281/28 131/283/28 125/282/28
f 121/278/28 123/284/28 128/279/28
f 128/279/28 123/284/28 125/282/28
f 128/279/28 125/282/28 131/283/28
f 132/275/29 133/285/29 124/286/29
f 133/285/29 134/287/29 124/286/29
f 120/288/30 122/289/30 116/290/30
f 120/288/30 132/291/30 122/289/30
f 132/291/30 124/292/30 122/289/30
f 126/293/30 135/294/30 122/289/30
f 124/292/30 136/295/30 126/293/30
f 136/295/30 137/296/30 126/293/30
f 137/296/30 135/294/30 126/293/30
f 135/294/30 138/297/30 122/289/30
f 118/298/30 116/290/30 138/297/30
f 138/297/30 116/290/30 122/289/30
f 139/299/27 140/300/27 141/301/27
f 140/300/27 142/302/27 141/301/27
f 143/303/31 144/304/31 137/305/31
f 144/304/31 135/306/31 137/305/31
f 144/307/29 145/308/29 135/309/29
f 145/308/29 138/310/29 135/309/29
f 118/265/32 138/310/32 129/311/32
f 138/310/32 130/312/32 129/311/32
f 133/313/31 146/314/31 119/266/31
f 132/315/31 128/316/31 133/313/31
f 132/315/31 120/267/31 128/316/31
f 128/316/31 120/267/31 127/317/31
f 146/314/31 127/317/31 119/266/31
f 119/266/31 127/317/31 120/267/31
f 128/316/31 147/318/31 133/313/31
f 147/318/31 146/314/31 133/313/31
f 148/319/32 149/320/32 117/264/32
f 149/320/32 145/308/32 117/264/32
f 150/321/29 142/302/29 134/322/29
f 142/302/29 140/300/29 134/322/29
f 149/320/25 151/317/25 145/308/25
f 151/317/25 131/323/25 145/308/25
f 130/312/25 138/310/25 131/323/25
f 138/310/25 145/308/25 131/323/25
f 117/324/28 140/325/28 115/326/28
f 145/327/28 144/328/28 117/324/28
f 117/324/28 144/328/28 140/325/28
f 144/328/28 143/296/28 140/325/28
f 134/329/28 140/325/28 152/330/28
f 140/325/28 139/331/28 115/326/28
f 134/329/28 133/332/28 139/331/28
f 133/332/28 119/333/28 139/331/28
f 119/333/28 115/326/28 139/331/28
f 140/325/28 143/296/28 152/330/28
f 152/334/25 136/335/25 134/287/25
f 136/335/25 124/286/25 134/287/25
f 146/336/30 141/337/30 148/338/30
f 146/336/30 147/279/30 141/337/30
f 151/283/30 142/339/30 147/279/30
f 151/283/30 149/340/30 142/339/30
f 149/340/30 148/338/30 142/339/30
f 141/337/30 142/339/30 148/338/30
f 147/279/30 142/339/30 150/341/30
f 147/279/30 150/341/30 141/337/30
f 129/311/29 127/342/29 118/265/29
f 148/319/29 117/264/29 146/283/29
f 117/264/29 118/265/29 146/283/29
f 118/265/29 127/342/29 146/283/29
f 139/343/25 141/344/25 134/322/25
f 141/344/25 150/321/25 134/322/25
f 152/345/26 128/316/26 136/346/26
f 143/303/26 151/347/26 152/345/26
f 143/303/26 137/305/26 151/347/26
f 151/347/26 137/305/26 131/283/26
f 151/347/26 147/318/26 152/345/26
f 128/316/26 131/283/26 136/346/26
f 136/346/26 131/283/26 137/305/26
f 152/345/26 147/318/26 128/316/26
f 123/272/29 124/273/29 125/348/29
f 124/273/29 126/274/29 125/348/29
