# Blender v2.74 (sub 0) OBJ File: 'mediumlauncher1 (1).blend'
# www.blender.org
mtllib Missile_Standard.mtl
o SmallSilo.001_SmallSilo.002
v 1.508987 0.934234 -1.568344
v 1.508987 0.784589 -1.564808
v 1.508987 0.772089 -1.460247
v 1.508987 0.490248 -1.564808
v 1.508987 0.647089 -1.460247
v 1.540237 0.490505 -1.564636
v 1.540237 0.647089 -1.460247
v 1.540237 0.772089 -1.460247
v 1.540237 0.933968 -1.568166
v 1.540237 0.784589 -1.564636
v 1.478719 0.784589 -1.564974
v 1.565485 2.009589 -1.593445
v 1.570594 0.784589 -1.564470
v 1.483818 2.009589 -1.593893
v 1.783029 0.931964 -1.840872
v 1.785978 0.927539 -1.825247
v 1.889612 0.772089 -1.840872
v 1.783029 0.931964 -1.809622
v 1.889612 0.772089 -1.809622
v 1.786568 0.784589 -1.809622
v 1.786568 0.492524 -1.809622
v 1.889612 0.647089 -1.809622
v 1.889612 0.647089 -1.840872
v 1.786568 0.492524 -1.840872
v 1.789412 0.496789 -1.825247
v 1.786568 0.784589 -1.840872
v 1.759990 2.009589 -1.825247
v 1.772962 0.784589 -1.915639
v 1.745367 2.009589 -1.905595
v 1.789412 0.459589 -1.825247
v 1.772962 0.459589 -1.915639
v 1.266535 0.932474 -1.809622
v 1.263769 0.928325 -1.825247
v 1.159612 0.772089 -1.809622
v 1.266535 0.932474 -1.840872
v 1.159612 0.772089 -1.840872
v 1.262990 0.784589 -1.840872
v 1.262990 0.492022 -1.840872
v 1.159612 0.647089 -1.840872
v 1.159612 0.647089 -1.809622
v 1.262990 0.492022 -1.809622
v 1.260323 0.496022 -1.825247
v 1.262990 0.784589 -1.809622
v 1.289689 2.009589 -1.825247
v 1.275781 0.784589 -1.734680
v 1.303429 2.009589 -1.744743
v 1.260323 0.459589 -1.825247
v 1.275781 0.459589 -1.734680
v 1.540237 0.933968 -2.082328
v 1.540237 0.784589 -2.085858
v 1.540237 0.772089 -2.190247
v 1.540237 0.490505 -2.085858
v 1.540237 0.647089 -2.190247
v 1.508987 0.490248 -2.085686
v 1.508987 0.647089 -2.190247
v 1.508987 0.772089 -2.190247
v 1.508987 0.934234 -2.082150
v 1.508987 0.784589 -2.085686
v 1.570594 0.784589 -2.086024
v 1.565485 2.009589 -2.057049
v 1.478719 0.784589 -2.085520
v 1.483818 2.009589 -2.056601
v 1.755846 2.727830 -1.825247
v 1.752990 2.729972 -1.840872
v 1.752634 3.284589 -1.825247
v 1.755553 2.285800 -1.840872
v 1.758396 2.285800 -1.825247
v 1.738469 3.284589 -1.903085
v 1.291279 2.285800 -1.825247
v 1.293946 2.285800 -1.840872
v 1.303429 2.009589 -1.905751
v 1.293826 2.728166 -1.825247
v 1.297030 3.284589 -1.825247
v 1.296505 2.730175 -1.840872
v 1.310341 3.284589 -1.903235
v 1.485093 3.284589 -1.601123
v 1.508987 2.730706 -1.597848
v 1.564207 3.284589 -1.600689
v 1.540237 2.285800 -1.595151
v 1.540237 2.730577 -1.597676
v 1.508987 2.285800 -1.595323
v 1.540237 2.730577 -2.052818
v 1.564207 3.284589 -2.049805
v 1.540237 2.285800 -2.055343
v 1.485093 3.284589 -2.049371
v 1.508987 2.730706 -2.052646
v 1.508987 2.285800 -2.055171
v 1.656756 0.459589 -1.596366
v 1.656756 0.784589 -1.596366
v 1.570594 0.459589 -1.564470
v 1.727460 0.459589 -1.655037
v 1.727460 0.784589 -1.655037
v 1.772962 0.459589 -1.734855
v 1.772962 0.784589 -1.734855
v 1.727460 0.459589 -1.995457
v 1.727460 0.784589 -1.995457
v 1.656756 0.459589 -2.054127
v 1.656756 0.784589 -2.054127
v 1.570594 0.459589 -2.086024
v 1.478719 0.459589 -1.564974
v 1.478719 0.459589 -2.085520
v 1.392212 0.459589 -2.054570
v 1.392212 0.784589 -2.054570
v 1.322155 0.459589 -1.995128
v 1.322155 0.784589 -1.995128
v 1.275781 0.459589 -1.915814
v 1.275781 0.784589 -1.915814
v 1.322155 0.459589 -1.655366
v 1.322155 0.784589 -1.655366
v 1.392212 0.459589 -1.595923
v 1.392212 0.784589 -1.595923
v 1.642073 2.009589 -2.028696
v 1.704922 2.009589 -1.976545
v 1.699287 3.284589 -1.971817
v 1.638403 3.284589 -2.022339
v 1.406923 2.009589 -2.029090
v 1.410601 3.284589 -2.022720
v 1.344650 2.009589 -1.976253
v 1.350274 3.284589 -1.971534
v 1.293946 2.285800 -1.809622
v 1.296505 2.730175 -1.809622
v 1.310341 3.284589 -1.747259
v 1.406923 2.009589 -1.621404
v 1.344650 2.009589 -1.674241
v 1.350274 3.284589 -1.678960
v 1.410601 3.284589 -1.627774
v 1.704922 2.009589 -1.673949
v 1.642073 2.009589 -1.621798
v 1.638403 3.284589 -1.628155
v 1.699287 3.284589 -1.678677
v 1.745367 2.009589 -1.744898
v 1.738469 3.284589 -1.747409
v 1.752990 2.729972 -1.809622
v 1.755553 2.285800 -1.809622
v 1.602797 4.834589 -1.759642
v 1.634990 4.759589 -1.785073
v 1.626676 4.834589 -1.825247
v 1.524612 5.192922 -1.825247
v 1.683280 4.422089 -1.767496
v 1.689883 4.440839 -1.825247
v 1.651217 4.440839 -1.719012
v 1.542335 4.834589 -1.724734
v 1.583343 4.759589 -1.723522
v 1.609037 4.422089 -1.679018
v 1.553311 4.440839 -1.662486
v 1.473580 4.834589 -1.736857
v 1.504215 4.759589 -1.709570
v 1.495291 4.422089 -1.658961
v 1.441976 4.440839 -1.682118
v 1.428703 4.834589 -1.790339
v 1.434631 4.759589 -1.749744
v 1.395265 4.422089 -1.716712
v 1.369307 4.440839 -1.768721
v 1.428703 4.834589 -1.860155
v 1.407150 4.759589 -1.825247
v 1.355761 4.422089 -1.825247
v 1.369307 4.440839 -1.881773
v 1.473580 4.834589 -1.913637
v 1.434631 4.759589 -1.900750
v 1.395265 4.422089 -1.933782
v 1.441976 4.440839 -1.968376
v 1.542335 4.834589 -1.925760
v 1.504215 4.759589 -1.940924
v 1.495291 4.422089 -1.991533
v 1.553311 4.440839 -1.988008
v 1.602797 4.834589 -1.890852
v 1.583343 4.759589 -1.926972
v 1.609037 4.422089 -1.971476
v 1.651217 4.440839 -1.931481
v 1.634990 4.759589 -1.865421
v 1.683280 4.422089 -1.882997
v 1.560376 4.009589 -1.622420
v 1.627391 4.009589 -1.647229
v 1.682383 4.009589 -1.692861
v 1.421634 4.009589 -1.646884
v 1.488917 4.009589 -1.622812
v 1.331077 4.009589 -1.754806
v 1.367146 4.009589 -1.693117
v 1.331077 4.009589 -1.895688
v 1.319054 4.009589 -1.825247
v 1.421634 4.009589 -2.003610
v 1.367146 4.009589 -1.957377
v 1.560376 4.009589 -2.028074
v 1.488917 4.009589 -2.027682
v 1.682383 4.009589 -1.957633
v 1.627391 4.009589 -2.003265
v 1.717773 4.009589 -1.754942
v 1.730567 4.009589 -1.825247
v 1.717773 4.009589 -1.895552
v 1.508987 2.285800 -2.325247
v 1.540237 2.285800 -2.325247
v 1.508987 2.526256 -2.325247
v 1.540237 2.526256 -2.325247
v 1.024612 2.526256 -1.809622
v 1.024612 2.285800 -1.809622
v 1.024612 2.526256 -1.840872
v 1.024612 2.285800 -1.840872
v 2.024612 2.526256 -1.809622
v 2.024612 2.285800 -1.809622
v 2.024612 2.285800 -1.840872
v 2.024612 2.526256 -1.840872
v 1.508987 2.285800 -1.325247
v 1.540237 2.285800 -1.325247
v 1.540237 2.526256 -1.325247
v 1.508987 2.526256 -1.325247
vn -1.000000 0.000000 0.000000
vn 0.000000 -0.554700 0.832000
vn 0.000000 -0.554700 0.832100
vn 0.000000 0.000000 1.000000
vn 0.000000 0.554700 0.832100
vn 0.000000 0.554700 0.832000
vn 1.000000 0.000000 0.000000
vn -0.005500 0.023600 0.999700
vn 0.832000 0.554700 0.000000
vn 0.832100 0.554700 0.000000
vn 0.832100 -0.554700 -0.000000
vn 0.832000 -0.554700 0.000000
vn 0.000000 0.000000 -1.000000
vn 0.983600 0.023600 -0.179000
vn 0.983800 0.000000 -0.179000
vn 0.983800 0.000000 -0.179100
vn -0.832100 0.554700 0.000000
vn -0.832000 0.554700 0.000000
vn -0.832100 -0.554700 0.000000
vn -0.832000 -0.554700 0.000000
vn -0.985500 0.023600 0.168200
vn -0.985700 0.000000 0.168200
vn -0.000000 -0.554700 -0.832000
vn 0.000000 -0.554700 -0.832100
vn -0.000000 0.554700 -0.832100
vn 0.000000 0.554700 -0.832000
vn -0.005500 0.023600 -0.999700
vn 0.983800 0.005700 -0.179000
vn -0.985700 0.005700 -0.168300
vn -0.985700 0.005700 -0.168200
vn -0.005500 0.005700 1.000000
vn -0.005500 0.005700 -1.000000
vn 0.347200 0.000000 0.937800
vn 0.638600 0.000000 0.769600
vn 0.868800 0.000000 0.495200
vn 0.983800 0.000000 0.179000
vn 0.983800 0.000000 0.179100
vn 0.868800 0.000000 -0.495200
vn 0.638600 0.000000 -0.769600
vn 0.347200 0.000000 -0.937800
vn -0.005500 0.000000 1.000000
vn -0.005500 0.000000 -1.000000
vn -0.336900 0.000000 -0.941600
vn -0.647000 0.000000 -0.762500
vn -0.863300 0.000000 -0.504700
vn -0.985700 0.000000 -0.168200
vn -0.863300 0.000000 0.504700
vn -0.647000 0.000000 0.762500
vn -0.336900 0.000000 0.941600
vn 0.000000 -1.000000 0.000000
vn 0.347100 0.023600 -0.937500
vn 0.638400 0.023600 -0.769300
vn 0.638600 0.005700 -0.769500
vn 0.347200 0.005700 -0.937800
vn -0.336800 0.023600 -0.941300
vn -0.336900 0.005700 -0.941500
vn -0.863000 0.023600 -0.504600
vn -0.646800 0.023600 -0.762300
vn -0.647000 0.005700 -0.762500
vn -0.863300 0.005700 -0.504700
vn -0.985500 0.023600 -0.168200
vn -0.985700 0.005700 0.168200
vn -0.646800 0.023600 0.762300
vn -0.863000 0.023600 0.504600
vn -0.863300 0.005700 0.504700
vn -0.647000 0.005700 0.762500
vn -0.336800 0.023600 0.941300
vn -0.336900 0.005700 0.941500
vn 0.638400 0.023600 0.769300
vn 0.347100 0.023600 0.937500
vn 0.347200 0.005700 0.937800
vn 0.638600 0.005700 0.769500
vn 0.868700 0.005700 -0.495200
vn 0.868500 0.023600 -0.495100
vn 0.983600 0.023600 0.179000
vn 0.868500 0.023600 0.495100
vn 0.868700 0.005700 0.495200
vn 0.983800 0.005700 0.179000
vn 0.903100 0.276200 0.328700
vn 0.907700 0.258600 0.330400
vn 0.976000 0.148000 0.159600
vn 0.983200 0.157800 0.091200
vn 0.811800 0.157800 0.562200
vn 0.850300 0.148000 0.505100
vn 0.480600 0.276200 0.832300
vn 0.483000 0.258600 0.836600
vn 0.645100 0.148000 0.749700
vn 0.694600 0.157800 0.701900
vn 0.260500 0.157800 0.952500
vn 0.326700 0.148000 0.933500
vn -0.166900 0.276200 0.946500
vn -0.167700 0.258600 0.951300
vn 0.012300 0.148000 0.988900
vn 0.080900 0.157800 0.984100
vn -0.412700 0.157800 0.897100
vn -0.349800 0.148000 0.925100
vn -0.736200 0.276200 0.617800
vn -0.740000 0.258600 0.620900
vn -0.626300 0.148000 0.765400
vn -0.570600 0.157800 0.805900
vn -0.892800 0.157800 0.422000
vn -0.862600 0.148000 0.483800
vn -0.961100 0.276200 0.000000
vn -0.966000 0.258600 0.000000
vn -0.971800 0.148000 0.183800
vn -0.955100 0.157800 0.250600
vn -0.955100 0.157800 -0.250600
vn -0.971800 0.148000 -0.183800
vn -0.736200 0.276200 -0.617800
vn -0.740000 0.258600 -0.620900
vn -0.862600 0.148000 -0.483800
vn -0.892800 0.157800 -0.422000
vn -0.570600 0.157800 -0.805900
vn -0.626300 0.148000 -0.765400
vn -0.166900 0.276200 -0.946500
vn -0.167700 0.258600 -0.951300
vn -0.349800 0.148000 -0.925100
vn -0.412700 0.157800 -0.897100
vn 0.080900 0.157800 -0.984100
vn 0.012300 0.148000 -0.988900
vn 0.480600 0.276200 -0.832300
vn 0.483000 0.258600 -0.836600
vn 0.326700 0.148000 -0.933500
vn 0.260500 0.157800 -0.952500
vn 0.694600 0.157800 -0.701900
vn 0.645100 0.148000 -0.749700
vn 0.903100 0.276200 -0.328700
vn 0.907700 0.258600 -0.330400
vn 0.850300 0.148000 -0.505100
vn 0.811800 0.157800 -0.562200
vn 0.983200 0.157800 -0.091200
vn 0.976000 0.148000 -0.159600
vn 0.345800 0.087400 0.934200
vn 0.311800 0.093000 0.945600
vn 0.636100 0.087400 0.766600
vn 0.663000 0.093000 0.742800
vn 0.638300 0.029900 0.769200
vn 0.347000 0.029900 0.937400
vn -0.335600 0.087400 0.938000
vn -0.369000 0.093000 0.924800
vn -0.005500 0.087400 0.996200
vn 0.030400 0.093000 0.995200
vn -0.005500 0.029900 0.999500
vn -0.336700 0.029900 0.941100
vn -0.860000 0.087400 0.502800
vn -0.877100 0.093000 0.471300
vn -0.644500 0.087400 0.759600
vn -0.616400 0.093000 0.781900
vn -0.646700 0.029900 0.762200
vn -0.862900 0.029900 0.504500
vn -0.982000 0.087400 -0.167600
vn -0.974800 0.093000 -0.202800
vn -0.982000 0.087400 0.167600
vn -0.974800 0.093000 0.202800
vn -0.985300 0.029900 0.168200
vn -0.985300 0.029900 -0.168200
vn -0.644500 0.087400 -0.759600
vn -0.616400 0.093000 -0.781900
vn -0.860000 0.087400 -0.502800
vn -0.877100 0.093000 -0.471300
vn -0.862900 0.029900 -0.504500
vn -0.646700 0.029900 -0.762200
vn -0.005500 0.087400 -0.996200
vn 0.030400 0.093000 -0.995200
vn -0.335600 0.087400 -0.938000
vn -0.369000 0.093000 -0.924800
vn -0.336700 0.029900 -0.941100
vn -0.005500 0.029900 -0.999500
vn 0.636100 0.087400 -0.766600
vn 0.663000 0.093000 -0.742800
vn 0.345800 0.087400 -0.934200
vn 0.311800 0.093000 -0.945600
vn 0.347000 0.029900 -0.937400
vn 0.638300 0.029900 -0.769200
vn 0.868400 0.029900 0.495000
vn 0.865400 0.087400 0.493400
vn 0.846700 0.093000 0.524000
vn 0.980100 0.087400 0.178400
vn 0.985400 0.093000 0.142900
vn 0.983400 0.029900 0.179000
vn 0.980100 0.087400 -0.178400
vn 0.985400 0.093000 -0.142900
vn 0.865400 0.087400 -0.493400
vn 0.846700 0.093000 -0.524000
vn 0.868400 0.029900 -0.495000
vn 0.983400 0.029900 -0.179000
vn -0.000000 0.800000 -0.600000
vn -0.600000 0.800000 0.000000
vn 0.600000 0.800000 0.000000
vn 0.000000 0.800000 0.600000
usemtl None
s off
f 1//1 2//1 3//1
f 4//1 5//1 2//1
f 5//1 3//1 2//1
f 4//2 6//2 5//2
f 6//3 7//3 5//3
f 8//4 3//4 7//4
f 3//4 5//4 7//4
f 1//5 3//5 9//5
f 3//6 8//6 9//6
f 9//7 8//7 10//7
f 8//7 7//7 10//7
f 7//7 6//7 10//7
f 2//8 1//8 11//8
f 9//8 12//8 1//8
f 10//8 13//8 9//8
f 13//8 12//8 9//8
f 12//8 14//8 1//8
f 14//8 11//8 1//8
f 15//9 16//9 17//9
f 18//10 19//10 16//10
f 19//9 17//9 16//9
f 18//4 20//4 19//4
f 21//4 22//4 20//4
f 22//4 19//4 20//4
f 17//7 19//7 23//7
f 19//7 22//7 23//7
f 24//11 23//11 25//11
f 23//11 22//11 25//11
f 22//12 21//12 25//12
f 15//13 17//13 26//13
f 17//13 23//13 26//13
f 23//13 24//13 26//13
f 16//14 15//14 27//14
f 26//14 28//14 15//14
f 28//14 29//14 15//14
f 29//14 27//14 15//14
f 26//15 24//15 28//15
f 25//16 30//16 24//16
f 30//15 31//15 24//15
f 31//15 28//15 24//15
f 32//17 33//17 34//17
f 35//17 36//17 33//17
f 36//18 34//18 33//18
f 35//13 37//13 36//13
f 38//13 39//13 37//13
f 39//13 36//13 37//13
f 34//1 36//1 40//1
f 36//1 39//1 40//1
f 41//19 40//19 42//19
f 40//20 39//20 42//20
f 39//19 38//19 42//19
f 32//4 34//4 43//4
f 34//4 40//4 43//4
f 40//4 41//4 43//4
f 33//21 32//21 44//21
f 43//21 45//21 32//21
f 45//21 46//21 32//21
f 46//21 44//21 32//21
f 43//22 41//22 45//22
f 42//22 47//22 41//22
f 47//22 48//22 41//22
f 48//22 45//22 41//22
f 49//7 50//7 51//7
f 52//7 53//7 50//7
f 53//7 51//7 50//7
f 54//23 55//23 52//23
f 55//24 53//24 52//24
f 56//13 51//13 55//13
f 51//13 53//13 55//13
f 57//25 49//25 56//25
f 49//26 51//26 56//26
f 57//1 56//1 58//1
f 56//1 55//1 58//1
f 55//1 54//1 58//1
f 50//27 49//27 59//27
f 59//27 49//27 60//27
f 58//27 61//27 57//27
f 61//27 62//27 57//27
f 62//27 60//27 57//27
f 57//27 60//27 49//27
f 63//28 64//28 65//28
f 66//28 29//28 64//28
f 67//28 27//28 66//28
f 27//28 29//28 66//28
f 29//28 68//28 64//28
f 68//28 65//28 64//28
f 69//29 70//29 44//29
f 44//30 70//30 71//30
f 72//30 73//30 74//30
f 73//30 75//30 74//30
f 75//30 71//30 74//30
f 74//30 71//30 70//30
f 76//31 77//31 78//31
f 76//31 14//31 77//31
f 12//31 79//31 14//31
f 79//31 12//31 80//31
f 77//31 80//31 78//31
f 78//31 80//31 12//31
f 79//31 81//31 14//31
f 81//31 77//31 14//31
f 60//32 82//32 83//32
f 82//32 60//32 84//32
f 85//32 86//32 62//32
f 85//32 83//32 86//32
f 82//32 86//32 83//32
f 86//32 87//32 62//32
f 87//32 84//32 62//32
f 62//32 84//32 60//32
f 88//33 89//33 90//33
f 89//33 13//33 90//33
f 91//34 92//34 88//34
f 92//34 89//34 88//34
f 93//35 94//35 91//35
f 94//35 92//35 91//35
f 20//36 94//36 21//36
f 94//36 93//36 21//36
f 93//36 30//36 21//36
f 30//37 25//37 21//37
f 95//38 96//38 31//38
f 96//38 28//38 31//38
f 97//39 98//39 95//39
f 98//39 96//39 95//39
f 99//40 59//40 97//40
f 59//40 98//40 97//40
f 2//41 11//41 4//41
f 11//41 100//41 4//41
f 100//41 90//41 4//41
f 4//41 90//41 6//41
f 10//41 6//41 13//41
f 13//41 6//41 90//41
f 50//42 59//42 52//42
f 59//42 99//42 52//42
f 52//42 99//42 54//42
f 99//42 101//42 54//42
f 58//42 54//42 61//42
f 54//42 101//42 61//42
f 102//43 103//43 101//43
f 103//43 61//43 101//43
f 104//44 105//44 102//44
f 105//44 103//44 102//44
f 106//45 107//45 104//45
f 107//45 105//45 104//45
f 37//46 107//46 38//46
f 107//46 106//46 38//46
f 106//46 47//46 38//46
f 47//46 42//46 38//46
f 108//47 109//47 48//47
f 109//47 45//47 48//47
f 110//48 111//48 108//48
f 111//48 109//48 108//48
f 100//49 11//49 110//49
f 11//49 111//49 110//49
f 90//50 100//50 88//50
f 110//50 31//50 100//50
f 110//50 108//50 31//50
f 108//50 48//50 31//50
f 48//50 47//50 31//50
f 47//50 106//50 31//50
f 106//50 104//50 31//50
f 102//50 97//50 104//50
f 102//50 101//50 97//50
f 101//50 99//50 97//50
f 97//50 95//50 104//50
f 95//50 31//50 104//50
f 31//50 30//50 100//50
f 30//50 93//50 100//50
f 93//50 91//50 100//50
f 91//50 88//50 100//50
f 60//51 112//51 59//51
f 112//51 98//51 59//51
f 98//52 112//52 96//52
f 112//52 113//52 96//52
f 114//53 113//53 115//53
f 113//53 112//53 115//53
f 83//54 115//54 60//54
f 115//54 112//54 60//54
f 103//55 116//55 61//55
f 116//55 62//55 61//55
f 85//56 62//56 117//56
f 62//56 116//56 117//56
f 71//57 118//57 107//57
f 118//57 105//57 107//57
f 103//58 105//58 116//58
f 105//58 118//58 116//58
f 116//59 118//59 117//59
f 118//59 119//59 117//59
f 75//60 119//60 71//60
f 119//60 118//60 71//60
f 33//61 44//61 35//61
f 44//61 71//61 35//61
f 71//61 107//61 35//61
f 107//61 37//61 35//61
f 69//62 44//62 120//62
f 44//62 46//62 120//62
f 120//62 46//62 121//62
f 46//62 122//62 121//62
f 72//62 121//62 73//62
f 121//62 122//62 73//62
f 111//63 123//63 109//63
f 123//63 124//63 109//63
f 109//64 124//64 45//64
f 124//64 46//64 45//64
f 122//65 46//65 125//65
f 46//65 124//65 125//65
f 125//66 124//66 126//66
f 124//66 123//66 126//66
f 111//67 11//67 123//67
f 11//67 14//67 123//67
f 123//68 14//68 126//68
f 14//68 76//68 126//68
f 127//69 128//69 92//69
f 128//69 89//69 92//69
f 89//70 128//70 13//70
f 128//70 12//70 13//70
f 78//71 12//71 129//71
f 12//71 128//71 129//71
f 130//72 129//72 127//72
f 129//72 128//72 127//72
f 68//73 29//73 114//73
f 29//73 113//73 114//73
f 96//74 113//74 28//74
f 113//74 29//74 28//74
f 16//75 27//75 18//75
f 27//75 131//75 18//75
f 131//75 94//75 18//75
f 94//75 20//75 18//75
f 92//76 94//76 127//76
f 94//76 131//76 127//76
f 127//77 131//77 130//77
f 131//77 132//77 130//77
f 63//78 65//78 133//78
f 65//78 132//78 133//78
f 132//78 131//78 133//78
f 133//78 131//78 134//78
f 67//78 134//78 27//78
f 27//78 134//78 131//78
f 135//79 136//79 137//79
f 138//80 135//80 137//80
f 136//81 139//81 140//81
f 140//82 137//82 136//82
f 136//83 135//83 141//83
f 141//84 139//84 136//84
f 142//85 143//85 135//85
f 138//86 142//86 135//86
f 143//87 144//87 141//87
f 141//88 135//88 143//88
f 143//89 142//89 145//89
f 145//90 144//90 143//90
f 146//91 147//91 142//91
f 138//92 146//92 142//92
f 147//93 148//93 145//93
f 145//94 142//94 147//94
f 147//95 146//95 149//95
f 149//96 148//96 147//96
f 150//97 151//97 146//97
f 138//98 150//98 146//98
f 151//99 152//99 149//99
f 149//100 146//100 151//100
f 151//101 150//101 153//101
f 153//102 152//102 151//102
f 154//103 155//103 150//103
f 138//104 154//104 150//104
f 155//105 156//105 153//105
f 153//106 150//106 155//106
f 155//107 154//107 157//107
f 157//108 156//108 155//108
f 158//109 159//109 154//109
f 138//110 158//110 154//110
f 159//111 160//111 157//111
f 157//112 154//112 159//112
f 159//113 158//113 161//113
f 161//114 160//114 159//114
f 162//115 163//115 158//115
f 138//116 162//116 158//116
f 163//117 164//117 161//117
f 161//118 158//118 163//118
f 163//119 162//119 165//119
f 165//120 164//120 163//120
f 166//121 167//121 162//121
f 138//122 166//122 162//122
f 167//123 168//123 165//123
f 165//124 162//124 167//124
f 167//125 166//125 169//125
f 169//126 168//126 167//126
f 137//127 170//127 166//127
f 138//128 137//128 166//128
f 170//129 171//129 169//129
f 169//130 166//130 170//130
f 170//131 137//131 140//131
f 140//132 171//132 170//132
f 172//133 173//133 144//133
f 145//134 172//134 144//134
f 144//135 173//135 174//135
f 141//136 144//136 174//136
f 174//137 173//137 130//137
f 173//137 129//137 130//137
f 78//138 129//138 172//138
f 129//138 173//138 172//138
f 175//139 176//139 148//139
f 149//140 175//140 148//140
f 148//141 176//141 172//141
f 145//142 148//142 172//142
f 78//143 172//143 76//143
f 172//143 176//143 76//143
f 76//144 176//144 126//144
f 176//144 175//144 126//144
f 177//145 178//145 152//145
f 153//146 177//146 152//146
f 152//147 178//147 175//147
f 149//148 152//148 175//148
f 175//149 178//149 126//149
f 178//149 125//149 126//149
f 125//150 178//150 122//150
f 178//150 177//150 122//150
f 179//151 180//151 156//151
f 157//152 179//152 156//152
f 156//153 180//153 177//153
f 153//154 156//154 177//154
f 177//155 180//155 122//155
f 180//155 73//155 122//155
f 75//156 73//156 179//156
f 73//156 180//156 179//156
f 181//157 182//157 160//157
f 161//158 181//158 160//158
f 160//159 182//159 179//159
f 157//160 160//160 179//160
f 75//161 179//161 119//161
f 179//161 182//161 119//161
f 117//162 119//162 181//162
f 119//162 182//162 181//162
f 183//163 184//163 164//163
f 165//164 183//164 164//164
f 164//165 184//165 181//165
f 161//166 164//166 181//166
f 181//167 184//167 117//167
f 184//167 85//167 117//167
f 83//168 85//168 183//168
f 85//168 184//168 183//168
f 185//169 186//169 168//169
f 169//170 185//170 168//170
f 168//171 186//171 183//171
f 165//172 168//172 183//172
f 83//173 183//173 115//173
f 183//173 186//173 115//173
f 115//174 186//174 114//174
f 186//174 185//174 114//174
f 132//175 187//175 130//175
f 187//175 174//175 130//175
f 174//176 187//176 139//176
f 141//177 174//177 139//177
f 139//178 187//178 188//178
f 140//179 139//179 188//179
f 188//180 187//180 65//180
f 187//180 132//180 65//180
f 188//181 189//181 171//181
f 140//182 188//182 171//182
f 171//183 189//183 185//183
f 169//184 171//184 185//184
f 114//185 185//185 68//185
f 185//185 189//185 68//185
f 65//186 68//186 188//186
f 68//186 189//186 188//186
f 87//50 190//50 84//50
f 190//50 191//50 84//50
f 86//1 192//1 87//1
f 192//1 190//1 87//1
f 190//13 192//13 191//13
f 192//13 193//13 191//13
f 86//187 82//187 192//187
f 82//187 193//187 192//187
f 82//7 84//7 193//7
f 84//7 191//7 193//7
f 121//4 194//4 120//4
f 194//4 195//4 120//4
f 121//188 72//188 194//188
f 74//188 196//188 72//188
f 196//188 194//188 72//188
f 120//50 195//50 69//50
f 195//50 197//50 69//50
f 197//50 70//50 69//50
f 195//1 194//1 197//1
f 194//1 196//1 197//1
f 74//13 70//13 196//13
f 70//13 197//13 196//13
f 133//4 134//4 198//4
f 134//4 199//4 198//4
f 134//50 67//50 199//50
f 66//50 200//50 67//50
f 200//50 199//50 67//50
f 133//189 198//189 63//189
f 198//189 201//189 63//189
f 201//189 64//189 63//189
f 64//13 201//13 66//13
f 201//13 200//13 66//13
f 200//7 201//7 199//7
f 201//7 198//7 199//7
f 81//50 79//50 202//50
f 79//50 203//50 202//50
f 80//7 204//7 79//7
f 204//7 203//7 79//7
f 203//4 204//4 202//4
f 204//4 205//4 202//4
f 77//190 205//190 80//190
f 205//190 204//190 80//190
f 77//1 81//1 205//1
f 81//1 202//1 205//1
