# Blender v2.74 (sub 0) OBJ File: 'rock holder.blend'
# www.blender.org
mtllib rock holder.mtl
o Armory_Rocket_Launcher
v 0.009810 0.090200 -0.318761
v -0.048415 0.090200 -0.318761
v 0.009810 0.090200 0.022358
v -0.048415 0.090200 -0.398201
v -0.164867 0.090200 -0.398201
v -0.164867 0.090200 -0.318761
v -0.223093 0.090200 -0.318761
v -0.164867 0.090200 0.022358
v -0.223093 0.090200 0.022358
v -0.164867 0.090200 0.101799
v -0.048415 0.090200 0.101799
v -0.048415 0.090200 0.022358
v 0.927553 0.090200 -0.318761
v 0.869327 0.090200 -0.318761
v 0.927553 0.090200 0.022358
v 0.869327 0.090200 -0.398201
v 0.752875 0.090200 -0.398201
v 0.752875 0.090200 -0.318761
v 0.694649 0.090200 -0.318761
v 0.752875 0.090200 0.022358
v 0.694649 0.090200 0.022358
v 0.752875 0.090200 0.101799
v 0.869327 0.090200 0.101799
v 0.869327 0.090200 0.022358
v -0.966157 0.090200 -0.398201
v -1.082609 0.090200 -0.398201
v -0.966157 0.090200 -0.318761
v -1.140835 0.090200 -0.318761
v -1.082609 0.090200 0.022358
v -1.082609 0.090200 -0.318761
v -1.140835 0.090200 0.022358
v -1.082609 0.090200 0.101799
v -0.966157 0.090200 0.101799
v -0.966157 0.090200 0.022358
v -0.907932 0.090200 0.022358
v -0.907932 0.090200 -0.318761
v -1.373738 0.083056 0.226799
v -1.373738 0.083056 -0.523201
v -1.373738 0.041529 0.226799
v -1.373738 0.041529 -0.523201
v 1.160456 0.083056 -0.523201
v 1.160456 0.041529 -0.523201
v 1.393359 0.041529 0.351799
v 1.160456 0.041529 0.226799
v -1.606641 0.041529 -0.648201
v 1.393359 0.041529 -0.648201
v -1.606641 0.041529 0.351799
v 1.160456 0.083056 0.226799
v 1.393359 0.000001 -0.648201
v -1.606641 0.000001 -0.648201
v 1.393359 0.000001 0.351799
v -0.907932 0.090200 -0.398201
v -0.907932 0.083056 -0.398201
v -1.140835 0.090200 -0.398201
v -1.140835 0.083056 -0.398201
v -1.140835 0.090200 0.101799
v -1.140835 0.083056 0.101799
v -0.907932 0.083056 0.101799
v -0.907932 0.090200 0.101799
v 0.927553 0.090200 -0.398201
v 0.927553 0.083056 -0.398201
v 0.694649 0.090200 -0.398201
v 0.694649 0.083056 -0.398201
v 0.694649 0.090200 0.101799
v 0.694649 0.083056 0.101799
v 0.927553 0.083056 0.101799
v 0.927553 0.090200 0.101799
v 0.009810 0.090200 -0.398201
v 0.009810 0.083056 -0.398201
v -0.223093 0.090200 -0.398201
v -0.223093 0.083056 -0.398201
v -0.223093 0.090200 0.101799
v -0.223093 0.083056 0.101799
v 0.009810 0.083056 0.101799
v 0.009810 0.090200 0.101799
v -1.606641 0.000001 0.351799
v -0.966157 0.355365 0.366963
v -0.907932 0.355365 0.366963
v -0.966157 0.541090 0.101799
v -0.907932 0.541090 0.101799
v -0.966157 0.355365 0.287523
v -0.907932 0.355365 0.287523
v -0.966157 0.708050 0.014279
v -0.907932 0.708050 0.014279
v -0.966157 0.694006 0.000236
v -0.907932 0.694006 0.000236
v -0.907932 0.606487 0.087755
v -0.966157 0.606487 0.087755
v -0.966157 0.555133 0.087755
v -0.966157 0.467613 0.000236
v -0.966157 0.453570 0.014279
v -0.907932 0.555133 0.087755
v -0.907932 0.467613 0.000236
v -0.907932 0.453570 0.014279
v 0.752875 0.453570 0.014279
v 0.752875 0.555133 0.087755
v 0.752875 0.541090 0.101799
v 0.752875 0.467613 0.000236
v 0.752875 0.606487 0.087755
v 0.752875 0.694006 0.000236
v 0.752875 0.708050 0.014279
v 0.752875 0.355365 0.366963
v 0.752875 0.355365 0.287523
v 0.694649 0.467613 0.000236
v 0.694649 0.555133 0.087755
v 0.694649 0.453570 0.014279
v 0.694649 0.541090 0.101799
v 0.694649 0.606487 0.087755
v 0.694649 0.708050 0.014279
v 0.694649 0.355365 0.366963
v 0.694649 0.694006 0.000236
v 0.694649 0.355365 0.287523
v -0.223093 0.355365 0.366963
v -0.164867 0.355365 0.366963
v -0.223093 0.541090 0.101799
v -0.164867 0.541090 0.101799
v -0.223093 0.355365 0.287523
v -0.164867 0.355365 0.287523
v -0.223093 0.708050 0.014279
v -0.164867 0.708050 0.014279
v -0.223093 0.694006 0.000236
v -0.164867 0.694006 0.000236
v -0.164867 0.606487 0.087755
v -0.223093 0.606487 0.087755
v -0.223093 0.555133 0.087755
v -0.164867 0.555133 0.087755
v -0.223093 0.467613 0.000236
v -0.164867 0.467613 0.000236
v -0.223093 0.453570 0.014279
v -0.164867 0.453570 0.014279
v 0.869327 0.467613 0.000236
v 0.869327 0.555133 0.087755
v 0.927553 0.467613 0.000236
v 0.927553 0.555133 0.087755
v 0.927553 0.453570 0.014279
v 0.927553 0.541090 0.101799
v 0.869327 0.453570 0.014279
v 0.869327 0.541090 0.101799
v 0.869327 0.606487 0.087755
v 0.927553 0.606487 0.087755
v 0.869327 0.355365 0.366963
v 0.869327 0.708050 0.014279
v 0.869327 0.694006 0.000236
v 0.869327 0.355365 0.287523
v 0.927553 0.708050 0.014279
v 0.927553 0.355365 0.366963
v 0.927553 0.694006 0.000236
v 0.927553 0.355365 0.287523
v -1.140835 0.355365 0.366963
v -1.082609 0.355365 0.366963
v -1.140835 0.541090 0.101799
v -1.082609 0.541090 0.101799
v -1.140835 0.355365 0.287523
v -1.082609 0.355365 0.287523
v -1.140835 0.708050 0.014279
v -1.082609 0.708050 0.014279
v -1.140835 0.694006 0.000236
v -1.082609 0.694006 0.000236
v -1.082609 0.606487 0.087755
v -1.140835 0.606487 0.087755
v -1.140835 0.555133 0.087755
v -1.082609 0.555133 0.087755
v -1.140835 0.467613 0.000236
v -1.082609 0.467613 0.000236
v -1.140835 0.453570 0.014279
v -1.082609 0.453570 0.014279
v -0.048415 0.467613 0.000236
v -0.048415 0.555133 0.087755
v 0.009810 0.467613 0.000236
v 0.009810 0.555133 0.087755
v 0.009810 0.453570 0.014279
v 0.009810 0.541090 0.101799
v -0.048415 0.453570 0.014279
v -0.048415 0.541090 0.101799
v -0.048415 0.606487 0.087755
v 0.009810 0.606487 0.087755
v -0.048415 0.355365 0.366963
v -0.048415 0.708050 0.014279
v -0.048415 0.694006 0.000236
v -0.048415 0.355365 0.287523
v 0.009810 0.708050 0.014279
v 0.009810 0.355365 0.366963
v 0.009810 0.694006 0.000236
v 0.009810 0.355365 0.287523
v -0.907932 0.355365 -0.663366
v -0.907932 0.355365 -0.583926
v -0.907932 0.708050 -0.310681
v -0.907932 0.606487 -0.384158
v -0.907932 0.694006 -0.296638
v -0.907932 0.541090 -0.398201
v -0.907932 0.555133 -0.384158
v -0.907932 0.453570 -0.310681
v -0.907932 0.467613 -0.296638
v -0.966157 0.355365 -0.663366
v -0.966157 0.541090 -0.398201
v -0.966157 0.355365 -0.583926
v -0.966157 0.694006 -0.296638
v -0.966157 0.708050 -0.310681
v -0.966157 0.606487 -0.384158
v -0.966157 0.555133 -0.384158
v -0.966157 0.453570 -0.310681
v -0.966157 0.467613 -0.296638
v 0.752875 0.467613 -0.296638
v 0.752875 0.453570 -0.310681
v 0.752875 0.555133 -0.384158
v 0.752875 0.355365 -0.583926
v 0.752875 0.355365 -0.663366
v 0.752875 0.541090 -0.398201
v 0.752875 0.606487 -0.384158
v 0.752875 0.694006 -0.296638
v 0.752875 0.708050 -0.310681
v 0.694649 0.555133 -0.384158
v 0.694649 0.467613 -0.296638
v 0.694649 0.541090 -0.398201
v 0.694649 0.453570 -0.310681
v 0.694649 0.606487 -0.384158
v 0.694649 0.355365 -0.663366
v 0.694649 0.708050 -0.310681
v 0.694649 0.694006 -0.296638
v 0.694649 0.355365 -0.583926
v -0.223093 0.355365 -0.583926
v -0.223093 0.355365 -0.663366
v -0.223093 0.453570 -0.310681
v -0.223093 0.467613 -0.296638
v -0.223093 0.541090 -0.398201
v -0.223093 0.555133 -0.384158
v -0.223093 0.606487 -0.384158
v -0.223093 0.694006 -0.296638
v -0.223093 0.708050 -0.310681
v -0.164867 0.355365 -0.663366
v -0.164867 0.541090 -0.398201
v -0.164867 0.355365 -0.583926
v -0.164867 0.694006 -0.296638
v -0.164867 0.708050 -0.310681
v -0.164867 0.606487 -0.384158
v -0.164867 0.555133 -0.384158
v -0.164867 0.453570 -0.310681
v -0.164867 0.467613 -0.296638
v 0.869327 0.555133 -0.384158
v 0.869327 0.467613 -0.296638
v 0.927553 0.555133 -0.384158
v 0.927553 0.467613 -0.296638
v 0.927553 0.541090 -0.398201
v 0.927553 0.453570 -0.310681
v 0.869327 0.541090 -0.398201
v 0.869327 0.453570 -0.310681
v 0.927553 0.606487 -0.384158
v 0.869327 0.606487 -0.384158
v 0.869327 0.694006 -0.296638
v 0.869327 0.708050 -0.310681
v 0.869327 0.355365 -0.663366
v 0.869327 0.355365 -0.583926
v 0.927553 0.355365 -0.663366
v 0.927553 0.708050 -0.310681
v 0.927553 0.694006 -0.296638
v 0.927553 0.355365 -0.583926
v -1.140835 0.355365 -0.583926
v -1.140835 0.355365 -0.663366
v -1.140835 0.453570 -0.310681
v -1.140835 0.467613 -0.296638
v -1.140835 0.541090 -0.398201
v -1.140835 0.555133 -0.384158
v -1.140835 0.606487 -0.384158
v -1.140835 0.694006 -0.296638
v -1.140835 0.708050 -0.310681
v -1.082609 0.355365 -0.663366
v -1.082609 0.541090 -0.398201
v -1.082609 0.355365 -0.583926
v -1.082609 0.694006 -0.296638
v -1.082609 0.708050 -0.310681
v -1.082609 0.606487 -0.384158
v -1.082609 0.555133 -0.384158
v -1.082609 0.453570 -0.310681
v -1.082609 0.467613 -0.296638
v -0.048415 0.555133 -0.384158
v -0.048415 0.467613 -0.296638
v 0.009810 0.555133 -0.384158
v 0.009810 0.467613 -0.296638
v 0.009810 0.541090 -0.398201
v 0.009810 0.453570 -0.310681
v -0.048415 0.541090 -0.398201
v -0.048415 0.453570 -0.310681
v 0.009810 0.606487 -0.384158
v -0.048415 0.606487 -0.384158
v -0.048415 0.694006 -0.296638
v -0.048415 0.708050 -0.310681
v -0.048415 0.355365 -0.663366
v -0.048415 0.355365 -0.583926
v 0.009810 0.355365 -0.663366
v 0.009810 0.708050 -0.310681
v 0.009810 0.694006 -0.296638
v 0.009810 0.355365 -0.583926
vn 0.000000 1.000000 0.000000
vn -1.000000 0.000000 0.000000
vn 0.000000 0.000000 -1.000000
vn 0.000000 0.000000 1.000000
vn 1.000000 0.000000 0.000000
vn 0.000000 -1.000000 0.000000
vn 0.000000 -0.707100 0.707100
vn 0.000000 -0.707100 -0.707100
vn 0.000000 0.707100 -0.707100
vn 0.000000 0.707100 0.707100
usemtl None
s off
f 1//1 2//1 3//1
f 4//1 5//1 2//1
f 5//1 6//1 2//1
f 7//1 8//1 6//1
f 7//1 9//1 8//1
f 10//1 11//1 8//1
f 11//1 12//1 8//1
f 3//1 2//1 12//1
f 2//1 6//1 12//1
f 8//1 12//1 6//1
f 13//1 14//1 15//1
f 16//1 17//1 14//1
f 17//1 18//1 14//1
f 19//1 20//1 18//1
f 19//1 21//1 20//1
f 22//1 23//1 20//1
f 23//1 24//1 20//1
f 15//1 14//1 24//1
f 14//1 18//1 24//1
f 20//1 24//1 18//1
f 25//1 26//1 27//1
f 28//1 29//1 30//1
f 28//1 31//1 29//1
f 32//1 33//1 29//1
f 33//1 34//1 29//1
f 35//1 27//1 34//1
f 35//1 36//1 27//1
f 29//1 34//1 30//1
f 26//1 30//1 27//1
f 30//1 34//1 27//1
f 37//2 38//2 39//2
f 38//2 40//2 39//2
f 38//3 41//3 40//3
f 41//3 42//3 40//3
f 39//1 43//1 44//1
f 40//1 45//1 39//1
f 40//1 42//1 45//1
f 45//1 42//1 46//1
f 45//1 47//1 39//1
f 47//1 43//1 39//1
f 43//1 46//1 44//1
f 44//1 46//1 42//1
f 39//4 44//4 37//4
f 44//4 48//4 37//4
f 44//5 42//5 48//5
f 42//5 41//5 48//5
f 46//3 49//3 45//3
f 49//3 50//3 45//3
f 43//5 51//5 46//5
f 51//5 49//5 46//5
f 52//3 53//3 25//3
f 25//3 53//3 26//3
f 54//3 26//3 55//3
f 55//3 26//3 53//3
f 56//4 57//4 32//4
f 57//4 58//4 32//4
f 59//4 33//4 58//4
f 33//4 32//4 58//4
f 60//3 61//3 16//3
f 16//3 61//3 17//3
f 62//3 17//3 63//3
f 63//3 17//3 61//3
f 64//4 65//4 22//4
f 65//4 66//4 22//4
f 67//4 23//4 66//4
f 23//4 22//4 66//4
f 68//3 69//3 4//3
f 4//3 69//3 5//3
f 70//3 5//3 71//3
f 71//3 5//3 69//3
f 72//4 73//4 10//4
f 73//4 74//4 10//4
f 75//4 11//4 74//4
f 11//4 10//4 74//4
f 37//1 55//1 38//1
f 48//1 73//1 37//1
f 41//1 61//1 48//1
f 38//1 69//1 41//1
f 55//1 53//1 38//1
f 58//1 73//1 53//1
f 73//1 58//1 37//1
f 58//1 57//1 37//1
f 61//1 41//1 63//1
f 61//1 66//1 48//1
f 66//1 65//1 48//1
f 63//1 69//1 65//1
f 69//1 38//1 71//1
f 69//1 74//1 65//1
f 65//1 74//1 48//1
f 73//1 71//1 53//1
f 37//1 57//1 55//1
f 73//1 48//1 74//1
f 69//1 63//1 41//1
f 53//1 71//1 38//1
f 50//6 49//6 76//6
f 49//6 51//6 76//6
f 47//4 76//4 43//4
f 76//4 51//4 43//4
f 45//2 50//2 47//2
f 50//2 76//2 47//2
f 33//7 59//7 77//7
f 59//7 78//7 77//7
f 79//8 80//8 81//8
f 80//8 82//8 81//8
f 35//9 34//9 82//9
f 34//9 81//9 82//9
f 83//9 84//9 85//9
f 84//9 86//9 85//9
f 86//8 87//8 85//8
f 87//8 88//8 85//8
f 83//10 77//10 84//10
f 77//10 78//10 84//10
f 89//2 79//2 88//2
f 90//2 91//2 89//2
f 91//2 79//2 89//2
f 88//2 79//2 77//2
f 88//2 77//2 83//2
f 88//2 83//2 85//2
f 34//2 33//2 81//2
f 33//2 77//2 81//2
f 81//2 77//2 79//2
f 88//3 87//3 89//3
f 87//3 92//3 89//3
f 90//8 93//8 91//8
f 93//8 94//8 91//8
f 94//7 80//7 91//7
f 80//7 79//7 91//7
f 90//9 89//9 93//9
f 89//9 92//9 93//9
f 95//5 96//5 97//5
f 95//5 98//5 96//5
f 96//5 99//5 97//5
f 100//5 101//5 99//5
f 101//5 102//5 99//5
f 22//5 103//5 102//5
f 22//5 20//5 103//5
f 103//5 97//5 102//5
f 97//5 99//5 102//5
f 104//9 105//9 98//9
f 105//9 96//9 98//9
f 95//7 97//7 106//7
f 97//7 107//7 106//7
f 104//8 98//8 106//8
f 98//8 95//8 106//8
f 108//3 99//3 105//3
f 99//3 96//3 105//3
f 109//10 110//10 101//10
f 110//10 102//10 101//10
f 100//8 99//8 111//8
f 99//8 108//8 111//8
f 109//9 101//9 111//9
f 101//9 100//9 111//9
f 20//9 21//9 103//9
f 21//9 112//9 103//9
f 107//8 97//8 112//8
f 97//8 103//8 112//8
f 64//7 22//7 110//7
f 22//7 102//7 110//7
f 72//7 10//7 113//7
f 10//7 114//7 113//7
f 115//8 116//8 117//8
f 116//8 118//8 117//8
f 8//9 9//9 118//9
f 9//9 117//9 118//9
f 119//9 120//9 121//9
f 120//9 122//9 121//9
f 122//8 123//8 121//8
f 123//8 124//8 121//8
f 119//10 113//10 120//10
f 113//10 114//10 120//10
f 124//3 123//3 125//3
f 123//3 126//3 125//3
f 127//8 128//8 129//8
f 128//8 130//8 129//8
f 130//7 116//7 129//7
f 116//7 115//7 129//7
f 127//9 125//9 128//9
f 125//9 126//9 128//9
f 130//5 126//5 116//5
f 130//5 128//5 126//5
f 126//5 123//5 116//5
f 122//5 120//5 123//5
f 120//5 114//5 123//5
f 10//5 118//5 114//5
f 10//5 8//5 118//5
f 118//5 116//5 114//5
f 116//5 123//5 114//5
f 131//9 132//9 133//9
f 132//9 134//9 133//9
f 135//7 136//7 137//7
f 136//7 138//7 137//7
f 131//8 133//8 137//8
f 133//8 135//8 137//8
f 139//3 140//3 132//3
f 140//3 134//3 132//3
f 132//2 138//2 139//2
f 131//2 137//2 132//2
f 137//2 138//2 132//2
f 139//2 138//2 141//2
f 139//2 141//2 142//2
f 139//2 142//2 143//2
f 24//2 23//2 144//2
f 23//2 141//2 144//2
f 144//2 141//2 138//2
f 142//10 141//10 145//10
f 141//10 146//10 145//10
f 147//8 140//8 143//8
f 140//8 139//8 143//8
f 142//9 145//9 143//9
f 145//9 147//9 143//9
f 15//9 24//9 148//9
f 24//9 144//9 148//9
f 23//7 67//7 141//7
f 67//7 146//7 141//7
f 138//8 136//8 144//8
f 136//8 148//8 144//8
f 56//7 32//7 149//7
f 32//7 150//7 149//7
f 151//8 152//8 153//8
f 152//8 154//8 153//8
f 29//9 31//9 154//9
f 31//9 153//9 154//9
f 155//9 156//9 157//9
f 156//9 158//9 157//9
f 158//8 159//8 157//8
f 159//8 160//8 157//8
f 155//10 149//10 156//10
f 149//10 150//10 156//10
f 160//3 159//3 161//3
f 159//3 162//3 161//3
f 163//8 164//8 165//8
f 164//8 166//8 165//8
f 166//7 152//7 165//7
f 152//7 151//7 165//7
f 163//9 161//9 164//9
f 161//9 162//9 164//9
f 166//5 162//5 152//5
f 166//5 164//5 162//5
f 162//5 159//5 152//5
f 158//5 156//5 159//5
f 156//5 150//5 159//5
f 32//5 154//5 150//5
f 32//5 29//5 154//5
f 154//5 152//5 150//5
f 152//5 159//5 150//5
f 167//9 168//9 169//9
f 168//9 170//9 169//9
f 171//7 172//7 173//7
f 172//7 174//7 173//7
f 167//8 169//8 173//8
f 169//8 171//8 173//8
f 175//3 176//3 168//3
f 176//3 170//3 168//3
f 168//2 174//2 175//2
f 167//2 173//2 168//2
f 173//2 174//2 168//2
f 175//2 174//2 177//2
f 175//2 177//2 178//2
f 175//2 178//2 179//2
f 12//2 11//2 180//2
f 11//2 177//2 180//2
f 180//2 177//2 174//2
f 178//10 177//10 181//10
f 177//10 182//10 181//10
f 183//8 176//8 179//8
f 176//8 175//8 179//8
f 178//9 181//9 179//9
f 181//9 183//9 179//9
f 3//9 12//9 184//9
f 12//9 180//9 184//9
f 174//8 172//8 180//8
f 172//8 184//8 180//8
f 11//7 75//7 177//7
f 75//7 182//7 177//7
f 185//5 186//5 52//5
f 187//5 188//5 185//5
f 187//5 189//5 188//5
f 185//5 188//5 190//5
f 185//5 190//5 186//5
f 188//5 191//5 190//5
f 192//5 190//5 193//5
f 186//5 36//5 52//5
f 52//5 36//5 53//5
f 82//5 59//5 35//5
f 59//5 82//5 78//5
f 94//5 93//5 80//5
f 93//5 92//5 80//5
f 92//5 87//5 80//5
f 86//5 84//5 87//5
f 84//5 78//5 87//5
f 59//5 58//5 35//5
f 58//5 53//5 35//5
f 35//5 53//5 36//5
f 190//5 191//5 193//5
f 82//5 80//5 78//5
f 78//5 80//5 87//5
f 52//8 25//8 185//8
f 25//8 194//8 185//8
f 190//7 195//7 186//7
f 195//7 196//7 186//7
f 27//10 36//10 196//10
f 36//10 186//10 196//10
f 197//10 189//10 198//10
f 189//10 187//10 198//10
f 188//7 189//7 199//7
f 189//7 197//7 199//7
f 194//9 198//9 185//9
f 198//9 187//9 185//9
f 199//2 195//2 200//2
f 197//2 198//2 199//2
f 198//2 194//2 199//2
f 25//2 196//2 194//2
f 25//2 27//2 196//2
f 196//2 195//2 194//2
f 195//2 201//2 200//2
f 201//2 202//2 200//2
f 195//2 199//2 194//2
f 188//4 199//4 191//4
f 199//4 200//4 191//4
f 201//7 192//7 202//7
f 192//7 193//7 202//7
f 190//8 192//8 195//8
f 192//8 201//8 195//8
f 200//10 202//10 191//10
f 202//10 193//10 191//10
f 203//5 204//5 205//5
f 206//5 207//5 208//5
f 18//5 17//5 206//5
f 17//5 207//5 206//5
f 208//5 207//5 209//5
f 208//5 209//5 205//5
f 208//5 205//5 204//5
f 210//5 209//5 211//5
f 211//5 209//5 207//5
f 212//10 213//10 205//10
f 213//10 203//10 205//10
f 208//8 204//8 214//8
f 204//8 215//8 214//8
f 215//7 204//7 213//7
f 204//7 203//7 213//7
f 209//4 216//4 205//4
f 216//4 212//4 205//4
f 217//9 218//9 207//9
f 218//9 211//9 207//9
f 209//7 210//7 216//7
f 210//7 219//7 216//7
f 219//10 210//10 218//10
f 210//10 211//10 218//10
f 19//10 18//10 220//10
f 18//10 206//10 220//10
f 208//7 214//7 206//7
f 214//7 220//7 206//7
f 17//8 62//8 207//8
f 62//8 217//8 207//8
f 220//2 62//2 19//2
f 62//2 220//2 217//2
f 215//2 213//2 214//2
f 213//2 212//2 214//2
f 212//2 216//2 214//2
f 219//2 218//2 216//2
f 218//2 217//2 216//2
f 62//2 63//2 19//2
f 63//2 65//2 19//2
f 19//2 65//2 21//2
f 110//2 112//2 64//2
f 109//2 108//2 110//2
f 109//2 111//2 108//2
f 110//2 108//2 107//2
f 110//2 107//2 112//2
f 108//2 105//2 107//2
f 106//2 107//2 104//2
f 112//2 21//2 64//2
f 64//2 21//2 65//2
f 107//2 105//2 104//2
f 220//2 214//2 217//2
f 217//2 214//2 216//2
f 221//2 70//2 7//2
f 70//2 221//2 222//2
f 223//2 224//2 225//2
f 224//2 226//2 225//2
f 226//2 227//2 225//2
f 228//2 229//2 227//2
f 229//2 222//2 227//2
f 70//2 71//2 7//2
f 71//2 73//2 7//2
f 7//2 73//2 9//2
f 113//2 117//2 72//2
f 119//2 124//2 113//2
f 119//2 121//2 124//2
f 113//2 124//2 115//2
f 113//2 115//2 117//2
f 124//2 125//2 115//2
f 129//2 115//2 127//2
f 117//2 9//2 72//2
f 72//2 9//2 73//2
f 115//2 125//2 127//2
f 221//2 225//2 222//2
f 222//2 225//2 227//2
f 5//8 70//8 230//8
f 70//8 222//8 230//8
f 231//7 225//7 232//7
f 225//7 221//7 232//7
f 7//10 6//10 221//10
f 6//10 232//10 221//10
f 228//10 233//10 229//10
f 233//10 234//10 229//10
f 235//7 233//7 227//7
f 233//7 228//7 227//7
f 222//9 229//9 230//9
f 229//9 234//9 230//9
f 235//4 227//4 236//4
f 227//4 226//4 236//4
f 223//7 237//7 224//7
f 237//7 238//7 224//7
f 231//8 237//8 225//8
f 237//8 223//8 225//8
f 226//10 224//10 236//10
f 224//10 238//10 236//10
f 238//5 237//5 236//5
f 232//5 230//5 231//5
f 6//5 5//5 232//5
f 5//5 230//5 232//5
f 231//5 230//5 235//5
f 231//5 235//5 236//5
f 231//5 236//5 237//5
f 233//5 235//5 234//5
f 234//5 235//5 230//5
f 239//10 240//10 241//10
f 240//10 242//10 241//10
f 243//8 244//8 245//8
f 244//8 246//8 245//8
f 246//7 244//7 240//7
f 244//7 242//7 240//7
f 247//4 248//4 241//4
f 248//4 239//4 241//4
f 248//2 245//2 239//2
f 249//2 250//2 248//2
f 250//2 251//2 248//2
f 16//2 252//2 251//2
f 16//2 14//2 252//2
f 252//2 245//2 251//2
f 245//2 246//2 239//2
f 246//2 240//2 239//2
f 245//2 248//2 251//2
f 251//9 250//9 253//9
f 250//9 254//9 253//9
f 247//7 255//7 248//7
f 255//7 249//7 248//7
f 249//10 255//10 250//10
f 255//10 254//10 250//10
f 14//10 13//10 252//10
f 13//10 256//10 252//10
f 60//8 16//8 253//8
f 16//8 251//8 253//8
f 243//7 245//7 256//7
f 245//7 252//7 256//7
f 253//5 256//5 60//5
f 254//5 247//5 253//5
f 254//5 255//5 247//5
f 253//5 247//5 243//5
f 253//5 243//5 256//5
f 247//5 241//5 243//5
f 244//5 243//5 242//5
f 256//5 13//5 60//5
f 60//5 13//5 61//5
f 148//5 67//5 15//5
f 67//5 148//5 146//5
f 135//5 133//5 136//5
f 133//5 134//5 136//5
f 134//5 140//5 136//5
f 147//5 145//5 140//5
f 145//5 146//5 140//5
f 67//5 66//5 15//5
f 66//5 61//5 15//5
f 15//5 61//5 13//5
f 243//5 241//5 242//5
f 148//5 136//5 146//5
f 146//5 136//5 140//5
f 257//2 54//2 28//2
f 54//2 257//2 258//2
f 259//2 260//2 261//2
f 260//2 262//2 261//2
f 262//2 263//2 261//2
f 264//2 265//2 263//2
f 265//2 258//2 263//2
f 54//2 55//2 28//2
f 55//2 57//2 28//2
f 28//2 57//2 31//2
f 149//2 153//2 56//2
f 155//2 160//2 149//2
f 155//2 157//2 160//2
f 149//2 160//2 151//2
f 149//2 151//2 153//2
f 160//2 161//2 151//2
f 165//2 151//2 163//2
f 153//2 31//2 56//2
f 56//2 31//2 57//2
f 151//2 161//2 163//2
f 257//2 261//2 258//2
f 258//2 261//2 263//2
f 26//8 54//8 266//8
f 54//8 258//8 266//8
f 267//7 261//7 268//7
f 261//7 257//7 268//7
f 28//10 30//10 257//10
f 30//10 268//10 257//10
f 264//10 269//10 265//10
f 269//10 270//10 265//10
f 271//7 269//7 263//7
f 269//7 264//7 263//7
f 258//9 265//9 266//9
f 265//9 270//9 266//9
f 271//4 263//4 272//4
f 263//4 262//4 272//4
f 259//7 273//7 260//7
f 273//7 274//7 260//7
f 267//8 273//8 261//8
f 273//8 259//8 261//8
f 262//10 260//10 272//10
f 260//10 274//10 272//10
f 274//5 273//5 272//5
f 268//5 266//5 267//5
f 30//5 26//5 268//5
f 26//5 266//5 268//5
f 267//5 266//5 271//5
f 267//5 271//5 272//5
f 267//5 272//5 273//5
f 269//5 271//5 270//5
f 270//5 271//5 266//5
f 275//10 276//10 277//10
f 276//10 278//10 277//10
f 279//8 280//8 281//8
f 280//8 282//8 281//8
f 282//7 280//7 276//7
f 280//7 278//7 276//7
f 283//4 284//4 277//4
f 284//4 275//4 277//4
f 284//2 281//2 275//2
f 285//2 286//2 284//2
f 286//2 287//2 284//2
f 4//2 288//2 287//2
f 4//2 2//2 288//2
f 288//2 281//2 287//2
f 281//2 282//2 275//2
f 282//2 276//2 275//2
f 281//2 284//2 287//2
f 287//9 286//9 289//9
f 286//9 290//9 289//9
f 283//7 291//7 284//7
f 291//7 285//7 284//7
f 285//10 291//10 286//10
f 291//10 290//10 286//10
f 2//10 1//10 288//10
f 1//10 292//10 288//10
f 279//7 281//7 292//7
f 281//7 288//7 292//7
f 68//8 4//8 289//8
f 4//8 287//8 289//8
f 289//5 292//5 68//5
f 290//5 283//5 289//5
f 290//5 291//5 283//5
f 289//5 283//5 279//5
f 289//5 279//5 292//5
f 283//5 277//5 279//5
f 280//5 279//5 278//5
f 292//5 1//5 68//5
f 68//5 1//5 69//5
f 184//5 75//5 3//5
f 75//5 184//5 182//5
f 171//5 169//5 172//5
f 169//5 170//5 172//5
f 170//5 176//5 172//5
f 183//5 181//5 176//5
f 181//5 182//5 176//5
f 75//5 74//5 3//5
f 74//5 69//5 3//5
f 3//5 69//5 1//5
f 279//5 277//5 278//5
f 184//5 172//5 182//5
f 182//5 172//5 176//5
